{
.appVersion = "1271";
DisplayStrings = (
"/ef-cy",
"/ve-cy",
"/ii-cy",
"¨/io-cy",
"/io-cy",
"/Gheupturn-cy",
"/Ef-cy",
"/ge-cy",
"/gheupturn-cy",
"/shcha-cy",
"/ereversed-cy",
"/e-cy"
);
copyright = "Copyright (c) 2014, Cooper Hewitt Smithsonian Design Museum (cooperhewitt.org)";
customParameters = (
{
name = glyphOrder;
value = (
A,
Agrave,
Aacute,
Acircumflex,
Atilde,
Adieresis,
Aring,
Amacron,
Abreve,
Aogonek,
B,
Bdotaccent,
C,
Ccedilla,
Cacute,
Ccircumflex,
Cdotaccent,
Ccaron,
D,
Dcaron,
Ddotaccent,
E,
Egrave,
Eacute,
Ecircumflex,
Edieresis,
Emacron,
Ebreve,
Edotaccent,
Eogonek,
Ecaron,
F,
Fdotaccent,
G,
Gcircumflex,
Gbreve,
Gdotaccent,
Gcommaaccent,
H,
Hcircumflex,
I,
Igrave,
Iacute,
Icircumflex,
Idieresis,
Itilde,
Imacron,
Ibreve,
Iogonek,
Idotaccent,
J,
Jcircumflex,
K,
Kcommaaccent,
L,
Lacute,
Lcommaaccent,
Lcaron,
M,
Mdotaccent,
N,
Ntilde,
Nacute,
Ncommaaccent,
Ncaron,
O,
Ograve,
Oacute,
Ocircumflex,
Otilde,
Odieresis,
Omacron,
Obreve,
Ohungarumlaut,
P,
Pdotaccent,
Q,
R,
Racute,
Rcommaaccent,
Rcaron,
S,
Sacute,
Scircumflex,
Scedilla,
Scaron,
Scommaaccent,
T,
Tcommaaccent,
Tcaron,
Tdotaccent,
U,
Ugrave,
Uacute,
Ucircumflex,
Udieresis,
Utilde,
Umacron,
Ubreve,
Uring,
Uhungarumlaut,
Uogonek,
V,
W,
Wcircumflex,
Wgrave,
Wacute,
Wdieresis,
X,
Y,
Yacute,
Ycircumflex,
Ydieresis,
Ymacron,
Ygrave,
Z,
Zacute,
Zdotaccent,
Zcaron,
AE,
Eth,
Oslash,
Thorn,
Dcroat,
Hbar,
IJ,
Ldot,
Lslash,
Eng,
OE,
Tbar,
Eszett,
a,
agrave,
aacute,
acircumflex,
atilde,
adieresis,
aring,
amacron,
abreve,
aogonek,
b,
bdotaccent,
c,
ccedilla,
cacute,
ccircumflex,
cdotaccent,
ccaron,
d,
dcaron,
ddotaccent,
e,
egrave,
eacute,
ecircumflex,
edieresis,
emacron,
ebreve,
edotaccent,
eogonek,
ecaron,
f,
fdotaccent,
g,
gcircumflex,
gbreve,
gdotaccent,
gcommaaccent,
h,
hcircumflex,
i,
igrave,
iacute,
icircumflex,
idieresis,
itilde,
imacron,
ibreve,
iogonek,
j,
jcircumflex,
k,
kcommaaccent,
l,
lacute,
lcommaaccent,
lcaron,
m,
mdotaccent,
n,
ntilde,
nacute,
ncommaaccent,
ncaron,
o,
ograve,
oacute,

glyphs = (
{
glyphname = A;
layers = (
{
layerId = "C878BE66-A124-485F-B3BE-91B1D41027C7";
paths = (
{
closed = 1;
nodes = (
"23 0 LINE",
"136 0 LINE",
"185 188 LINE",
"437 188 LINE",
"486 0 LINE",
"598 0 LINE",
"383 786 LINE",
"238 786 LINE"
);
},
{
closed = 1;
nodes = (
"413 280 LINE",
"209 280 LINE",
"311 669 LINE"
);
}
);
width = 621;
}
);
leftKerningGroup = A;
rightKerningGroup = A;
unicode = 0041;
},
{
glyphname = Agrave;
layers = (
{
layerId = "C878BE66-A124-485F-B3BE-91B1D41027C7";
paths = (
{
closed = 1;
nodes = (
"23 0 LINE",
"136 0 LINE",
"185 188 LINE",
"437 188 LINE",
"486 0 LINE",
"598 0 LINE",
"383 786 LINE",
"238 786 LINE"
);
},
{
closed = 1;
nodes = (
"413 280 LINE",
"209 280 LINE",
"311 669 LINE"
);
},
{
closed = 1;
nodes = (
"260 840 LINE",
"362 840 LINE",
"304 950 LINE",
"197 950 LINE"
);
}
);
width = 621;
}
);
leftKerningGroup = A;
rightKerningGroup = A;
unicode = 00C0;
},
{
glyphname = Aacute;
layers = (
{
layerId = "C878BE66-A124-485F-B3BE-91B1D41027C7";
paths = (
{
closed = 1;
nodes = (
"23 0 LINE",
"136 0 LINE",
"185 188 LINE",
"437 188 LINE",
"486 0 LINE",
"598 0 LINE",
"383 786 LINE",
"238 786 LINE"
);
},
{
closed = 1;
nodes = (
"413 280 LINE",
"209 280 LINE",
"311 669 LINE"
);
},
{
closed = 1;
nodes = (
"260 840 LINE",
"362 840 LINE",
"425 950 LINE",
"318 950 LINE"
);
}
);
width = 621;
}
);
leftKerningGroup = A;
rightKerningGroup = A;
unicode = 00C1;
},
{
glyphname = Acircumflex;
layers = (
{
layerId = "C878BE66-A124-485F-B3BE-91B1D41027C7";
paths = (
{
closed = 1;
nodes = (
"23 0 LINE",
"136 0 LINE",
"185 188 LINE",
"437 188 LINE",
"486 0 LINE",
"598 0 LINE",
"383 786 LINE",
"238 786 LINE"
);
},
{
closed = 1;
nodes = (
"413 280 LINE",
"209 280 LINE",
"311 669 LINE"
);
},
{
closed = 1;
nodes = (
"311 897 LINE",
"377 840 LINE",
"473 840 LINE",
"360 950 LINE",
"262 950 LINE",
"149 840 LINE",
"245 840 LINE"
);
}
);
width = 621;
}
);
leftKerningGroup = A;
rightKerningGroup = A;
unicode = 00C2;
},
{
glyphname = Atilde;
layers = (
{
layerId = "C878BE66-A124-485F-B3BE-91B1D41027C7";
paths = (
{
closed = 1;
nodes = (
"23 0 LINE",
"136 0 LINE",
"185 188 LINE",
"437 188 LINE",
"486 0 LINE",
"598 0 LINE",
"383 786 LINE",
"238 786 LINE"
);
},
{
closed = 1;
nodes = (
"413 280 LINE",
"209 280 LINE",
"311 669 LINE"
);
},
{
closed = 1;
nodes = (
"412 910 OFFCURVE",
"396 901 OFFCURVE",
"377 901 CURVE SMOOTH",
"338 901 OFFCURVE",
"298 952 OFFCURVE",
"235 952 CURVE SMOOTH",
"186 952 OFFCURVE",
"148 924 OFFCURVE",
"148 850 CURVE",
"210 850 LINE",
"210 880 OFFCURVE",
"226 889 OFFCURVE",
"245 889 CURVE SMOOTH",
"284 889 OFFCURVE",
"324 838 OFFCURVE",
"387 838 CURVE SMOOTH",
"436 838 OFFCURVE",
"474 866 OFFCURVE",
"474 940 CURVE",
"412 940 LINE"
);
}
);
width = 621;
}
);
leftKerningGroup = A;
rightKerningGroup = A;
unicode = 00C3;
},
{
glyphname = Adieresis;
layers = (
{
layerId = "C878BE66-A124-485F-B3BE-91B1D41027C7";
paths = (
{
closed = 1;
nodes = (
"23 0 LINE",
"136 0 LINE",
"185 188 LINE",
"437 188 LINE",
"486 0 LINE",
"598 0 LINE",
"383 786 LINE",
"238 786 LINE"
);
},
{
closed = 1;
nodes = (
"413 280 LINE",
"209 280 LINE",
"311 669 LINE"
);
},
{
closed = 1;
nodes = (
"180 936 LINE",
"180 854 LINE",
"279 854 LINE",
"279 936 LINE"
);
},
{
closed = 1;
nodes = (
"343 936 LINE",
"343 854 LINE",
"442 854 LINE",
"442 936 LINE"
);
}
);
width = 621;
}
);
leftKerningGroup = A;
rightKerningGroup = A;
unicode = 00C4;
},
{
glyphname = Aring;
layers = (
{
layerId = "C878BE66-A124-485F-B3BE-91B1D41027C7";
paths = (
{
closed = 1;
nodes = (
"213 832 OFFCURVE",
"227 804 OFFCURVE",
"250 786 CURVE",
"238 786 LINE",
"23 0 LINE",
"136 0 LINE",
"185 188 LINE",
"437 188 LINE",
"486 0 LINE",
"598 0 LINE",
"383 786 LINE",
"371 786 LINE",
"394 804 OFFCURVE",
"409 832 OFFCURVE",
"409 864 CURVE SMOOTH",
"409 918 OFFCURVE",
"365 962 OFFCURVE",
"311 962 CURVE SMOOTH",
"257 962 OFFCURVE",
"213 918 OFFCURVE",
"213 864 CURVE SMOOTH"
);
},
{
closed = 1;
nodes = (
"413 280 LINE",
"209 280 LINE",
"311 669 LINE"
);
},
{
closed = 1;
nodes = (
"257 893 OFFCURVE",
"281 918 OFFCURVE",
"311 918 CURVE SMOOTH",
"341 918 OFFCURVE",
"365 893 OFFCURVE",
"365 864 CURVE SMOOTH",
"365 834 OFFCURVE",
"341 809 OFFCURVE",
"311 809 CURVE SMOOTH",
"281 809 OFFCURVE",
"257 834 OFFCURVE",
"257 864 CURVE SMOOTH"
);
}
);
width = 621;
}
);
leftKerningGroup = A;
rightKerningGroup = A;
unicode = 00C5;
},
{
glyphname = Amacron;
layers = (
{
layerId = "C878BE66-A124-485F-B3BE-91B1D41027C7";
paths = (
{
closed = 1;
nodes = (
"23 0 LINE",
"136 0 LINE",
"185 188 LINE",
"437 188 LINE",
"486 0 LINE",
"598 0 LINE",
"383 786 LINE",
"238 786 LINE"
);
},
{
closed = 1;
nodes = (
"413 280 LINE",
"209 280 LINE",
"311 669 LINE"
);
},
{
closed = 1;
nodes = (
"437 860 LINE",
"437 930 LINE",
"185 930 LINE",
"185 860 LINE"
);
}
);
width = 621;
}
);
leftKerningGroup = A;
rightKerningGroup = A;
unicode = 0100;
},
{
glyphname = Abreve;
layers = (
{
layerId = "C878BE66-A124-485F-B3BE-91B1D41027C7";
paths = (
{
closed = 1;
nodes = (
"23 0 LINE",
"136 0 LINE",
"185 188 LINE",
"437 188 LINE",
"486 0 LINE",
"598 0 LINE",
"383 786 LINE",
"238 786 LINE"
);
},
{
closed = 1;
nodes = (
"413 280 LINE",
"209 280 LINE",
"311 669 LINE"
);
},
{
closed = 1;
nodes = (
"431 827 OFFCURVE",
"470 881 OFFCURVE",
"470 950 CURVE",
"395 950 LINE",
"395 913 OFFCURVE",
"370 890 OFFCURVE",
"311 890 CURVE SMOOTH",
"252 890 OFFCURVE",
"227 913 OFFCURVE",
"227 950 CURVE",
"152 950 LINE",
"152 881 OFFCURVE",
"191 827 OFFCURVE",
"311 827 CURVE SMOOTH"
);
}
);
width = 621;
}
);
leftKerningGroup = A;
rightKerningGroup = A;
unicode = 0102;
},
{
glyphname = Aogonek;
layers = (
{
layerId = "C878BE66-A124-485F-B3BE-91B1D41027C7";
paths = (
{
closed = 1;
nodes = (
"523 -47 OFFCURVE",
"556 -18 OFFCURVE",
"598 0 CURVE",
"383 786 LINE",
"238 786 LINE",
"23 0 LINE",
"136 0 LINE",
"185 188 LINE",
"437 188 LINE",
"487 -5 LINE",
"460 -32 OFFCURVE",
"442 -67 OFFCURVE",
"442 -111 CURVE SMOOTH",
"442 -181 OFFCURVE",
"490 -213 OFFCURVE",
"561 -213 CURVE SMOOTH",
"596 -213 OFFCURVE",
"633 -204 OFFCURVE",
"654 -191 CURVE",
"629 -123 LINE",
"617 -130 OFFCURVE",
"597 -136 OFFCURVE",
"574 -136 CURVE SMOOTH",
"541 -136 OFFCURVE",
"523 -117 OFFCURVE",
"523 -91 CURVE SMOOTH"
);
},
{
closed = 1;
nodes = (
"413 280 LINE",
"209 280 LINE",
"311 669 LINE"
);
}
);
width = 621;
}
);
leftKerningGroup = A;
rightKerningGroup = A;
unicode = 0104;
},
{
glyphname = B;
layers = (
{
layerId = "C878BE66-A124-485F-B3BE-91B1D41027C7";
paths = (
{
closed = 1;
nodes = (
"67 0 LINE",
"300 0 LINE SMOOTH",
"429 0 OFFCURVE",
"548 50 OFFCURVE",
"548 213 CURVE SMOOTH",
"548 233 LINE SMOOTH",
"548 327 OFFCURVE",
"497 377 OFFCURVE",
"428 402 CURVE",
"487 428 OFFCURVE",
"528 475 OFFCURVE",
"528 557 CURVE SMOOTH",
"528 577 LINE SMOOTH",
"528 734 OFFCURVE",
"413 780 OFFCURVE",
"286 780 CURVE SMOOTH",
"67 780 LINE"
);
},
{
closed = 1;
nodes = (
"377 354 OFFCURVE",
"442 320 OFFCURVE",
"442 229 CURVE SMOOTH",
"442 217 LINE SMOOTH",
"442 125 OFFCURVE",
"377 92 OFFCURVE",
"305 92 CURVE SMOOTH",
"171 92 LINE",
"171 354 LINE",
"305 354 LINE SMOOTH"
);
},
{
closed = 1;
nodes = (
"359 688 OFFCURVE",
"422 660 OFFCURVE",
"422 574 CURVE SMOOTH",
"422 560 LINE SMOOTH",
"422 474 OFFCURVE",
"359 446 OFFCURVE",
"288 446 CURVE SMOOTH",
"171 446 LINE",
"171 688 LINE",
"288 688 LINE SMOOTH"
);
}
);
width = 602;
}
);
rightKerningGroup = B;
unicode = 0042;
},
{
glyphname = Bdotaccent;
layers = (
{
layerId = "C878BE66-A124-485F-B3BE-91B1D41027C7";
paths = (
{
closed = 1;
nodes = (
"67 0 LINE",
"300 0 LINE SMOOTH",
"429 0 OFFCURVE",
"548 50 OFFCURVE",
"548 213 CURVE SMOOTH",
"548 233 LINE SMOOTH",
"548 327 OFFCURVE",
"497 377 OFFCURVE",
"428 402 CURVE",
"487 428 OFFCURVE",
"528 475 OFFCURVE",
"528 557 CURVE SMOOTH",
"528 577 LINE SMOOTH",
"528 734 OFFCURVE",
"413 780 OFFCURVE",
"286 780 CURVE SMOOTH",
"67 780 LINE"
);
},
{
closed = 1;
nodes = (
"377 354 OFFCURVE",
"442 320 OFFCURVE",
"442 229 CURVE SMOOTH",
"442 217 LINE SMOOTH",
"442 125 OFFCURVE",
"377 92 OFFCURVE",
"305 92 CURVE SMOOTH",
"171 92 LINE",
"171 354 LINE",
"305 354 LINE SMOOTH"
);
},
{
closed = 1;
nodes = (
"359 688 OFFCURVE",
"422 660 OFFCURVE",
"422 574 CURVE SMOOTH",
"422 560 LINE SMOOTH",
"422 474 OFFCURVE",
"359 446 OFFCURVE",
"288 446 CURVE SMOOTH",
"171 446 LINE",
"171 688 LINE",
"288 688 LINE SMOOTH"
);
},
{
closed = 1;
nodes = (
"233 936 LINE",
"233 854 LINE",
"331 854 LINE",
"331 936 LINE"
);
}
);
width = 602;
}
);
rightKerningGroup = B;
unicode = 1E02;
},
{
glyphname = C;
layers = (
{
layerId = "C878BE66-A124-485F-B3BE-91B1D41027C7";
paths = (
{
closed = 1;
nodes = (
"157 410 LINE SMOOTH",
"157 608 OFFCURVE",
"204 700 OFFCURVE",
"325 700 CURVE SMOOTH",
"332 700 LINE SMOOTH",
"438 700 OFFCURVE",
"478 633 OFFCURVE",
"478 491 CURVE",
"583 491 LINE",
"583 522 LINE SMOOTH",
"583 706 OFFCURVE",
"498 792 OFFCURVE",
"325 792 CURVE SMOOTH",
"138 792 OFFCURVE",
"50 680 OFFCURVE",
"50 410 CURVE SMOOTH",
"50 370 LINE SMOOTH",
"50 100 OFFCURVE",
"138 -12 OFFCURVE",
"325 -12 CURVE SMOOTH",
"498 -12 OFFCURVE",
"583 74 OFFCURVE",
"583 249 CURVE SMOOTH",
"583 259 LINE",
"478 259 LINE",
"478 146 OFFCURVE",
"436 80 OFFCURVE",
"332 80 CURVE SMOOTH",
"325 80 LINE SMOOTH",
"203 80 OFFCURVE",
"157 172 OFFCURVE",
"157 370 CURVE SMOOTH"
);
}
);
width = 630;
}
);
leftKerningGroup = C;
rightKerningGroup = C;
unicode = 0043;
},
{
glyphname = Ccedilla;
layers = (
{
layerId = "C878BE66-A124-485F-B3BE-91B1D41027C7";
paths = (
{
closed = 1;
nodes = (
"258 -203 OFFCURVE",
"295 -213 OFFCURVE",
"336 -213 CURVE SMOOTH",
"404 -213 OFFCURVE",
"445 -187 OFFCURVE",
"445 -131 CURVE SMOOTH",
"445 -74 OFFCURVE",
"396 -51 OFFCURVE",
"343 -50 CURVE",
"358 -11 LINE",
"509 0 OFFCURVE",
"583 85 OFFCURVE",
"583 249 CURVE SMOOTH",
"583 259 LINE",
"478 259 LINE",
"478 146 OFFCURVE",
"436 80 OFFCURVE",
"332 80 CURVE SMOOTH",
"325 80 LINE SMOOTH",
"203 80 OFFCURVE",
"157 172 OFFCURVE",
"157 370 CURVE SMOOTH",
"157 410 LINE SMOOTH",
"157 608 OFFCURVE",
"204 700 OFFCURVE",
"325 700 CURVE SMOOTH",
"332 700 LINE SMOOTH",
"438 700 OFFCURVE",
"478 633 OFFCURVE",
"478 491 CURVE",
"583 491 LINE",
"583 522 LINE SMOOTH",
"583 706 OFFCURVE",
"498 792 OFFCURVE",
"325 792 CURVE SMOOTH",
"138 792 OFFCURVE",
"50 680 OFFCURVE",
"50 410 CURVE SMOOTH",
"50 370 LINE SMOOTH",
"50 112 OFFCURVE",
"130 -1 OFFCURVE",
"300 -11 CURVE",
"275 -77 LINE",
"292 -102 LINE",
"292 -102 OFFCURVE",
"308 -99 OFFCURVE",
"324 -99 CURVE SMOOTH",
"360 -99 OFFCURVE",
"381 -106 OFFCURVE",
"381 -126 CURVE SMOOTH",
"381 -147 OFFCURVE",
"364 -155 OFFCURVE",
"327 -155 CURVE SMOOTH",
"301 -155 OFFCURVE",
"273 -148 OFFCURVE",
"257 -139 CURVE",
"239 -191 LINE"
);
}
);
width = 630;
}
);
leftKerningGroup = C;
rightKerningGroup = C;
unicode = 00C7;
},
{
glyphname = Cacute;
layers = (
{
layerId = "C878BE66-A124-485F-B3BE-91B1D41027C7";
paths = (
{
closed = 1;
nodes = (
"157 410 LINE SMOOTH",
"157 608 OFFCURVE",
"204 700 OFFCURVE",
"325 700 CURVE SMOOTH",
"332 700 LINE SMOOTH",
"438 700 OFFCURVE",
"478 633 OFFCURVE",
"478 491 CURVE",
"583 491 LINE",
"583 522 LINE SMOOTH",
"583 706 OFFCURVE",
"498 792 OFFCURVE",
"325 792 CURVE SMOOTH",
"138 792 OFFCURVE",
"50 680 OFFCURVE",
"50 410 CURVE SMOOTH",
"50 370 LINE SMOOTH",
"50 100 OFFCURVE",
"138 -12 OFFCURVE",
"325 -12 CURVE SMOOTH",
"498 -12 OFFCURVE",
"583 74 OFFCURVE",
"583 249 CURVE SMOOTH",
"583 259 LINE",
"478 259 LINE",
"478 146 OFFCURVE",
"436 80 OFFCURVE",
"332 80 CURVE SMOOTH",
"325 80 LINE SMOOTH",
"203 80 OFFCURVE",
"157 172 OFFCURVE",
"157 370 CURVE SMOOTH"
);
},
{
closed = 1;
nodes = (
"274 840 LINE",
"376 840 LINE",
"439 950 LINE",
"332 950 LINE"
);
}
);
width = 630;
}
);
leftKerningGroup = C;
rightKerningGroup = C;
unicode = 0106;
},
{
glyphname = Ccircumflex;
layers = (
{
layerId = "C878BE66-A124-485F-B3BE-91B1D41027C7";
paths = (
{
closed = 1;
nodes = (
"157 410 LINE SMOOTH",
"157 608 OFFCURVE",
"204 700 OFFCURVE",
"325 700 CURVE SMOOTH",
"332 700 LINE SMOOTH",
"438 700 OFFCURVE",
"478 633 OFFCURVE",
"478 491 CURVE",
"583 491 LINE",
"583 522 LINE SMOOTH",
"583 706 OFFCURVE",
"498 792 OFFCURVE",
"325 792 CURVE SMOOTH",
"138 792 OFFCURVE",
"50 680 OFFCURVE",
"50 410 CURVE SMOOTH",
"50 370 LINE SMOOTH",
"50 100 OFFCURVE",
"138 -12 OFFCURVE",
"325 -12 CURVE SMOOTH",
"498 -12 OFFCURVE",
"583 74 OFFCURVE",
"583 249 CURVE SMOOTH",
"583 259 LINE",
"478 259 LINE",
"478 146 OFFCURVE",
"436 80 OFFCURVE",
"332 80 CURVE SMOOTH",
"325 80 LINE SMOOTH",
"203 80 OFFCURVE",
"157 172 OFFCURVE",
"157 370 CURVE SMOOTH"
);
},
{
closed = 1;
nodes = (
"325 897 LINE",
"391 840 LINE",
"487 840 LINE",
"374 950 LINE",
"276 950 LINE",
"163 840 LINE",
"259 840 LINE"
);
}
);
width = 630;
}
);
leftKerningGroup = C;
rightKerningGroup = C;
unicode = 0108;
},
{
glyphname = Cdotaccent;
layers = (
{
layerId = "C878BE66-A124-485F-B3BE-91B1D41027C7";
paths = (
{
closed = 1;
nodes = (
"157 410 LINE SMOOTH",
"157 608 OFFCURVE",
"204 700 OFFCURVE",
"325 700 CURVE SMOOTH",
"332 700 LINE SMOOTH",
"438 700 OFFCURVE",
"478 633 OFFCURVE",
"478 491 CURVE",
"583 491 LINE",
"583 522 LINE SMOOTH",
"583 706 OFFCURVE",
"498 792 OFFCURVE",
"325 792 CURVE SMOOTH",
"138 792 OFFCURVE",
"50 680 OFFCURVE",
"50 410 CURVE SMOOTH",
"50 370 LINE SMOOTH",
"50 100 OFFCURVE",
"138 -12 OFFCURVE",
"325 -12 CURVE SMOOTH",
"498 -12 OFFCURVE",
"583 74 OFFCURVE",
"583 249 CURVE SMOOTH",
"583 259 LINE",
"478 259 LINE",
"478 146 OFFCURVE",
"436 80 OFFCURVE",
"332 80 CURVE SMOOTH",
"325 80 LINE SMOOTH",
"203 80 OFFCURVE",
"157 172 OFFCURVE",
"157 370 CURVE SMOOTH"
);
},
{
closed = 1;
nodes = (
"276 936 LINE",
"276 854 LINE",
"374 854 LINE",
"374 936 LINE"
);
}
);
width = 630;
}
);
leftKerningGroup = C;
rightKerningGroup = C;
unicode = 010A;
},
{
glyphname = Ccaron;
layers = (
{
layerId = "C878BE66-A124-485F-B3BE-91B1D41027C7";
paths = (
{
closed = 1;
nodes = (
"157 410 LINE SMOOTH",
"157 608 OFFCURVE",
"204 700 OFFCURVE",
"325 700 CURVE SMOOTH",
"332 700 LINE SMOOTH",
"438 700 OFFCURVE",
"478 633 OFFCURVE",
"478 491 CURVE",
"583 491 LINE",
"583 522 LINE SMOOTH",
"583 706 OFFCURVE",
"498 792 OFFCURVE",
"325 792 CURVE SMOOTH",
"138 792 OFFCURVE",
"50 680 OFFCURVE",
"50 410 CURVE SMOOTH",
"50 370 LINE SMOOTH",
"50 100 OFFCURVE",
"138 -12 OFFCURVE",
"325 -12 CURVE SMOOTH",
"498 -12 OFFCURVE",
"583 74 OFFCURVE",
"583 249 CURVE SMOOTH",
"583 259 LINE",
"478 259 LINE",
"478 146 OFFCURVE",
"436 80 OFFCURVE",
"332 80 CURVE SMOOTH",
"325 80 LINE SMOOTH",
"203 80 OFFCURVE",
"157 172 OFFCURVE",
"157 370 CURVE SMOOTH"
);
},
{
closed = 1;
nodes = (
"276 840 LINE",
"374 840 LINE",
"487 950 LINE",
"391 950 LINE",
"325 892 LINE",
"259 950 LINE",
"163 950 LINE"
);
}
);
width = 630;
}
);
leftKerningGroup = C;
rightKerningGroup = C;
unicode = 010C;
},
{
glyphname = D;
layers = (
{
layerId = "C878BE66-A124-485F-B3BE-91B1D41027C7";
paths = (
{
closed = 1;
nodes = (
"597 410 LINE SMOOTH",
"597 680 OFFCURVE",
"491 780 OFFCURVE",
"286 780 CURVE SMOOTH",
"67 780 LINE",
"67 0 LINE",
"286 0 LINE SMOOTH",
"491 0 OFFCURVE",
"597 100 OFFCURVE",
"597 370 CURVE SMOOTH"
);
},
{
closed = 1;
nodes = (
"171 688 LINE",
"279 688 LINE SMOOTH",
"423 688 OFFCURVE",
"490 608 OFFCURVE",
"490 410 CURVE SMOOTH",
"490 370 LINE SMOOTH",
"490 172 OFFCURVE",
"423 92 OFFCURVE",
"279 92 CURVE SMOOTH",
"171 92 LINE"
);
}
);
width = 647;
}
);
rightKerningGroup = D;
unicode = 0044;
},
{
glyphname = Dcaron;
layers = (
{
layerId = "C878BE66-A124-485F-B3BE-91B1D41027C7";
paths = (
{
closed = 1;
nodes = (
"597 410 LINE SMOOTH",
"597 680 OFFCURVE",
"491 780 OFFCURVE",
"286 780 CURVE SMOOTH",
"67 780 LINE",
"67 0 LINE",
"286 0 LINE SMOOTH",
"491 0 OFFCURVE",
"597 100 OFFCURVE",
"597 370 CURVE SMOOTH"
);
},
{
closed = 1;
nodes = (
"171 688 LINE",
"279 688 LINE SMOOTH",
"423 688 OFFCURVE",
"490 608 OFFCURVE",
"490 410 CURVE SMOOTH",
"490 370 LINE SMOOTH",
"490 172 OFFCURVE",
"423 92 OFFCURVE",
"279 92 CURVE SMOOTH",
"171 92 LINE"
);
},
{
closed = 1;
nodes = (
"251 840 LINE",
"349 840 LINE",
"462 950 LINE",
"366 950 LINE",
"300 892 LINE",
"234 950 LINE",
"138 950 LINE"
);
}
);
width = 647;
}
);
rightKerningGroup = D;
unicode = 010E;
},
{
glyphname = Ddotaccent;
layers = (
{
layerId = "C878BE66-A124-485F-B3BE-91B1D41027C7";
paths = (
{
closed = 1;
nodes = (
"597 410 LINE SMOOTH",
"597 680 OFFCURVE",
"491 780 OFFCURVE",
"286 780 CURVE SMOOTH",
"67 780 LINE",
"67 0 LINE",
"286 0 LINE SMOOTH",
"491 0 OFFCURVE",
"597 100 OFFCURVE",
"597 370 CURVE SMOOTH"
);
},
{
closed = 1;
nodes = (
"171 688 LINE",
"279 688 LINE SMOOTH",
"423 688 OFFCURVE",
"490 608 OFFCURVE",
"490 410 CURVE SMOOTH",
"490 370 LINE SMOOTH",
"490 172 OFFCURVE",
"423 92 OFFCURVE",
"279 92 CURVE SMOOTH",
"171 92 LINE"
);
},
{
closed = 1;
nodes = (
"251 936 LINE",
"251 854 LINE",
"349 854 LINE",
"349 936 LINE"
);
}
);
width = 647;
}
);
rightKerningGroup = D;
unicode = 1E0A;
},
{
glyphname = E;
layers = (
{
layerId = "C878BE66-A124-485F-B3BE-91B1D41027C7";
paths = (
{
closed = 1;
nodes = (
"67 0 LINE",
"517 0 LINE",
"517 92 LINE",
"171 92 LINE",
"171 352 LINE",
"467 352 LINE",
"467 444 LINE",
"171 444 LINE",
"171 688 LINE",
"517 688 LINE",
"517 780 LINE",
"67 780 LINE"
);
}
);
userData = {
com.schriftgestaltung.Glyphs.lastChange = "2018-06-13 12:06:56 +0000";
};
width = 557;
}
);
unicode = 0045;
},
{
glyphname = Egrave;
layers = (
{
layerId = "C878BE66-A124-485F-B3BE-91B1D41027C7";
paths = (
{
closed = 1;
nodes = (
"67 0 LINE",
"517 0 LINE",
"517 92 LINE",
"171 92 LINE",
"171 352 LINE",
"467 352 LINE",
"467 444 LINE",
"171 444 LINE",
"171 688 LINE",
"517 688 LINE",
"517 780 LINE",
"67 780 LINE"
);
},
{
closed = 1;
nodes = (
"247 840 LINE",
"349 840 LINE",
"291 950 LINE",
"184 950 LINE"
);
}
);
width = 557;
}
);
unicode = 00C8;
},
{
glyphname = Eacute;
layers = (
{
layerId = "C878BE66-A124-485F-B3BE-91B1D41027C7";
paths = (
{
closed = 1;
nodes = (
"67 0 LINE",
"517 0 LINE",
"517 92 LINE",
"171 92 LINE",
"171 352 LINE",
"467 352 LINE",
"467 444 LINE",
"171 444 LINE",
"171 688 LINE",
"517 688 LINE",
"517 780 LINE",
"67 780 LINE"
);
},
{
closed = 1;
nodes = (
"247 840 LINE",
"349 840 LINE",
"412 950 LINE",
"305 950 LINE"
);
}
);
width = 557;
}
);
unicode = 00C9;
},
{
glyphname = Ecircumflex;
layers = (
{
layerId = "C878BE66-A124-485F-B3BE-91B1D41027C7";
paths = (
{
closed = 1;
nodes = (
"67 0 LINE",
"517 0 LINE",
"517 92 LINE",
"171 92 LINE",
"171 352 LINE",
"467 352 LINE",
"467 444 LINE",
"171 444 LINE",
"171 688 LINE",
"517 688 LINE",
"517 780 LINE",
"67 780 LINE"
);
},
{
closed = 1;
nodes = (
"298 897 LINE",
"364 840 LINE",
"460 840 LINE",
"347 950 LINE",
"249 950 LINE",
"136 840 LINE",
"232 840 LINE"
);
}
);
width = 557;
}
);
unicode = 00CA;
},
{
glyphname = Edieresis;
layers = (
{
layerId = "C878BE66-A124-485F-B3BE-91B1D41027C7";
paths = (
{
closed = 1;
nodes = (
"67 0 LINE",
"517 0 LINE",
"517 92 LINE",
"171 92 LINE",
"171 352 LINE",
"467 352 LINE",
"467 444 LINE",
"171 444 LINE",
"171 688 LINE",
"517 688 LINE",
"517 780 LINE",
"67 780 LINE"
);
},
{
closed = 1;
nodes = (
"167 936 LINE",
"167 854 LINE",
"266 854 LINE",
"266 936 LINE"
);
},
{
closed = 1;
nodes = (
"330 936 LINE",
"330 854 LINE",
"429 854 LINE",
"429 936 LINE"
);
}
);
width = 557;
}
);
unicode = 00CB;
},
{
glyphname = Emacron;
layers = (
{
layerId = "C878BE66-A124-485F-B3BE-91B1D41027C7";
paths = (
{
closed = 1;
nodes = (
"67 0 LINE",
"517 0 LINE",
"517 92 LINE",
"171 92 LINE",
"171 352 LINE",
"467 352 LINE",
"467 444 LINE",
"171 444 LINE",
"171 688 LINE",
"517 688 LINE",
"517 780 LINE",
"67 780 LINE"
);
},
{
closed = 1;
nodes = (
"424 860 LINE",
"424 930 LINE",
"172 930 LINE",
"172 860 LINE"
);
}
);
width = 557;
}
);
unicode = 0112;
},
{
glyphname = Ebreve;
layers = (
{
layerId = "C878BE66-A124-485F-B3BE-91B1D41027C7";
paths = (
{
closed = 1;
nodes = (
"418 827 OFFCURVE",
"457 881 OFFCURVE",
"457 950 CURVE",
"382 950 LINE",
"382 913 OFFCURVE",
"357 890 OFFCURVE",
"298 890 CURVE SMOOTH",
"239 890 OFFCURVE",
"214 913 OFFCURVE",
"214 950 CURVE",
"139 950 LINE",
"139 881 OFFCURVE",
"178 827 OFFCURVE",
"298 827 CURVE SMOOTH"
);
},
{
closed = 1;
nodes = (
"67 0 LINE",
"517 0 LINE",
"517 92 LINE",
"171 92 LINE",
"171 352 LINE",
"467 352 LINE",
"467 444 LINE",
"171 444 LINE",
"171 688 LINE",
"517 688 LINE",
"517 780 LINE",
"67 780 LINE"
);
}
);
width = 557;
}
);
unicode = 0114;
},
{
glyphname = Edotaccent;
layers = (
{
layerId = "C878BE66-A124-485F-B3BE-91B1D41027C7";
paths = (
{
closed = 1;
nodes = (
"67 0 LINE",
"517 0 LINE",
"517 92 LINE",
"171 92 LINE",
"171 352 LINE",
"467 352 LINE",
"467 444 LINE",
"171 444 LINE",
"171 688 LINE",
"517 688 LINE",
"517 780 LINE",
"67 780 LINE"
);
},
{
closed = 1;
nodes = (
"249 936 LINE",
"249 854 LINE",
"347 854 LINE",
"347 936 LINE"
);
}
);
width = 557;
}
);
unicode = 0116;
},
{
glyphname = Eogonek;
layers = (
{
layerId = "C878BE66-A124-485F-B3BE-91B1D41027C7";
paths = (
{
closed = 1;
nodes = (
"67 0 LINE",
"411 0 LINE",
"381 -28 OFFCURVE",
"361 -65 OFFCURVE",
"361 -111 CURVE SMOOTH",
"361 -181 OFFCURVE",
"409 -213 OFFCURVE",
"480 -213 CURVE SMOOTH",
"515 -213 OFFCURVE",
"552 -204 OFFCURVE",
"573 -191 CURVE",
"548 -123 LINE",
"536 -130 OFFCURVE",
"516 -136 OFFCURVE",
"493 -136 CURVE SMOOTH",
"460 -136 OFFCURVE",
"442 -117 OFFCURVE",
"442 -91 CURVE SMOOTH",
"442 -47 OFFCURVE",
"475 -18 OFFCURVE",
"517 0 CURVE",
"517 92 LINE",
"171 92 LINE",
"171 352 LINE",
"467 352 LINE",
"467 444 LINE",
"171 444 LINE",
"171 688 LINE",
"517 688 LINE",
"517 780 LINE",
"67 780 LINE"
);
}
);
width = 557;
}
);
unicode = 0118;
},
{
glyphname = Ecaron;
layers = (
{
layerId = "C878BE66-A124-485F-B3BE-91B1D41027C7";
paths = (
{
closed = 1;
nodes = (
"67 0 LINE",
"517 0 LINE",
"517 92 LINE",
"171 92 LINE",
"171 352 LINE",
"467 352 LINE",
"467 444 LINE",
"171 444 LINE",
"171 688 LINE",
"517 688 LINE",
"517 780 LINE",
"67 780 LINE"
);
},
{
closed = 1;
nodes = (
"249 840 LINE",
"347 840 LINE",
"460 950 LINE",
"364 950 LINE",
"298 892 LINE",
"232 950 LINE",
"136 950 LINE"
);
}
);
width = 557;
}
);
unicode = 011A;
},
{
glyphname = F;
layers = (
{
layerId = "C878BE66-A124-485F-B3BE-91B1D41027C7";
paths = (
{
closed = 1;
nodes = (
"67 0 LINE",
"171 0 LINE",
"171 352 LINE",
"456 352 LINE",
"456 444 LINE",
"171 444 LINE",
"171 688 LINE",
"506 688 LINE",
"506 780 LINE",
"67 780 LINE"
);
}
);
width = 526;
}
);
rightKerningGroup = F;
unicode = 0046;
},
{
glyphname = Fdotaccent;
layers = (
{
layerId = "C878BE66-A124-485F-B3BE-91B1D41027C7";
paths = (
{
closed = 1;
nodes = (
"67 0 LINE",
"171 0 LINE",
"171 352 LINE",
"456 352 LINE",
"456 444 LINE",
"171 444 LINE",
"171 688 LINE",
"506 688 LINE",
"506 780 LINE",
"67 780 LINE"
);
},
{
closed = 1;
nodes = (
"249 936 LINE",
"249 854 LINE",
"347 854 LINE",
"347 936 LINE"
);
}
);
width = 526;
}
);
rightKerningGroup = F;
unicode = 1E1E;
},
{
glyphname = G;
layers = (
{
layerId = "C878BE66-A124-485F-B3BE-91B1D41027C7";
paths = (
{
closed = 1;
nodes = (
"471 -12 OFFCURVE",
"545 33 OFFCURVE",
"593 79 CURVE",
"593 398 LINE",
"366 398 LINE",
"366 306 LINE",
"489 306 LINE",
"489 129 LINE",
"462 104 OFFCURVE",
"414 80 OFFCURVE",
"348 80 CURVE SMOOTH",
"340 80 LINE SMOOTH",
"207 80 OFFCURVE",
"156 172 OFFCURVE",
"156 370 CURVE SMOOTH",
"156 410 LINE SMOOTH",
"156 608 OFFCURVE",
"209 700 OFFCURVE",
"332 700 CURVE SMOOTH",
"340 700 LINE SMOOTH",
"448 700 OFFCURVE",
"488 633 OFFCURVE",
"488 491 CURVE",
"593 491 LINE",
"593 522 LINE SMOOTH",
"593 706 OFFCURVE",
"506 792 OFFCURVE",
"333 792 CURVE SMOOTH",
"146 792 OFFCURVE",
"50 680 OFFCURVE",
"50 410 CURVE SMOOTH",
"50 370 LINE SMOOTH",
"50 100 OFFCURVE",
"146 -12 OFFCURVE",
"343 -12 CURVE SMOOTH"
);
}
);
width = 655;
}
);
leftKerningGroup = G;
rightKerningGroup = G;
unicode = 0047;
},
{
glyphname = Gcircumflex;
layers = (
{
layerId = "C878BE66-A124-485F-B3BE-91B1D41027C7";
paths = (
{
closed = 1;
nodes = (
"471 -12 OFFCURVE",
"545 33 OFFCURVE",
"593 79 CURVE",
"593 398 LINE",
"366 398 LINE",
"366 306 LINE",
"489 306 LINE",
"489 129 LINE",
"462 104 OFFCURVE",
"414 80 OFFCURVE",
"348 80 CURVE SMOOTH",
"340 80 LINE SMOOTH",
"207 80 OFFCURVE",
"156 172 OFFCURVE",
"156 370 CURVE SMOOTH",
"156 410 LINE SMOOTH",
"156 608 OFFCURVE",
"209 700 OFFCURVE",
"332 700 CURVE SMOOTH",
"340 700 LINE SMOOTH",
"448 700 OFFCURVE",
"488 633 OFFCURVE",
"488 491 CURVE",
"593 491 LINE",
"593 522 LINE SMOOTH",
"593 706 OFFCURVE",
"506 792 OFFCURVE",
"333 792 CURVE SMOOTH",
"146 792 OFFCURVE",
"50 680 OFFCURVE",
"50 410 CURVE SMOOTH",
"50 370 LINE SMOOTH",
"50 100 OFFCURVE",
"146 -12 OFFCURVE",
"343 -12 CURVE SMOOTH"
);
},
{
closed = 1;
nodes = (
"333 897 LINE",
"399 840 LINE",
"495 840 LINE",
"382 950 LINE",
"284 950 LINE",
"171 840 LINE",
"267 840 LINE"
);
}
);
width = 655;
}
);
leftKerningGroup = G;
rightKerningGroup = G;
unicode = 011C;
},
{
glyphname = Gbreve;
layers = (
{
layerId = "C878BE66-A124-485F-B3BE-91B1D41027C7";
paths = (
{
closed = 1;
nodes = (
"471 -12 OFFCURVE",
"545 33 OFFCURVE",
"593 79 CURVE",
"593 398 LINE",
"366 398 LINE",
"366 306 LINE",
"489 306 LINE",
"489 129 LINE",
"462 104 OFFCURVE",
"414 80 OFFCURVE",
"348 80 CURVE SMOOTH",
"340 80 LINE SMOOTH",
"207 80 OFFCURVE",
"156 172 OFFCURVE",
"156 370 CURVE SMOOTH",
"156 410 LINE SMOOTH",
"156 608 OFFCURVE",
"209 700 OFFCURVE",
"332 700 CURVE SMOOTH",
"340 700 LINE SMOOTH",
"448 700 OFFCURVE",
"488 633 OFFCURVE",
"488 491 CURVE",
"593 491 LINE",
"593 522 LINE SMOOTH",
"593 706 OFFCURVE",
"506 792 OFFCURVE",
"333 792 CURVE SMOOTH",
"146 792 OFFCURVE",
"50 680 OFFCURVE",
"50 410 CURVE SMOOTH",
"50 370 LINE SMOOTH",
"50 100 OFFCURVE",
"146 -12 OFFCURVE",
"343 -12 CURVE SMOOTH"
);
},
{
closed = 1;
nodes = (
"453 827 OFFCURVE",
"492 881 OFFCURVE",
"492 950 CURVE",
"417 950 LINE",
"417 913 OFFCURVE",
"392 890 OFFCURVE",
"333 890 CURVE SMOOTH",
"274 890 OFFCURVE",
"249 913 OFFCURVE",
"249 950 CURVE",
"174 950 LINE",
"174 881 OFFCURVE",
"213 827 OFFCURVE",
"333 827 CURVE SMOOTH"
);
}
);
width = 655;
}
);
leftKerningGroup = G;
rightKerningGroup = G;
unicode = 011E;
},
{
glyphname = Gdotaccent;
layers = (
{
layerId = "C878BE66-A124-485F-B3BE-91B1D41027C7";
paths = (
{
closed = 1;
nodes = (
"471 -12 OFFCURVE",
"545 33 OFFCURVE",
"593 79 CURVE",
"593 398 LINE",
"366 398 LINE",
"366 306 LINE",
"489 306 LINE",
"489 129 LINE",
"462 104 OFFCURVE",
"414 80 OFFCURVE",
"348 80 CURVE SMOOTH",
"340 80 LINE SMOOTH",
"207 80 OFFCURVE",
"156 172 OFFCURVE",
"156 370 CURVE SMOOTH",
"156 410 LINE SMOOTH",
"156 608 OFFCURVE",
"209 700 OFFCURVE",
"332 700 CURVE SMOOTH",
"340 700 LINE SMOOTH",
"448 700 OFFCURVE",
"488 633 OFFCURVE",
"488 491 CURVE",
"593 491 LINE",
"593 522 LINE SMOOTH",
"593 706 OFFCURVE",
"506 792 OFFCURVE",
"333 792 CURVE SMOOTH",
"146 792 OFFCURVE",
"50 680 OFFCURVE",
"50 410 CURVE SMOOTH",
"50 370 LINE SMOOTH",
"50 100 OFFCURVE",
"146 -12 OFFCURVE",
"343 -12 CURVE SMOOTH"
);
},
{
closed = 1;
nodes = (
"284 936 LINE",
"284 854 LINE",
"382 854 LINE",
"382 936 LINE"
);
}
);
width = 655;
}
);
leftKerningGroup = G;
rightKerningGroup = G;
unicode = 0120;
},
{
glyphname = Gcommaaccent;
layers = (
{
layerId = "C878BE66-A124-485F-B3BE-91B1D41027C7";
paths = (
{
closed = 1;
nodes = (
"471 -12 OFFCURVE",
"545 33 OFFCURVE",
"593 79 CURVE",
"593 398 LINE",
"366 398 LINE",
"366 306 LINE",
"489 306 LINE",
"489 129 LINE",
"462 104 OFFCURVE",
"414 80 OFFCURVE",
"348 80 CURVE SMOOTH",
"340 80 LINE SMOOTH",
"207 80 OFFCURVE",
"156 172 OFFCURVE",
"156 370 CURVE SMOOTH",
"156 410 LINE SMOOTH",
"156 608 OFFCURVE",
"209 700 OFFCURVE",
"332 700 CURVE SMOOTH",
"340 700 LINE SMOOTH",
"448 700 OFFCURVE",
"488 633 OFFCURVE",
"488 491 CURVE",
"593 491 LINE",
"593 522 LINE SMOOTH",
"593 706 OFFCURVE",
"506 792 OFFCURVE",
"333 792 CURVE SMOOTH",
"146 792 OFFCURVE",
"50 680 OFFCURVE",
"50 410 CURVE SMOOTH",
"50 370 LINE SMOOTH",
"50 100 OFFCURVE",
"146 -12 OFFCURVE",
"343 -12 CURVE SMOOTH"
);
},
{
closed = 1;
nodes = (
"292 -51 LINE",
"292 -129 LINE",
"349 -129 LINE",
"340 -164 OFFCURVE",
"313 -176 OFFCURVE",
"274 -176 CURVE",
"274 -219 LINE",
"353 -219 OFFCURVE",
"394 -181 OFFCURVE",
"394 -105 CURVE SMOOTH",
"394 -51 LINE"
);
}
);
width = 655;
}
);
leftKerningGroup = G;
rightKerningGroup = G;
unicode = 0122;
},
{
glyphname = H;
layers = (
{
layerId = "C878BE66-A124-485F-B3BE-91B1D41027C7";
paths = (
{
closed = 1;
nodes = (
"476 444 LINE",
"171 444 LINE",
"171 780 LINE",
"67 780 LINE",
"67 0 LINE",
"171 0 LINE",
"171 352 LINE",
"476 352 LINE",
"476 0 LINE",
"580 0 LINE",
"580 780 LINE",
"476 780 LINE"
);
}
);
width = 647;
}
);
unicode = 0048;
},
{
glyphname = Hcircumflex;
layers = (
{
layerId = "C878BE66-A124-485F-B3BE-91B1D41027C7";
paths = (
{
closed = 1;
nodes = (
"476 444 LINE",
"171 444 LINE",
"171 780 LINE",
"67 780 LINE",
"67 0 LINE",
"171 0 LINE",
"171 352 LINE",
"476 352 LINE",
"476 0 LINE",
"580 0 LINE",
"580 780 LINE",
"476 780 LINE"
);
},
{
closed = 1;
nodes = (
"324 897 LINE",
"390 840 LINE",
"486 840 LINE",
"373 950 LINE",
"275 950 LINE",
"162 840 LINE",
"258 840 LINE"
);
}
);
width = 647;
}
);
unicode = 0124;
},
{
glyphname = I;
layers = (
{
layerId = "C878BE66-A124-485F-B3BE-91B1D41027C7";
paths = (
{
closed = 1;
nodes = (
"72 780 LINE",
"72 0 LINE",
"176 0 LINE",
"176 780 LINE"
);
}
);
width = 248;
}
);
unicode = 0049;
},
{
glyphname = Igrave;
layers = (
{
layerId = "C878BE66-A124-485F-B3BE-91B1D41027C7";
paths = (
{
closed = 1;
nodes = (
"72 780 LINE",
"72 0 LINE",
"176 0 LINE",
"176 780 LINE"
);
},
{
closed = 1;
nodes = (
"73 840 LINE",
"175 840 LINE",
"117 950 LINE",
"10 950 LINE"
);
}
);
width = 248;
}
);
unicode = 00CC;
},
{
glyphname = Iacute;
layers = (
{
layerId = "C878BE66-A124-485F-B3BE-91B1D41027C7";
paths = (
{
closed = 1;
nodes = (
"72 780 LINE",
"72 0 LINE",
"176 0 LINE",
"176 780 LINE"
);
},
{
closed = 1;
nodes = (
"73 840 LINE",
"175 840 LINE",
"238 950 LINE",
"131 950 LINE"
);
}
);
width = 248;
}
);
unicode = 00CD;
},
{
glyphname = Icircumflex;
layers = (
{
layerId = "C878BE66-A124-485F-B3BE-91B1D41027C7";
paths = (
{
closed = 1;
nodes = (
"72 780 LINE",
"72 0 LINE",
"176 0 LINE",
"176 780 LINE"
);
},
{
closed = 1;
nodes = (
"124 897 LINE",
"190 840 LINE",
"286 840 LINE",
"173 950 LINE",
"75 950 LINE",
"-38 840 LINE",
"58 840 LINE"
);
}
);
width = 248;
}
);
unicode = 00CE;
},
{
glyphname = Idieresis;
layers = (
{
layerId = "C878BE66-A124-485F-B3BE-91B1D41027C7";
paths = (
{
closed = 1;
nodes = (
"72 780 LINE",
"72 0 LINE",
"176 0 LINE",
"176 780 LINE"
);
},
{
closed = 1;
nodes = (
"156 936 LINE",
"156 854 LINE",
"255 854 LINE",
"255 936 LINE"
);
},
{
closed = 1;
nodes = (
"-7 936 LINE",
"-7 854 LINE",
"92 854 LINE",
"92 936 LINE"
);
}
);
width = 248;
}
);
unicode = 00CF;
},
{
glyphname = Itilde;
layers = (
{
layerId = "C878BE66-A124-485F-B3BE-91B1D41027C7";
paths = (
{
closed = 1;
nodes = (
"72 780 LINE",
"72 0 LINE",
"176 0 LINE",
"176 780 LINE"
);
},
{
closed = 1;
nodes = (
"225 910 OFFCURVE",
"209 901 OFFCURVE",
"190 901 CURVE SMOOTH",
"151 901 OFFCURVE",
"111 952 OFFCURVE",
"48 952 CURVE SMOOTH",
"-1 952 OFFCURVE",
"-39 924 OFFCURVE",
"-39 850 CURVE",
"23 850 LINE",
"23 880 OFFCURVE",
"39 889 OFFCURVE",
"58 889 CURVE SMOOTH",
"97 889 OFFCURVE",
"137 838 OFFCURVE",
"200 838 CURVE SMOOTH",
"249 838 OFFCURVE",
"287 866 OFFCURVE",
"287 940 CURVE",
"225 940 LINE"
);
}
);
width = 248;
}
);
unicode = 0128;
},
{
glyphname = Imacron;
layers = (
{
layerId = "C878BE66-A124-485F-B3BE-91B1D41027C7";
paths = (
{
closed = 1;
nodes = (
"72 780 LINE",
"72 0 LINE",
"176 0 LINE",
"176 780 LINE"
);
},
{
closed = 1;
nodes = (
"250 860 LINE",
"250 930 LINE",
"-2 930 LINE",
"-2 860 LINE"
);
}
);
width = 248;
}
);
unicode = 012A;
},
{
glyphname = Ibreve;
layers = (
{
layerId = "C878BE66-A124-485F-B3BE-91B1D41027C7";
paths = (
{
closed = 1;
nodes = (
"72 780 LINE",
"72 0 LINE",
"176 0 LINE",
"176 780 LINE"
);
},
{
closed = 1;
nodes = (
"244 827 OFFCURVE",
"283 881 OFFCURVE",
"283 950 CURVE",
"208 950 LINE",
"208 913 OFFCURVE",
"183 890 OFFCURVE",
"124 890 CURVE SMOOTH",
"65 890 OFFCURVE",
"40 913 OFFCURVE",
"40 950 CURVE",
"-35 950 LINE",
"-35 881 OFFCURVE",
"4 827 OFFCURVE",
"124 827 CURVE SMOOTH"
);
}
);
width = 248;
}
);
unicode = 012C;
},
{
glyphname = Iogonek;
layers = (
{
layerId = "C878BE66-A124-485F-B3BE-91B1D41027C7";
paths = (
{
closed = 1;
nodes = (
"101 -47 OFFCURVE",
"134 -18 OFFCURVE",
"176 0 CURVE",
"176 780 LINE",
"72 780 LINE",
"72 1 LINE",
"41 -26 OFFCURVE",
"20 -64 OFFCURVE",
"20 -111 CURVE SMOOTH",
"20 -181 OFFCURVE",
"68 -213 OFFCURVE",
"139 -213 CURVE SMOOTH",
"174 -213 OFFCURVE",
"211 -204 OFFCURVE",
"232 -191 CURVE",
"207 -123 LINE",
"195 -130 OFFCURVE",
"175 -136 OFFCURVE",
"152 -136 CURVE SMOOTH",
"119 -136 OFFCURVE",
"101 -117 OFFCURVE",
"101 -91 CURVE SMOOTH"
);
}
);
width = 248;
}
);
unicode = 012E;
},
{
glyphname = Idotaccent;
layers = (
{
layerId = "C878BE66-A124-485F-B3BE-91B1D41027C7";
paths = (
{
closed = 1;
nodes = (
"72 780 LINE",
"72 0 LINE",
"176 0 LINE",
"176 780 LINE"
);
},
{
closed = 1;
nodes = (
"75 936 LINE",
"75 854 LINE",
"173 854 LINE",
"173 936 LINE"
);
}
);
width = 248;
}
);
unicode = 0130;
},
{
glyphname = J;
layers = (
{
layerId = "C878BE66-A124-485F-B3BE-91B1D41027C7";
paths = (
{
closed = 1;
nodes = (
"344 254 LINE SMOOTH",
"344 136 OFFCURVE",
"315 80 OFFCURVE",
"234 80 CURVE SMOOTH",
"154 80 OFFCURVE",
"125 136 OFFCURVE",
"125 259 CURVE",
"27 259 LINE",
"27 240 LINE SMOOTH",
"27 80 OFFCURVE",
"80 -12 OFFCURVE",
"237 -12 CURVE SMOOTH",
"389 -12 OFFCURVE",
"448 82 OFFCURVE",
"448 239 CURVE SMOOTH",
"448 780 LINE",
"344 780 LINE"
);
}
);
width = 510;
}
);
leftKerningGroup = J;
rightKerningGroup = J;
unicode = 004A;
},
{
glyphname = Jcircumflex;
layers = (
{
layerId = "C878BE66-A124-485F-B3BE-91B1D41027C7";
paths = (
{
closed = 1;
nodes = (
"344 254 LINE SMOOTH",
"344 136 OFFCURVE",
"315 80 OFFCURVE",
"234 80 CURVE SMOOTH",
"154 80 OFFCURVE",
"125 136 OFFCURVE",
"125 259 CURVE",
"27 259 LINE",
"27 240 LINE SMOOTH",
"27 80 OFFCURVE",
"80 -12 OFFCURVE",
"237 -12 CURVE SMOOTH",
"389 -12 OFFCURVE",
"448 82 OFFCURVE",
"448 239 CURVE SMOOTH",
"448 780 LINE",
"344 780 LINE"
);
},
{
closed = 1;
nodes = (
"396 897 LINE",
"462 840 LINE",
"558 840 LINE",
"445 950 LINE",
"347 950 LINE",
"234 840 LINE",
"330 840 LINE"
);
}
);
width = 510;
}
);
leftKerningGroup = J;
rightKerningGroup = J;
unicode = 0134;
},
{
glyphname = K;
layers = (
{
layerId = "C878BE66-A124-485F-B3BE-91B1D41027C7";
paths = (
{
closed = 1;
nodes = (
"67 780 LINE",
"67 0 LINE",
"171 0 LINE",
"171 234 LINE",
"263 365 LINE",
"439 0 LINE",
"555 0 LINE",
"328 457 LINE",
"555 780 LINE",
"429 780 LINE",
"171 395 LINE",
"171 780 LINE"
);
}
);
width = 585;
}
);
rightKerningGroup = K;
unicode = 004B;
},
{
glyphname = Kcommaaccent;
layers = (
{
layerId = "C878BE66-A124-485F-B3BE-91B1D41027C7";
paths = (
{
closed = 1;
nodes = (
"67 780 LINE",
"67 0 LINE",
"171 0 LINE",
"171 234 LINE",
"263 365 LINE",
"439 0 LINE",
"555 0 LINE",
"328 457 LINE",
"555 780 LINE",
"429 780 LINE",
"171 395 LINE",
"171 780 LINE"
);
},
{
closed = 1;
nodes = (
"240 -51 LINE",
"240 -129 LINE",
"297 -129 LINE",
"288 -164 OFFCURVE",
"261 -176 OFFCURVE",
"222 -176 CURVE",
"222 -219 LINE",
"301 -219 OFFCURVE",
"342 -181 OFFCURVE",
"342 -105 CURVE SMOOTH",
"342 -51 LINE"
);
}
);
width = 585;
}
);
rightKerningGroup = K;
unicode = 0136;
},
{
glyphname = L;
layers = (
{
layerId = "C878BE66-A124-485F-B3BE-91B1D41027C7";
paths = (
{
closed = 1;
nodes = (
"486 92 LINE",
"171 92 LINE",
"171 780 LINE",
"67 780 LINE",
"67 0 LINE",
"486 0 LINE"
);
}
);
width = 501;
}
);
rightKerningGroup = L;
unicode = 004C;
},
{
glyphname = Lacute;
layers = (
{
layerId = "C878BE66-A124-485F-B3BE-91B1D41027C7";
paths = (
{
closed = 1;
nodes = (
"486 92 LINE",
"171 92 LINE",
"171 780 LINE",
"67 780 LINE",
"67 0 LINE",
"486 0 LINE"
);
},
{
closed = 1;
nodes = (
"68 840 LINE",
"170 840 LINE",
"233 950 LINE",
"126 950 LINE"
);
}
);
width = 501;
}
);
rightKerningGroup = L;
unicode = 0139;
},
{
glyphname = Lcommaaccent;
layers = (
{
layerId = "C878BE66-A124-485F-B3BE-91B1D41027C7";
paths = (
{
closed = 1;
nodes = (
"486 92 LINE",
"171 92 LINE",
"171 780 LINE",
"67 780 LINE",
"67 0 LINE",
"486 0 LINE"
);
},
{
closed = 1;
nodes = (
"227 -51 LINE",
"227 -129 LINE",
"284 -129 LINE",
"275 -164 OFFCURVE",
"248 -176 OFFCURVE",
"209 -176 CURVE",
"209 -219 LINE",
"288 -219 OFFCURVE",
"329 -181 OFFCURVE",
"329 -105 CURVE SMOOTH",
"329 -51 LINE"
);
}
);
width = 501;
}
);
rightKerningGroup = L;
unicode = 013B;
},
{
glyphname = Lcaron;
layers = (
{
layerId = "C878BE66-A124-485F-B3BE-91B1D41027C7";
paths = (
{
closed = 1;
nodes = (
"486 92 LINE",
"171 92 LINE",
"171 780 LINE",
"67 780 LINE",
"67 0 LINE",
"486 0 LINE"
);
},
{
closed = 1;
nodes = (
"306 607 LINE",
"358 607 LINE",
"379 800 LINE",
"306 800 LINE"
);
}
);
width = 501;
}
);
rightKerningGroup = L;
unicode = 013D;
},
{
glyphname = M;
layers = (
{
layerId = "C878BE66-A124-485F-B3BE-91B1D41027C7";
paths = (
{
closed = 1;
nodes = (
"656 432 LINE",
"656 0 LINE",
"760 0 LINE",
"760 780 LINE",
"609 780 LINE",
"413 180 LINE",
"218 780 LINE",
"67 780 LINE",
"67 0 LINE",
"171 0 LINE",
"171 432 LINE",
"167 599 LINE",
"363 0 LINE",
"464 0 LINE",
"660 599 LINE"
);
}
);
width = 827;
}
);
unicode = 004D;
},
{
glyphname = Mdotaccent;
layers = (
{
layerId = "C878BE66-A124-485F-B3BE-91B1D41027C7";
paths = (
{
closed = 1;
nodes = (
"656 432 LINE",
"656 0 LINE",
"760 0 LINE",
"760 780 LINE",
"609 780 LINE",
"413 180 LINE",
"218 780 LINE",
"67 780 LINE",
"67 0 LINE",
"171 0 LINE",
"171 432 LINE",
"167 599 LINE",
"363 0 LINE",
"464 0 LINE",
"660 599 LINE"
);
},
{
closed = 1;
nodes = (
"364 936 LINE",
"364 854 LINE",
"462 854 LINE",
"462 936 LINE"
);
}
);
width = 827;
}
);
unicode = 1E40;
},
{
glyphname = N;
layers = (
{
layerId = "C878BE66-A124-485F-B3BE-91B1D41027C7";
paths = (
{
closed = 1;
nodes = (
"501 780 LINE",
"501 357 LINE",
"505 184 LINE",
"178 780 LINE",
"67 780 LINE",
"67 0 LINE",
"166 0 LINE",
"166 423 LINE",
"162 596 LINE",
"489 0 LINE",
"600 0 LINE",
"600 780 LINE"
);
}
);
width = 667;
}
);
unicode = 004E;
},
{
glyphname = Ntilde;
layers = (
{
layerId = "C878BE66-A124-485F-B3BE-91B1D41027C7";
paths = (
{
closed = 1;
nodes = (
"501 780 LINE",
"501 357 LINE",
"505 184 LINE",
"178 780 LINE",
"67 780 LINE",
"67 0 LINE",
"166 0 LINE",
"166 423 LINE",
"162 596 LINE",
"489 0 LINE",
"600 0 LINE",
"600 780 LINE"
);
},
{
closed = 1;
nodes = (
"435 910 OFFCURVE",
"419 901 OFFCURVE",
"400 901 CURVE SMOOTH",
"361 901 OFFCURVE",
"321 952 OFFCURVE",
"258 952 CURVE SMOOTH",
"209 952 OFFCURVE",
"171 924 OFFCURVE",
"171 850 CURVE",
"233 850 LINE",
"233 880 OFFCURVE",
"249 889 OFFCURVE",
"268 889 CURVE SMOOTH",
"307 889 OFFCURVE",
"347 838 OFFCURVE",
"410 838 CURVE SMOOTH",
"459 838 OFFCURVE",
"497 866 OFFCURVE",
"497 940 CURVE",
"435 940 LINE"
);
}
);
width = 667;
}
);
unicode = 00D1;
},
{
glyphname = Nacute;
layers = (
{
layerId = "C878BE66-A124-485F-B3BE-91B1D41027C7";
paths = (
{
closed = 1;
nodes = (
"501 780 LINE",
"501 357 LINE",
"505 184 LINE",
"178 780 LINE",
"67 780 LINE",
"67 0 LINE",
"166 0 LINE",
"166 423 LINE",
"162 596 LINE",
"489 0 LINE",
"600 0 LINE",
"600 780 LINE"
);
},
{
closed = 1;
nodes = (
"283 840 LINE",
"385 840 LINE",
"448 950 LINE",
"341 950 LINE"
);
}
);
width = 667;
}
);
unicode = 0143;
},
{
glyphname = Ncommaaccent;
layers = (
{
layerId = "C878BE66-A124-485F-B3BE-91B1D41027C7";
paths = (
{
closed = 1;
nodes = (
"501 780 LINE",
"501 357 LINE",
"505 184 LINE",
"178 780 LINE",
"67 780 LINE",
"67 0 LINE",
"166 0 LINE",
"166 423 LINE",
"162 596 LINE",
"489 0 LINE",
"600 0 LINE",
"600 780 LINE"
);
},
{
closed = 1;
nodes = (
"283 -51 LINE",
"283 -129 LINE",
"340 -129 LINE",
"331 -164 OFFCURVE",
"304 -176 OFFCURVE",
"265 -176 CURVE",
"265 -219 LINE",
"344 -219 OFFCURVE",
"385 -181 OFFCURVE",
"385 -105 CURVE SMOOTH",
"385 -51 LINE"
);
}
);
width = 667;
}
);
unicode = 0145;
},
{
glyphname = Ncaron;
layers = (
{
layerId = "C878BE66-A124-485F-B3BE-91B1D41027C7";
paths = (
{
closed = 1;
nodes = (
"501 780 LINE",
"501 357 LINE",
"505 184 LINE",
"178 780 LINE",
"67 780 LINE",
"67 0 LINE",
"166 0 LINE",
"166 423 LINE",
"162 596 LINE",
"489 0 LINE",
"600 0 LINE",
"600 780 LINE"
);
},
{
closed = 1;
nodes = (
"285 840 LINE",
"383 840 LINE",
"496 950 LINE",
"400 950 LINE",
"334 892 LINE",
"268 950 LINE",
"172 950 LINE"
);
}
);
width = 667;
}
);
unicode = 0147;
},
{
glyphname = O;
layers = (
{
layerId = "C878BE66-A124-485F-B3BE-91B1D41027C7";
paths = (
{
closed = 1;
nodes = (
"516 -12 OFFCURVE",
"607 100 OFFCURVE",
"607 370 CURVE SMOOTH",
"607 410 LINE SMOOTH",
"607 680 OFFCURVE",
"516 792 OFFCURVE",
"329 792 CURVE SMOOTH",
"141 792 OFFCURVE",
"50 680 OFFCURVE",
"50 410 CURVE SMOOTH",
"50 370 LINE SMOOTH",
"50 100 OFFCURVE",
"141 -12 OFFCURVE",
"329 -12 CURVE SMOOTH"
);
},
{
closed = 1;
nodes = (
"205 80 OFFCURVE",
"157 172 OFFCURVE",
"157 370 CURVE SMOOTH",
"157 410 LINE SMOOTH",
"157 608 OFFCURVE",
"205 700 OFFCURVE",
"325 700 CURVE SMOOTH",
"332 700 LINE SMOOTH",
"452 700 OFFCURVE",
"500 608 OFFCURVE",
"500 410 CURVE SMOOTH",
"500 370 LINE SMOOTH",
"500 172 OFFCURVE",
"452 80 OFFCURVE",
"332 80 CURVE SMOOTH",
"325 80 LINE SMOOTH"
);
}
);
width = 657;
}
);
leftKerningGroup = O;
rightKerningGroup = O;
unicode = 004F;
},
{
glyphname = Ograve;
layers = (
{
layerId = "C878BE66-A124-485F-B3BE-91B1D41027C7";
paths = (
{
closed = 1;
nodes = (
"516 -12 OFFCURVE",
"607 100 OFFCURVE",
"607 370 CURVE SMOOTH",
"607 410 LINE SMOOTH",
"607 680 OFFCURVE",
"516 792 OFFCURVE",
"329 792 CURVE SMOOTH",
"141 792 OFFCURVE",
"50 680 OFFCURVE",
"50 410 CURVE SMOOTH",
"50 370 LINE SMOOTH",
"50 100 OFFCURVE",
"141 -12 OFFCURVE",
"329 -12 CURVE SMOOTH"
);
},
{
closed = 1;
nodes = (
"205 80 OFFCURVE",
"157 172 OFFCURVE",
"157 370 CURVE SMOOTH",
"157 410 LINE SMOOTH",
"157 608 OFFCURVE",
"205 700 OFFCURVE",
"325 700 CURVE SMOOTH",
"332 700 LINE SMOOTH",
"452 700 OFFCURVE",
"500 608 OFFCURVE",
"500 410 CURVE SMOOTH",
"500 370 LINE SMOOTH",
"500 172 OFFCURVE",
"452 80 OFFCURVE",
"332 80 CURVE SMOOTH",
"325 80 LINE SMOOTH"
);
},
{
closed = 1;
nodes = (
"278 840 LINE",
"380 840 LINE",
"322 950 LINE",
"215 950 LINE"
);
}
);
width = 657;
}
);
leftKerningGroup = O;
rightKerningGroup = O;
unicode = 00D2;
},
{
glyphname = Oacute;
layers = (
{
layerId = "C878BE66-A124-485F-B3BE-91B1D41027C7";
paths = (
{
closed = 1;
nodes = (
"516 -12 OFFCURVE",
"607 100 OFFCURVE",
"607 370 CURVE SMOOTH",
"607 410 LINE SMOOTH",
"607 680 OFFCURVE",
"516 792 OFFCURVE",
"329 792 CURVE SMOOTH",
"141 792 OFFCURVE",
"50 680 OFFCURVE",
"50 410 CURVE SMOOTH",
"50 370 LINE SMOOTH",
"50 100 OFFCURVE",
"141 -12 OFFCURVE",
"329 -12 CURVE SMOOTH"
);
},
{
closed = 1;
nodes = (
"205 80 OFFCURVE",
"157 172 OFFCURVE",
"157 370 CURVE SMOOTH",
"157 410 LINE SMOOTH",
"157 608 OFFCURVE",
"205 700 OFFCURVE",
"325 700 CURVE SMOOTH",
"332 700 LINE SMOOTH",
"452 700 OFFCURVE",
"500 608 OFFCURVE",
"500 410 CURVE SMOOTH",
"500 370 LINE SMOOTH",
"500 172 OFFCURVE",
"452 80 OFFCURVE",
"332 80 CURVE SMOOTH",
"325 80 LINE SMOOTH"
);
},
{
closed = 1;
nodes = (
"278 840 LINE",
"380 840 LINE",
"443 950 LINE",
"336 950 LINE"
);
}
);
width = 657;
}
);
leftKerningGroup = O;
rightKerningGroup = O;
unicode = 00D3;
},
{
glyphname = Ocircumflex;
layers = (
{
layerId = "C878BE66-A124-485F-B3BE-91B1D41027C7";
paths = (
{
closed = 1;
nodes = (
"516 -12 OFFCURVE",
"607 100 OFFCURVE",
"607 370 CURVE SMOOTH",
"607 410 LINE SMOOTH",
"607 680 OFFCURVE",
"516 792 OFFCURVE",
"329 792 CURVE SMOOTH",
"141 792 OFFCURVE",
"50 680 OFFCURVE",
"50 410 CURVE SMOOTH",
"50 370 LINE SMOOTH",
"50 100 OFFCURVE",
"141 -12 OFFCURVE",
"329 -12 CURVE SMOOTH"
);
},
{
closed = 1;
nodes = (
"205 80 OFFCURVE",
"157 172 OFFCURVE",
"157 370 CURVE SMOOTH",
"157 410 LINE SMOOTH",
"157 608 OFFCURVE",
"205 700 OFFCURVE",
"325 700 CURVE SMOOTH",
"332 700 LINE SMOOTH",
"452 700 OFFCURVE",
"500 608 OFFCURVE",
"500 410 CURVE SMOOTH",
"500 370 LINE SMOOTH",
"500 172 OFFCURVE",
"452 80 OFFCURVE",
"332 80 CURVE SMOOTH",
"325 80 LINE SMOOTH"
);
},
{
closed = 1;
nodes = (
"329 897 LINE",
"395 840 LINE",
"491 840 LINE",
"378 950 LINE",
"280 950 LINE",
"167 840 LINE",
"263 840 LINE"
);
}
);
width = 657;
}
);
leftKerningGroup = O;
rightKerningGroup = O;
unicode = 00D4;
},
{
glyphname = Otilde;
layers = (
{
layerId = "C878BE66-A124-485F-B3BE-91B1D41027C7";
paths = (
{
closed = 1;
nodes = (
"516 -12 OFFCURVE",
"607 100 OFFCURVE",
"607 370 CURVE SMOOTH",
"607 410 LINE SMOOTH",
"607 680 OFFCURVE",
"516 792 OFFCURVE",
"329 792 CURVE SMOOTH",
"141 792 OFFCURVE",
"50 680 OFFCURVE",
"50 410 CURVE SMOOTH",
"50 370 LINE SMOOTH",
"50 100 OFFCURVE",
"141 -12 OFFCURVE",
"329 -12 CURVE SMOOTH"
);
},
{
closed = 1;
nodes = (
"205 80 OFFCURVE",
"157 172 OFFCURVE",
"157 370 CURVE SMOOTH",
"157 410 LINE SMOOTH",
"157 608 OFFCURVE",
"205 700 OFFCURVE",
"325 700 CURVE SMOOTH",
"332 700 LINE SMOOTH",
"452 700 OFFCURVE",
"500 608 OFFCURVE",
"500 410 CURVE SMOOTH",
"500 370 LINE SMOOTH",
"500 172 OFFCURVE",
"452 80 OFFCURVE",
"332 80 CURVE SMOOTH",
"325 80 LINE SMOOTH"
);
},
{
closed = 1;
nodes = (
"430 910 OFFCURVE",
"414 901 OFFCURVE",
"395 901 CURVE SMOOTH",
"356 901 OFFCURVE",
"316 952 OFFCURVE",
"253 952 CURVE SMOOTH",
"204 952 OFFCURVE",
"166 924 OFFCURVE",
"166 850 CURVE",
"228 850 LINE",
"228 880 OFFCURVE",
"244 889 OFFCURVE",
"263 889 CURVE SMOOTH",
"302 889 OFFCURVE",
"342 838 OFFCURVE",
"405 838 CURVE SMOOTH",
"454 838 OFFCURVE",
"492 866 OFFCURVE",
"492 940 CURVE",
"430 940 LINE"
);
}
);
width = 657;
}
);
leftKerningGroup = O;
rightKerningGroup = O;
unicode = 00D5;
},
{
glyphname = Odieresis;
layers = (
{
layerId = "C878BE66-A124-485F-B3BE-91B1D41027C7";
paths = (
{
closed = 1;
nodes = (
"516 -12 OFFCURVE",
"607 100 OFFCURVE",
"607 370 CURVE SMOOTH",
"607 410 LINE SMOOTH",
"607 680 OFFCURVE",
"516 792 OFFCURVE",
"329 792 CURVE SMOOTH",
"141 792 OFFCURVE",
"50 680 OFFCURVE",
"50 410 CURVE SMOOTH",
"50 370 LINE SMOOTH",
"50 100 OFFCURVE",
"141 -12 OFFCURVE",
"329 -12 CURVE SMOOTH"
);
},
{
closed = 1;
nodes = (
"205 80 OFFCURVE",
"157 172 OFFCURVE",
"157 370 CURVE SMOOTH",
"157 410 LINE SMOOTH",
"157 608 OFFCURVE",
"205 700 OFFCURVE",
"325 700 CURVE SMOOTH",
"332 700 LINE SMOOTH",
"452 700 OFFCURVE",
"500 608 OFFCURVE",
"500 410 CURVE SMOOTH",
"500 370 LINE SMOOTH",
"500 172 OFFCURVE",
"452 80 OFFCURVE",
"332 80 CURVE SMOOTH",
"325 80 LINE SMOOTH"
);
},
{
closed = 1;
nodes = (
"198 936 LINE",
"198 854 LINE",
"297 854 LINE",
"297 936 LINE"
);
},
{
closed = 1;
nodes = (
"361 936 LINE",
"361 854 LINE",
"460 854 LINE",
"460 936 LINE"
);
}
);
width = 657;
}
);
leftKerningGroup = O;
rightKerningGroup = O;
unicode = 00D6;
},
{
glyphname = Omacron;
layers = (
{
layerId = "C878BE66-A124-485F-B3BE-91B1D41027C7";
paths = (
{
closed = 1;
nodes = (
"516 -12 OFFCURVE",
"607 100 OFFCURVE",
"607 370 CURVE SMOOTH",
"607 410 LINE SMOOTH",
"607 680 OFFCURVE",
"516 792 OFFCURVE",
"329 792 CURVE SMOOTH",
"141 792 OFFCURVE",
"50 680 OFFCURVE",
"50 410 CURVE SMOOTH",
"50 370 LINE SMOOTH",
"50 100 OFFCURVE",
"141 -12 OFFCURVE",
"329 -12 CURVE SMOOTH"
);
},
{
closed = 1;
nodes = (
"205 80 OFFCURVE",
"157 172 OFFCURVE",
"157 370 CURVE SMOOTH",
"157 410 LINE SMOOTH",
"157 608 OFFCURVE",
"205 700 OFFCURVE",
"325 700 CURVE SMOOTH",
"332 700 LINE SMOOTH",
"452 700 OFFCURVE",
"500 608 OFFCURVE",
"500 410 CURVE SMOOTH",
"500 370 LINE SMOOTH",
"500 172 OFFCURVE",
"452 80 OFFCURVE",
"332 80 CURVE SMOOTH",
"325 80 LINE SMOOTH"
);
},
{
closed = 1;
nodes = (
"455 860 LINE",
"455 930 LINE",
"203 930 LINE",
"203 860 LINE"
);
}
);
width = 657;
}
);
leftKerningGroup = O;
rightKerningGroup = O;
unicode = 014C;
},
{
glyphname = Obreve;
layers = (
{
layerId = "C878BE66-A124-485F-B3BE-91B1D41027C7";
paths = (
{
closed = 1;
nodes = (
"516 -12 OFFCURVE",
"607 100 OFFCURVE",
"607 370 CURVE SMOOTH",
"607 410 LINE SMOOTH",
"607 680 OFFCURVE",
"516 792 OFFCURVE",
"329 792 CURVE SMOOTH",
"141 792 OFFCURVE",
"50 680 OFFCURVE",
"50 410 CURVE SMOOTH",
"50 370 LINE SMOOTH",
"50 100 OFFCURVE",
"141 -12 OFFCURVE",
"329 -12 CURVE SMOOTH"
);
},
{
closed = 1;
nodes = (
"205 80 OFFCURVE",
"157 172 OFFCURVE",
"157 370 CURVE SMOOTH",
"157 410 LINE SMOOTH",
"157 608 OFFCURVE",
"205 700 OFFCURVE",
"325 700 CURVE SMOOTH",
"332 700 LINE SMOOTH",
"452 700 OFFCURVE",
"500 608 OFFCURVE",
"500 410 CURVE SMOOTH",
"500 370 LINE SMOOTH",
"500 172 OFFCURVE",
"452 80 OFFCURVE",
"332 80 CURVE SMOOTH",
"325 80 LINE SMOOTH"
);
},
{
closed = 1;
nodes = (
"449 827 OFFCURVE",
"488 881 OFFCURVE",
"488 950 CURVE",
"413 950 LINE",
"413 913 OFFCURVE",
"388 890 OFFCURVE",
"329 890 CURVE SMOOTH",
"270 890 OFFCURVE",
"245 913 OFFCURVE",
"245 950 CURVE",
"170 950 LINE",
"170 881 OFFCURVE",
"209 827 OFFCURVE",
"329 827 CURVE SMOOTH"
);
}
);
width = 657;
}
);
leftKerningGroup = O;
rightKerningGroup = O;
unicode = 014E;
},
{
glyphname = Ohungarumlaut;
layers = (
{
layerId = "C878BE66-A124-485F-B3BE-91B1D41027C7";
paths = (
{
closed = 1;
nodes = (
"516 -12 OFFCURVE",
"607 100 OFFCURVE",
"607 370 CURVE SMOOTH",
"607 410 LINE SMOOTH",
"607 680 OFFCURVE",
"516 792 OFFCURVE",
"329 792 CURVE SMOOTH",
"141 792 OFFCURVE",
"50 680 OFFCURVE",
"50 410 CURVE SMOOTH",
"50 370 LINE SMOOTH",
"50 100 OFFCURVE",
"141 -12 OFFCURVE",
"329 -12 CURVE SMOOTH"
);
},
{
closed = 1;
nodes = (
"205 80 OFFCURVE",
"157 172 OFFCURVE",
"157 370 CURVE SMOOTH",
"157 410 LINE SMOOTH",
"157 608 OFFCURVE",
"205 700 OFFCURVE",
"325 700 CURVE SMOOTH",
"332 700 LINE SMOOTH",
"452 700 OFFCURVE",
"500 608 OFFCURVE",
"500 410 CURVE SMOOTH",
"500 370 LINE SMOOTH",
"500 172 OFFCURVE",
"452 80 OFFCURVE",
"332 80 CURVE SMOOTH",
"325 80 LINE SMOOTH"
);
},
{
closed = 1;
nodes = (
"212 840 LINE",
"306 840 LINE",
"364 950 LINE",
"266 950 LINE"
);
},
{
closed = 1;
nodes = (
"352 840 LINE",
"446 840 LINE",
"508 950 LINE",
"410 950 LINE"
);
}
);
width = 657;
}
);
leftKerningGroup = O;
rightKerningGroup = O;
unicode = 0150;
},
{
glyphname = P;
layers = (
{
layerId = "C878BE66-A124-485F-B3BE-91B1D41027C7";
paths = (
{
closed = 1;
nodes = (
"298 304 LINE SMOOTH",
"415 304 OFFCURVE",
"548 342 OFFCURVE",
"548 532 CURVE SMOOTH",
"548 552 LINE SMOOTH",
"548 741 OFFCURVE",
"415 780 OFFCURVE",
"298 780 CURVE SMOOTH",
"67 780 LINE",
"67 0 LINE",
"171 0 LINE",
"171 304 LINE"
);
},
{
closed = 1;
nodes = (
"171 688 LINE",
"301 688 LINE SMOOTH",
"361 688 OFFCURVE",
"442 666 OFFCURVE",
"442 548 CURVE SMOOTH",
"442 535 LINE SMOOTH",
"442 417 OFFCURVE",
"361 395 OFFCURVE",
"301 395 CURVE SMOOTH",
"171 395 LINE"
);
}
);
width = 586;
}
);
rightKerningGroup = P;
unicode = 0050;
},
{
glyphname = Pdotaccent;
layers = (
{
layerId = "C878BE66-A124-485F-B3BE-91B1D41027C7";
paths = (
{
closed = 1;
nodes = (
"298 304 LINE SMOOTH",
"415 304 OFFCURVE",
"548 342 OFFCURVE",
"548 532 CURVE SMOOTH",
"548 552 LINE SMOOTH",
"548 741 OFFCURVE",
"415 780 OFFCURVE",
"298 780 CURVE SMOOTH",
"67 780 LINE",
"67 0 LINE",
"171 0 LINE",
"171 304 LINE"
);
},
{
closed = 1;
nodes = (
"171 688 LINE",
"301 688 LINE SMOOTH",
"361 688 OFFCURVE",
"442 666 OFFCURVE",
"442 548 CURVE SMOOTH",
"442 535 LINE SMOOTH",
"442 417 OFFCURVE",
"361 395 OFFCURVE",
"301 395 CURVE SMOOTH",
"171 395 LINE"
);
},
{
closed = 1;
nodes = (
"240 936 LINE",
"240 854 LINE",
"338 854 LINE",
"338 936 LINE"
);
}
);
width = 586;
}
);
rightKerningGroup = P;
unicode = 1E56;
},
{
glyphname = Q;
layers = (
{
layerId = "C878BE66-A124-485F-B3BE-91B1D41027C7";
paths = (
{
closed = 1;
nodes = (
"345 -12 OFFCURVE",
"361 -11 OFFCURVE",
"376 -9 CURVE",
"411 -100 LINE",
"498 -100 LINE",
"455 11 LINE",
"557 56 OFFCURVE",
"607 170 OFFCURVE",
"607 370 CURVE SMOOTH",
"607 410 LINE SMOOTH",
"607 680 OFFCURVE",
"516 792 OFFCURVE",
"329 792 CURVE SMOOTH",
"141 792 OFFCURVE",
"50 680 OFFCURVE",
"50 410 CURVE SMOOTH",
"50 370 LINE SMOOTH",
"50 100 OFFCURVE",
"141 -12 OFFCURVE",
"329 -12 CURVE SMOOTH"
);
},
{
closed = 1;
nodes = (
"283 239 LINE",
"343 80 LINE",
"325 80 LINE SMOOTH",
"205 80 OFFCURVE",
"157 172 OFFCURVE",
"157 370 CURVE SMOOTH",
"157 410 LINE SMOOTH",
"157 608 OFFCURVE",
"205 700 OFFCURVE",
"325 700 CURVE SMOOTH",
"332 700 LINE SMOOTH",
"452 700 OFFCURVE",
"500 608 OFFCURVE",
"500 410 CURVE SMOOTH",
"500 370 LINE SMOOTH",
"500 229 OFFCURVE",
"476 142 OFFCURVE",
"419 103 CURVE",
"366 239 LINE"
);
}
);
width = 657;
}
);
unicode = 0051;
},
{
glyphname = R;
layers = (
{
layerId = "C878BE66-A124-485F-B3BE-91B1D41027C7";
paths = (
{
closed = 1;
nodes = (
"317 304 LINE",
"435 0 LINE",
"548 0 LINE",
"418 322 LINE",
"490 348 OFFCURVE",
"548 407 OFFCURVE",
"548 532 CURVE SMOOTH",
"548 552 LINE SMOOTH",
"548 741 OFFCURVE",
"415 780 OFFCURVE",
"298 780 CURVE SMOOTH",
"67 780 LINE",
"67 0 LINE",
"171 0 LINE",
"171 304 LINE"
);
},
{
closed = 1;
nodes = (
"171 688 LINE",
"301 688 LINE SMOOTH",
"361 688 OFFCURVE",
"442 666 OFFCURVE",
"442 548 CURVE SMOOTH",
"442 535 LINE SMOOTH",
"442 417 OFFCURVE",
"361 395 OFFCURVE",
"301 395 CURVE SMOOTH",
"171 395 LINE"
);
}
);
width = 598;
}
);
rightKerningGroup = R;
unicode = 0052;
},
{
glyphname = Racute;
layers = (
{
layerId = "C878BE66-A124-485F-B3BE-91B1D41027C7";
paths = (
{
closed = 1;
nodes = (
"317 304 LINE",
"435 0 LINE",
"548 0 LINE",
"418 322 LINE",
"490 348 OFFCURVE",
"548 407 OFFCURVE",
"548 532 CURVE SMOOTH",
"548 552 LINE SMOOTH",
"548 741 OFFCURVE",
"415 780 OFFCURVE",
"298 780 CURVE SMOOTH",
"67 780 LINE",
"67 0 LINE",
"171 0 LINE",
"171 304 LINE"
);
},
{
closed = 1;
nodes = (
"171 688 LINE",
"301 688 LINE SMOOTH",
"361 688 OFFCURVE",
"442 666 OFFCURVE",
"442 548 CURVE SMOOTH",
"442 535 LINE SMOOTH",
"442 417 OFFCURVE",
"361 395 OFFCURVE",
"301 395 CURVE SMOOTH",
"171 395 LINE"
);
},
{
closed = 1;
nodes = (
"231 840 LINE",
"333 840 LINE",
"396 950 LINE",
"289 950 LINE"
);
}
);
width = 598;
}
);
rightKerningGroup = R;
unicode = 0154;
},
{
glyphname = Rcommaaccent;
layers = (
{
layerId = "C878BE66-A124-485F-B3BE-91B1D41027C7";
paths = (
{
closed = 1;
nodes = (
"317 304 LINE",
"435 0 LINE",
"548 0 LINE",
"418 322 LINE",
"490 348 OFFCURVE",
"548 407 OFFCURVE",
"548 532 CURVE SMOOTH",
"548 552 LINE SMOOTH",
"548 741 OFFCURVE",
"415 780 OFFCURVE",
"298 780 CURVE SMOOTH",
"67 780 LINE",
"67 0 LINE",
"171 0 LINE",
"171 304 LINE"
);
},
{
closed = 1;
nodes = (
"171 688 LINE",
"301 688 LINE SMOOTH",
"361 688 OFFCURVE",
"442 666 OFFCURVE",
"442 548 CURVE SMOOTH",
"442 535 LINE SMOOTH",
"442 417 OFFCURVE",
"361 395 OFFCURVE",
"301 395 CURVE SMOOTH",
"171 395 LINE"
);
},
{
closed = 1;
nodes = (
"241 -51 LINE",
"241 -129 LINE",
"298 -129 LINE",
"289 -164 OFFCURVE",
"262 -176 OFFCURVE",
"223 -176 CURVE",
"223 -219 LINE",
"302 -219 OFFCURVE",
"343 -181 OFFCURVE",
"343 -105 CURVE SMOOTH",
"343 -51 LINE"
);
}
);
width = 598;
}
);
rightKerningGroup = R;
unicode = 0156;
},
{
glyphname = Rcaron;
layers = (
{
layerId = "C878BE66-A124-485F-B3BE-91B1D41027C7";
paths = (
{
closed = 1;
nodes = (
"317 304 LINE",
"435 0 LINE",
"548 0 LINE",
"418 322 LINE",
"490 348 OFFCURVE",
"548 407 OFFCURVE",
"548 532 CURVE SMOOTH",
"548 552 LINE SMOOTH",
"548 741 OFFCURVE",
"415 780 OFFCURVE",
"298 780 CURVE SMOOTH",
"67 780 LINE",
"67 0 LINE",
"171 0 LINE",
"171 304 LINE"
);
},
{
closed = 1;
nodes = (
"171 688 LINE",
"301 688 LINE SMOOTH",
"361 688 OFFCURVE",
"442 666 OFFCURVE",
"442 548 CURVE SMOOTH",
"442 535 LINE SMOOTH",
"442 417 OFFCURVE",
"361 395 OFFCURVE",
"301 395 CURVE SMOOTH",
"171 395 LINE"
);
},
{
closed = 1;
nodes = (
"233 840 LINE",
"331 840 LINE",
"444 950 LINE",
"348 950 LINE",
"282 892 LINE",
"216 950 LINE",
"120 950 LINE"
);
}
);
width = 598;
}
);
rightKerningGroup = R;
unicode = 0158;
},
{
glyphname = S;
layers = (
{
layerId = "C878BE66-A124-485F-B3BE-91B1D41027C7";
paths = (
{
closed = 1;
nodes = (
"417 337 OFFCURVE",
"463 296 OFFCURVE",
"463 217 CURVE SMOOTH",
"463 209 LINE SMOOTH",
"463 130 OFFCURVE",
"404 80 OFFCURVE",
"310 80 CURVE SMOOTH",
"302 80 LINE SMOOTH",
"208 80 OFFCURVE",
"145 135 OFFCURVE",
"145 259 CURVE",
"41 259 LINE",
"41 249 LINE SMOOTH",
"41 78 OFFCURVE",
"133 -12 OFFCURVE",
"306 -12 CURVE SMOOTH",
"471 -12 OFFCURVE",
"570 72 OFFCURVE",
"570 214 CURVE SMOOTH",
"570 225 LINE SMOOTH",
"570 353 OFFCURVE",
"494 418 OFFCURVE",
"324 441 CURVE SMOOTH",
"192 459 OFFCURVE",
"156 502 OFFCURVE",
"156 575 CURVE SMOOTH",
"156 583 LINE SMOOTH",
"156 654 OFFCURVE",
"215 700 OFFCURVE",
"300 700 CURVE SMOOTH",
"307 700 LINE SMOOTH",
"414 700 OFFCURVE",
"458 643 OFFCURVE",
"458 511 CURVE",
"562 511 LINE",
"562 535 LINE SMOOTH",
"562 704 OFFCURVE",
"485 792 OFFCURVE",
"306 792 CURVE SMOOTH",
"147 792 OFFCURVE",
"49 708 OFFCURVE",
"49 575 CURVE SMOOTH",
"49 564 LINE SMOOTH",
"49 448 OFFCURVE",
"119 377 OFFCURVE",
"289 354 CURVE SMOOTH"
);
}
);
width = 611;
}
);
leftKerningGroup = S;
rightKerningGroup = S;
unicode = 0053;
},
{
glyphname = Sacute;
layers = (
{
layerId = "C878BE66-A124-485F-B3BE-91B1D41027C7";
paths = (
{
closed = 1;
nodes = (
"417 337 OFFCURVE",
"463 296 OFFCURVE",
"463 217 CURVE SMOOTH",
"463 209 LINE SMOOTH",
"463 130 OFFCURVE",
"404 80 OFFCURVE",
"310 80 CURVE SMOOTH",
"302 80 LINE SMOOTH",
"208 80 OFFCURVE",
"145 135 OFFCURVE",
"145 259 CURVE",
"41 259 LINE",
"41 249 LINE SMOOTH",
"41 78 OFFCURVE",
"133 -12 OFFCURVE",
"306 -12 CURVE SMOOTH",
"471 -12 OFFCURVE",
"570 72 OFFCURVE",
"570 214 CURVE SMOOTH",
"570 225 LINE SMOOTH",
"570 353 OFFCURVE",
"494 418 OFFCURVE",
"324 441 CURVE SMOOTH",
"192 459 OFFCURVE",
"156 502 OFFCURVE",
"156 575 CURVE SMOOTH",
"156 583 LINE SMOOTH",
"156 654 OFFCURVE",
"215 700 OFFCURVE",
"300 700 CURVE SMOOTH",
"307 700 LINE SMOOTH",
"414 700 OFFCURVE",
"458 643 OFFCURVE",
"458 511 CURVE",
"562 511 LINE",
"562 535 LINE SMOOTH",
"562 704 OFFCURVE",
"485 792 OFFCURVE",
"306 792 CURVE SMOOTH",
"147 792 OFFCURVE",
"49 708 OFFCURVE",
"49 575 CURVE SMOOTH",
"49 564 LINE SMOOTH",
"49 448 OFFCURVE",
"119 377 OFFCURVE",
"289 354 CURVE SMOOTH"
);
},
{
closed = 1;
nodes = (
"255 840 LINE",
"357 840 LINE",
"420 950 LINE",
"313 950 LINE"
);
}
);
width = 611;
}
);
leftKerningGroup = S;
rightKerningGroup = S;
unicode = 015A;
},
{
glyphname = Scircumflex;
layers = (
{
layerId = "C878BE66-A124-485F-B3BE-91B1D41027C7";
paths = (
{
closed = 1;
nodes = (
"417 337 OFFCURVE",
"463 296 OFFCURVE",
"463 217 CURVE SMOOTH",
"463 209 LINE SMOOTH",
"463 130 OFFCURVE",
"404 80 OFFCURVE",
"310 80 CURVE SMOOTH",
"302 80 LINE SMOOTH",
"208 80 OFFCURVE",
"145 135 OFFCURVE",
"145 259 CURVE",
"41 259 LINE",
"41 249 LINE SMOOTH",
"41 78 OFFCURVE",
"133 -12 OFFCURVE",
"306 -12 CURVE SMOOTH",
"471 -12 OFFCURVE",
"570 72 OFFCURVE",
"570 214 CURVE SMOOTH",
"570 225 LINE SMOOTH",
"570 353 OFFCURVE",
"494 418 OFFCURVE",
"324 441 CURVE SMOOTH",
"192 459 OFFCURVE",
"156 502 OFFCURVE",
"156 575 CURVE SMOOTH",
"156 583 LINE SMOOTH",
"156 654 OFFCURVE",
"215 700 OFFCURVE",
"300 700 CURVE SMOOTH",
"307 700 LINE SMOOTH",
"414 700 OFFCURVE",
"458 643 OFFCURVE",
"458 511 CURVE",
"562 511 LINE",
"562 535 LINE SMOOTH",
"562 704 OFFCURVE",
"485 792 OFFCURVE",
"306 792 CURVE SMOOTH",
"147 792 OFFCURVE",
"49 708 OFFCURVE",
"49 575 CURVE SMOOTH",
"49 564 LINE SMOOTH",
"49 448 OFFCURVE",
"119 377 OFFCURVE",
"289 354 CURVE SMOOTH"
);
},
{
closed = 1;
nodes = (
"306 897 LINE",
"372 840 LINE",
"468 840 LINE",
"355 950 LINE",
"257 950 LINE",
"144 840 LINE",
"240 840 LINE"
);
}
);
width = 611;
}
);
leftKerningGroup = S;
rightKerningGroup = S;
unicode = 015C;
},
{
glyphname = Scedilla;
layers = (
{
layerId = "C878BE66-A124-485F-B3BE-91B1D41027C7";
paths = (
{
closed = 1;
nodes = (
"231 -203 OFFCURVE",
"268 -213 OFFCURVE",
"309 -213 CURVE SMOOTH",
"377 -213 OFFCURVE",
"418 -187 OFFCURVE",
"418 -131 CURVE SMOOTH",
"418 -74 OFFCURVE",
"369 -51 OFFCURVE",
"316 -50 CURVE",
"330 -11 LINE",
"481 -3 OFFCURVE",
"570 79 OFFCURVE",
"570 214 CURVE SMOOTH",
"570 225 LINE SMOOTH",
"570 353 OFFCURVE",
"494 418 OFFCURVE",
"324 441 CURVE SMOOTH",
"192 459 OFFCURVE",
"156 502 OFFCURVE",
"156 575 CURVE SMOOTH",
"156 583 LINE SMOOTH",
"156 654 OFFCURVE",
"215 700 OFFCURVE",
"300 700 CURVE SMOOTH",
"307 700 LINE SMOOTH",
"414 700 OFFCURVE",
"458 643 OFFCURVE",
"458 511 CURVE",
"562 511 LINE",
"562 535 LINE SMOOTH",
"562 704 OFFCURVE",
"485 792 OFFCURVE",
"306 792 CURVE SMOOTH",
"147 792 OFFCURVE",
"49 708 OFFCURVE",
"49 575 CURVE SMOOTH",
"49 564 LINE SMOOTH",
"49 448 OFFCURVE",
"119 377 OFFCURVE",
"289 354 CURVE SMOOTH",
"417 337 OFFCURVE",
"463 296 OFFCURVE",
"463 217 CURVE SMOOTH",
"463 209 LINE SMOOTH",
"463 130 OFFCURVE",
"404 80 OFFCURVE",
"310 80 CURVE SMOOTH",
"302 80 LINE SMOOTH",
"208 80 OFFCURVE",
"145 135 OFFCURVE",
"145 259 CURVE",
"41 259 LINE",
"41 249 LINE SMOOTH",
"41 89 OFFCURVE",
"121 0 OFFCURVE",
"273 -11 CURVE",
"248 -77 LINE",
"265 -102 LINE",
"265 -102 OFFCURVE",
"281 -99 OFFCURVE",
"297 -99 CURVE SMOOTH",
"333 -99 OFFCURVE",
"354 -106 OFFCURVE",
"354 -126 CURVE SMOOTH",
"354 -147 OFFCURVE",
"337 -155 OFFCURVE",
"300 -155 CURVE SMOOTH",
"274 -155 OFFCURVE",
"246 -148 OFFCURVE",
"230 -139 CURVE",
"212 -191 LINE"
);
}
);
width = 611;
}
);
leftKerningGroup = S;
rightKerningGroup = S;
unicode = 015E;
},
{
glyphname = Scaron;
layers = (
{
layerId = "C878BE66-A124-485F-B3BE-91B1D41027C7";
paths = (
{
closed = 1;
nodes = (
"417 337 OFFCURVE",
"463 296 OFFCURVE",
"463 217 CURVE SMOOTH",
"463 209 LINE SMOOTH",
"463 130 OFFCURVE",
"404 80 OFFCURVE",
"310 80 CURVE SMOOTH",
"302 80 LINE SMOOTH",
"208 80 OFFCURVE",
"145 135 OFFCURVE",
"145 259 CURVE",
"41 259 LINE",
"41 249 LINE SMOOTH",
"41 78 OFFCURVE",
"133 -12 OFFCURVE",
"306 -12 CURVE SMOOTH",
"471 -12 OFFCURVE",
"570 72 OFFCURVE",
"570 214 CURVE SMOOTH",
"570 225 LINE SMOOTH",
"570 353 OFFCURVE",
"494 418 OFFCURVE",
"324 441 CURVE SMOOTH",
"192 459 OFFCURVE",
"156 502 OFFCURVE",
"156 575 CURVE SMOOTH",
"156 583 LINE SMOOTH",
"156 654 OFFCURVE",
"215 700 OFFCURVE",
"300 700 CURVE SMOOTH",
"307 700 LINE SMOOTH",
"414 700 OFFCURVE",
"458 643 OFFCURVE",
"458 511 CURVE",
"562 511 LINE",
"562 535 LINE SMOOTH",
"562 704 OFFCURVE",
"485 792 OFFCURVE",
"306 792 CURVE SMOOTH",
"147 792 OFFCURVE",
"49 708 OFFCURVE",
"49 575 CURVE SMOOTH",
"49 564 LINE SMOOTH",
"49 448 OFFCURVE",
"119 377 OFFCURVE",
"289 354 CURVE SMOOTH"
);
},
{
closed = 1;
nodes = (
"257 840 LINE",
"355 840 LINE",
"468 950 LINE",
"372 950 LINE",
"306 892 LINE",
"240 950 LINE",
"144 950 LINE"
);
}
);
width = 611;
}
);
leftKerningGroup = S;
rightKerningGroup = S;
unicode = 0160;
},
{
glyphname = Scommaaccent;
layers = (
{
layerId = "C878BE66-A124-485F-B3BE-91B1D41027C7";
paths = (
{
closed = 1;
nodes = (
"417 337 OFFCURVE",
"463 296 OFFCURVE",
"463 217 CURVE SMOOTH",
"463 209 LINE SMOOTH",
"463 130 OFFCURVE",
"404 80 OFFCURVE",
"310 80 CURVE SMOOTH",
"302 80 LINE SMOOTH",
"208 80 OFFCURVE",
"145 135 OFFCURVE",
"145 259 CURVE",
"41 259 LINE",
"41 249 LINE SMOOTH",
"41 78 OFFCURVE",
"133 -12 OFFCURVE",
"306 -12 CURVE SMOOTH",
"471 -12 OFFCURVE",
"570 72 OFFCURVE",
"570 214 CURVE SMOOTH",
"570 225 LINE SMOOTH",
"570 353 OFFCURVE",
"494 418 OFFCURVE",
"324 441 CURVE SMOOTH",
"192 459 OFFCURVE",
"156 502 OFFCURVE",
"156 575 CURVE SMOOTH",
"156 583 LINE SMOOTH",
"156 654 OFFCURVE",
"215 700 OFFCURVE",
"300 700 CURVE SMOOTH",
"307 700 LINE SMOOTH",
"414 700 OFFCURVE",
"458 643 OFFCURVE",
"458 511 CURVE",
"562 511 LINE",
"562 535 LINE SMOOTH",
"562 704 OFFCURVE",
"485 792 OFFCURVE",
"306 792 CURVE SMOOTH",
"147 792 OFFCURVE",
"49 708 OFFCURVE",
"49 575 CURVE SMOOTH",
"49 564 LINE SMOOTH",
"49 448 OFFCURVE",
"119 377 OFFCURVE",
"289 354 CURVE SMOOTH"
);
},
{
closed = 1;
nodes = (
"255 -51 LINE",
"255 -129 LINE",
"312 -129 LINE",
"303 -164 OFFCURVE",
"276 -176 OFFCURVE",
"237 -176 CURVE",
"237 -219 LINE",
"316 -219 OFFCURVE",
"357 -181 OFFCURVE",
"357 -105 CURVE SMOOTH",
"357 -51 LINE"
);
}
);
width = 611;
}
);
leftKerningGroup = S;
rightKerningGroup = S;
unicode = 0218;
},
{
glyphname = T;
layers = (
{
layerId = "C878BE66-A124-485F-B3BE-91B1D41027C7";
paths = (
{
closed = 1;
nodes = (
"509 688 LINE",
"509 780 LINE",
"21 780 LINE",
"21 688 LINE",
"213 688 LINE",
"213 0 LINE",
"317 0 LINE",
"317 688 LINE"
);
}
);
width = 530;
}
);
leftKerningGroup = T;
rightKerningGroup = T;
unicode = 0054;
},
{
glyphname = Tcommaaccent;
layers = (
{
layerId = "C878BE66-A124-485F-B3BE-91B1D41027C7";
paths = (
{
closed = 1;
nodes = (
"509 688 LINE",
"509 780 LINE",
"21 780 LINE",
"21 688 LINE",
"213 688 LINE",
"213 0 LINE",
"317 0 LINE",
"317 688 LINE"
);
},
{
closed = 1;
nodes = (
"214 -51 LINE",
"214 -129 LINE",
"271 -129 LINE",
"262 -164 OFFCURVE",
"235 -176 OFFCURVE",
"196 -176 CURVE",
"196 -219 LINE",
"275 -219 OFFCURVE",
"316 -181 OFFCURVE",
"316 -105 CURVE SMOOTH",
"316 -51 LINE"
);
}
);
width = 530;
}
);
leftKerningGroup = T;
rightKerningGroup = T;
unicode = 0162;
},
{
glyphname = Tcaron;
layers = (
{
layerId = "C878BE66-A124-485F-B3BE-91B1D41027C7";
paths = (
{
closed = 1;
nodes = (
"509 688 LINE",
"509 780 LINE",
"21 780 LINE",
"21 688 LINE",
"213 688 LINE",
"213 0 LINE",
"317 0 LINE",
"317 688 LINE"
);
},
{
closed = 1;
nodes = (
"216 840 LINE",
"314 840 LINE",
"427 950 LINE",
"331 950 LINE",
"265 892 LINE",
"199 950 LINE",
"103 950 LINE"
);
}
);
width = 530;
}
);
leftKerningGroup = T;
rightKerningGroup = T;
unicode = 0164;
},
{
glyphname = Tdotaccent;
layers = (
{
layerId = "C878BE66-A124-485F-B3BE-91B1D41027C7";
paths = (
{
closed = 1;
nodes = (
"509 688 LINE",
"509 780 LINE",
"21 780 LINE",
"21 688 LINE",
"213 688 LINE",
"213 0 LINE",
"317 0 LINE",
"317 688 LINE"
);
},
{
closed = 1;
nodes = (
"216 936 LINE",
"216 854 LINE",
"314 854 LINE",
"314 936 LINE"
);
}
);
width = 530;
}
);
leftKerningGroup = T;
rightKerningGroup = T;
unicode = 1E6A;
},
{
glyphname = U;
layers = (
{
layerId = "C878BE66-A124-485F-B3BE-91B1D41027C7";
paths = (
{
closed = 1;
nodes = (
"506 -12 OFFCURVE",
"585 62 OFFCURVE",
"585 243 CURVE SMOOTH",
"585 780 LINE",
"481 780 LINE",
"481 248 LINE SMOOTH",
"481 124 OFFCURVE",
"433 80 OFFCURVE",
"324 80 CURVE SMOOTH",
"214 80 OFFCURVE",
"166 124 OFFCURVE",
"166 248 CURVE SMOOTH",
"166 780 LINE",
"62 780 LINE",
"62 243 LINE SMOOTH",
"62 62 OFFCURVE",
"141 -12 OFFCURVE",
"324 -12 CURVE SMOOTH"
);
}
);
width = 647;
}
);
leftKerningGroup = U;
rightKerningGroup = U;
unicode = 0055;
},
{
glyphname = Ugrave;
layers = (
{
layerId = "C878BE66-A124-485F-B3BE-91B1D41027C7";
paths = (
{
closed = 1;
nodes = (
"506 -12 OFFCURVE",
"585 62 OFFCURVE",
"585 243 CURVE SMOOTH",
"585 780 LINE",
"481 780 LINE",
"481 248 LINE SMOOTH",
"481 124 OFFCURVE",
"433 80 OFFCURVE",
"324 80 CURVE SMOOTH",
"214 80 OFFCURVE",
"166 124 OFFCURVE",
"166 248 CURVE SMOOTH",
"166 780 LINE",
"62 780 LINE",
"62 243 LINE SMOOTH",
"62 62 OFFCURVE",
"141 -12 OFFCURVE",
"324 -12 CURVE SMOOTH"
);
},
{
closed = 1;
nodes = (
"273 840 LINE",
"375 840 LINE",
"317 950 LINE",
"210 950 LINE"
);
}
);
width = 647;
}
);
leftKerningGroup = U;
rightKerningGroup = U;
unicode = 00D9;
},
{
glyphname = Uacute;
layers = (
{
layerId = "C878BE66-A124-485F-B3BE-91B1D41027C7";
paths = (
{
closed = 1;
nodes = (
"506 -12 OFFCURVE",
"585 62 OFFCURVE",
"585 243 CURVE SMOOTH",
"585 780 LINE",
"481 780 LINE",
"481 248 LINE SMOOTH",
"481 124 OFFCURVE",
"433 80 OFFCURVE",
"324 80 CURVE SMOOTH",
"214 80 OFFCURVE",
"166 124 OFFCURVE",
"166 248 CURVE SMOOTH",
"166 780 LINE",
"62 780 LINE",
"62 243 LINE SMOOTH",
"62 62 OFFCURVE",
"141 -12 OFFCURVE",
"324 -12 CURVE SMOOTH"
);
},
{
closed = 1;
nodes = (
"273 840 LINE",
"375 840 LINE",
"438 950 LINE",
"331 950 LINE"
);
}
);
width = 647;
}
);
leftKerningGroup = U;
rightKerningGroup = U;
unicode = 00DA;
},
{
glyphname = Ucircumflex;
layers = (
{
layerId = "C878BE66-A124-485F-B3BE-91B1D41027C7";
paths = (
{
closed = 1;
nodes = (
"506 -12 OFFCURVE",
"585 62 OFFCURVE",
"585 243 CURVE SMOOTH",
"585 780 LINE",
"481 780 LINE",
"481 248 LINE SMOOTH",
"481 124 OFFCURVE",
"433 80 OFFCURVE",
"324 80 CURVE SMOOTH",
"214 80 OFFCURVE",
"166 124 OFFCURVE",
"166 248 CURVE SMOOTH",
"166 780 LINE",
"62 780 LINE",
"62 243 LINE SMOOTH",
"62 62 OFFCURVE",
"141 -12 OFFCURVE",
"324 -12 CURVE SMOOTH"
);
},
{
closed = 1;
nodes = (
"324 897 LINE",
"390 840 LINE",
"486 840 LINE",
"373 950 LINE",
"275 950 LINE",
"162 840 LINE",
"258 840 LINE"
);
}
);
width = 647;
}
);
leftKerningGroup = U;
rightKerningGroup = U;
unicode = 00DB;
},
{
glyphname = Udieresis;
layers = (
{
layerId = "C878BE66-A124-485F-B3BE-91B1D41027C7";
paths = (
{
closed = 1;
nodes = (
"506 -12 OFFCURVE",
"585 62 OFFCURVE",
"585 243 CURVE SMOOTH",
"585 780 LINE",
"481 780 LINE",
"481 248 LINE SMOOTH",
"481 124 OFFCURVE",
"433 80 OFFCURVE",
"324 80 CURVE SMOOTH",
"214 80 OFFCURVE",
"166 124 OFFCURVE",
"166 248 CURVE SMOOTH",
"166 780 LINE",
"62 780 LINE",
"62 243 LINE SMOOTH",
"62 62 OFFCURVE",
"141 -12 OFFCURVE",
"324 -12 CURVE SMOOTH"
);
},
{
closed = 1;
nodes = (
"193 936 LINE",
"193 854 LINE",
"292 854 LINE",
"292 936 LINE"
);
},
{
closed = 1;
nodes = (
"356 936 LINE",
"356 854 LINE",
"455 854 LINE",
"455 936 LINE"
);
}
);
width = 647;
}
);
leftKerningGroup = U;
rightKerningGroup = U;
unicode = 00DC;
},
{
glyphname = Utilde;
layers = (
{
layerId = "C878BE66-A124-485F-B3BE-91B1D41027C7";
paths = (
{
closed = 1;
nodes = (
"425 910 OFFCURVE",
"409 901 OFFCURVE",
"390 901 CURVE SMOOTH",
"351 901 OFFCURVE",
"311 952 OFFCURVE",
"248 952 CURVE SMOOTH",
"199 952 OFFCURVE",
"161 924 OFFCURVE",
"161 850 CURVE",
"223 850 LINE",
"223 880 OFFCURVE",
"239 889 OFFCURVE",
"258 889 CURVE SMOOTH",
"297 889 OFFCURVE",
"337 838 OFFCURVE",
"400 838 CURVE SMOOTH",
"449 838 OFFCURVE",
"487 866 OFFCURVE",
"487 940 CURVE",
"425 940 LINE"
);
},
{
closed = 1;
nodes = (
"506 -12 OFFCURVE",
"585 62 OFFCURVE",
"585 243 CURVE SMOOTH",
"585 780 LINE",
"481 780 LINE",
"481 248 LINE SMOOTH",
"481 124 OFFCURVE",
"433 80 OFFCURVE",
"324 80 CURVE SMOOTH",
"214 80 OFFCURVE",
"166 124 OFFCURVE",
"166 248 CURVE SMOOTH",
"166 780 LINE",
"62 780 LINE",
"62 243 LINE SMOOTH",
"62 62 OFFCURVE",
"141 -12 OFFCURVE",
"324 -12 CURVE SMOOTH"
);
}
);
width = 647;
}
);
leftKerningGroup = U;
rightKerningGroup = U;
unicode = 0168;
},
{
glyphname = Umacron;
layers = (
{
layerId = "C878BE66-A124-485F-B3BE-91B1D41027C7";
paths = (
{
closed = 1;
nodes = (
"506 -12 OFFCURVE",
"585 62 OFFCURVE",
"585 243 CURVE SMOOTH",
"585 780 LINE",
"481 780 LINE",
"481 248 LINE SMOOTH",
"481 124 OFFCURVE",
"433 80 OFFCURVE",
"324 80 CURVE SMOOTH",
"214 80 OFFCURVE",
"166 124 OFFCURVE",
"166 248 CURVE SMOOTH",
"166 780 LINE",
"62 780 LINE",
"62 243 LINE SMOOTH",
"62 62 OFFCURVE",
"141 -12 OFFCURVE",
"324 -12 CURVE SMOOTH"
);
},
{
closed = 1;
nodes = (
"450 860 LINE",
"450 930 LINE",
"198 930 LINE",
"198 860 LINE"
);
}
);
width = 647;
}
);
leftKerningGroup = U;
rightKerningGroup = U;
unicode = 016A;
},
{
glyphname = Ubreve;
layers = (
{
layerId = "C878BE66-A124-485F-B3BE-91B1D41027C7";
paths = (
{
closed = 1;
nodes = (
"444 827 OFFCURVE",
"483 881 OFFCURVE",
"483 950 CURVE",
"408 950 LINE",
"408 913 OFFCURVE",
"383 890 OFFCURVE",
"324 890 CURVE SMOOTH",
"265 890 OFFCURVE",
"240 913 OFFCURVE",
"240 950 CURVE",
"165 950 LINE",
"165 881 OFFCURVE",
"204 827 OFFCURVE",
"324 827 CURVE SMOOTH"
);
},
{
closed = 1;
nodes = (
"506 -12 OFFCURVE",
"585 62 OFFCURVE",
"585 243 CURVE SMOOTH",
"585 780 LINE",
"481 780 LINE",
"481 248 LINE SMOOTH",
"481 124 OFFCURVE",
"433 80 OFFCURVE",
"324 80 CURVE SMOOTH",
"214 80 OFFCURVE",
"166 124 OFFCURVE",
"166 248 CURVE SMOOTH",
"166 780 LINE",
"62 780 LINE",
"62 243 LINE SMOOTH",
"62 62 OFFCURVE",
"141 -12 OFFCURVE",
"324 -12 CURVE SMOOTH"
);
}
);
width = 647;
}
);
leftKerningGroup = U;
rightKerningGroup = U;
unicode = 016C;
},
{
glyphname = Uring;
layers = (
{
layerId = "C878BE66-A124-485F-B3BE-91B1D41027C7";
paths = (
{
closed = 1;
nodes = (
"506 -12 OFFCURVE",
"585 62 OFFCURVE",
"585 243 CURVE SMOOTH",
"585 780 LINE",
"481 780 LINE",
"481 248 LINE SMOOTH",
"481 124 OFFCURVE",
"433 80 OFFCURVE",
"324 80 CURVE SMOOTH",
"214 80 OFFCURVE",
"166 124 OFFCURVE",
"166 248 CURVE SMOOTH",
"166 780 LINE",
"62 780 LINE",
"62 243 LINE SMOOTH",
"62 62 OFFCURVE",
"141 -12 OFFCURVE",
"324 -12 CURVE SMOOTH"
);
},
{
closed = 1;
nodes = (
"226 809 OFFCURVE",
"270 765 OFFCURVE",
"324 765 CURVE SMOOTH",
"378 765 OFFCURVE",
"422 809 OFFCURVE",
"422 864 CURVE SMOOTH",
"422 918 OFFCURVE",
"378 962 OFFCURVE",
"324 962 CURVE SMOOTH",
"270 962 OFFCURVE",
"226 918 OFFCURVE",
"226 864 CURVE SMOOTH"
);
},
{
closed = 1;
nodes = (
"270 893 OFFCURVE",
"294 918 OFFCURVE",
"324 918 CURVE SMOOTH",
"354 918 OFFCURVE",
"378 893 OFFCURVE",
"378 864 CURVE SMOOTH",
"378 834 OFFCURVE",
"354 809 OFFCURVE",
"324 809 CURVE SMOOTH",
"294 809 OFFCURVE",
"270 834 OFFCURVE",
"270 864 CURVE SMOOTH"
);
}
);
width = 647;
}
);
leftKerningGroup = U;
rightKerningGroup = U;
unicode = 016E;
},
{
glyphname = Uhungarumlaut;
layers = (
{
layerId = "C878BE66-A124-485F-B3BE-91B1D41027C7";
paths = (
{
closed = 1;
nodes = (
"506 -12 OFFCURVE",
"585 62 OFFCURVE",
"585 243 CURVE SMOOTH",
"585 780 LINE",
"481 780 LINE",
"481 248 LINE SMOOTH",
"481 124 OFFCURVE",
"433 80 OFFCURVE",
"324 80 CURVE SMOOTH",
"214 80 OFFCURVE",
"166 124 OFFCURVE",
"166 248 CURVE SMOOTH",
"166 780 LINE",
"62 780 LINE",
"62 243 LINE SMOOTH",
"62 62 OFFCURVE",
"141 -12 OFFCURVE",
"324 -12 CURVE SMOOTH"
);
},
{
closed = 1;
nodes = (
"347 840 LINE",
"441 840 LINE",
"503 950 LINE",
"405 950 LINE"
);
},
{
closed = 1;
nodes = (
"207 840 LINE",
"301 840 LINE",
"359 950 LINE",
"261 950 LINE"
);
}
);
width = 647;
}
);
leftKerningGroup = U;
rightKerningGroup = U;
unicode = 0170;
},
{
glyphname = Uogonek;
layers = (
{
layerId = "C878BE66-A124-485F-B3BE-91B1D41027C7";
paths = (
{
closed = 1;
nodes = (
"356 -48 OFFCURVE",
"390 -11 OFFCURVE",
"432 0 CURVE SMOOTH",
"537 28 OFFCURVE",
"585 101 OFFCURVE",
"585 243 CURVE SMOOTH",
"585 780 LINE",
"481 780 LINE",
"481 248 LINE SMOOTH",
"481 124 OFFCURVE",
"433 80 OFFCURVE",
"324 80 CURVE SMOOTH",
"214 80 OFFCURVE",
"166 124 OFFCURVE",
"166 248 CURVE SMOOTH",
"166 780 LINE",
"62 780 LINE",
"62 243 LINE SMOOTH",
"62 65 OFFCURVE",
"138 -9 OFFCURVE",
"313 -12 CURVE",
"290 -38 OFFCURVE",
"275 -71 OFFCURVE",
"275 -111 CURVE SMOOTH",
"275 -181 OFFCURVE",
"323 -213 OFFCURVE",
"394 -213 CURVE SMOOTH",
"429 -213 OFFCURVE",
"466 -204 OFFCURVE",
"487 -191 CURVE",
"462 -123 LINE",
"450 -130 OFFCURVE",
"430 -136 OFFCURVE",
"407 -136 CURVE SMOOTH",
"374 -136 OFFCURVE",
"356 -117 OFFCURVE",
"356 -91 CURVE SMOOTH"
);
}
);
width = 647;
}
);
leftKerningGroup = U;
rightKerningGroup = U;
unicode = 0172;
},
{
glyphname = V;
layers = (
{
layerId = "C878BE66-A124-485F-B3BE-91B1D41027C7";
paths = (
{
closed = 1;
nodes = (
"598 780 LINE",
"486 780 LINE",
"311 111 LINE",
"135 780 LINE",
"23 780 LINE",
"238 -6 LINE",
"383 -6 LINE"
);
}
);
width = 621;
}
);
unicode = 0056;
},
{
glyphname = W;
layers = (
{
layerId = "C878BE66-A124-485F-B3BE-91B1D41027C7";
paths = (
{
closed = 1;
nodes = (
"737 -6 LINE",
"877 780 LINE",
"768 780 LINE",
"663 130 LINE",
"522 780 LINE",
"388 780 LINE",
"247 130 LINE",
"142 780 LINE",
"33 780 LINE",
"173 -6 LINE",
"310 -6 LINE",
"455 664 LINE",
"600 -6 LINE"
);
}
);
width = 910;
}
);
leftKerningGroup = W;
rightKerningGroup = W;
unicode = 0057;
},
{
glyphname = Wcircumflex;
layers = (
{
layerId = "C878BE66-A124-485F-B3BE-91B1D41027C7";
paths = (
{
closed = 1;
nodes = (
"737 -6 LINE",
"877 780 LINE",
"768 780 LINE",
"663 130 LINE",
"522 780 LINE",
"388 780 LINE",
"247 130 LINE",
"142 780 LINE",
"33 780 LINE",
"173 -6 LINE",
"310 -6 LINE",
"455 664 LINE",
"600 -6 LINE"
);
},
{
closed = 1;
nodes = (
"455 897 LINE",
"521 840 LINE",
"617 840 LINE",
"504 950 LINE",
"406 950 LINE",
"293 840 LINE",
"389 840 LINE"
);
}
);
width = 910;
}
);
leftKerningGroup = W;
rightKerningGroup = W;
unicode = 0174;
},
{
glyphname = Wgrave;
layers = (
{
layerId = "C878BE66-A124-485F-B3BE-91B1D41027C7";
paths = (
{
closed = 1;
nodes = (
"737 -6 LINE",
"877 780 LINE",
"768 780 LINE",
"663 130 LINE",
"522 780 LINE",
"388 780 LINE",
"247 130 LINE",
"142 780 LINE",
"33 780 LINE",
"173 -6 LINE",
"310 -6 LINE",
"455 664 LINE",
"600 -6 LINE"
);
},
{
closed = 1;
nodes = (
"404 840 LINE",
"506 840 LINE",
"448 950 LINE",
"341 950 LINE"
);
}
);
width = 910;
}
);
leftKerningGroup = W;
rightKerningGroup = W;
unicode = 1E80;
},
{
glyphname = Wacute;
layers = (
{
layerId = "C878BE66-A124-485F-B3BE-91B1D41027C7";
paths = (
{
closed = 1;
nodes = (
"737 -6 LINE",
"877 780 LINE",
"768 780 LINE",
"663 130 LINE",
"522 780 LINE",
"388 780 LINE",
"247 130 LINE",
"142 780 LINE",
"33 780 LINE",
"173 -6 LINE",
"310 -6 LINE",
"455 664 LINE",
"600 -6 LINE"
);
},
{
closed = 1;
nodes = (
"404 840 LINE",
"506 840 LINE",
"569 950 LINE",
"462 950 LINE"
);
}
);
width = 910;
}
);
leftKerningGroup = W;
rightKerningGroup = W;
unicode = 1E82;
},
{
glyphname = Wdieresis;
layers = (
{
layerId = "C878BE66-A124-485F-B3BE-91B1D41027C7";
paths = (
{
closed = 1;
nodes = (
"737 -6 LINE",
"877 780 LINE",
"768 780 LINE",
"663 130 LINE",
"522 780 LINE",
"388 780 LINE",
"247 130 LINE",
"142 780 LINE",
"33 780 LINE",
"173 -6 LINE",
"310 -6 LINE",
"455 664 LINE",
"600 -6 LINE"
);
},
{
closed = 1;
nodes = (
"324 936 LINE",
"324 854 LINE",
"423 854 LINE",
"423 936 LINE"
);
},
{
closed = 1;
nodes = (
"487 936 LINE",
"487 854 LINE",
"586 854 LINE",
"586 936 LINE"
);
}
);
width = 910;
}
);
leftKerningGroup = W;
rightKerningGroup = W;
unicode = 1E84;
},
{
glyphname = X;
layers = (
{
layerId = "C878BE66-A124-485F-B3BE-91B1D41027C7";
paths = (
{
closed = 1;
nodes = (
"144 0 LINE",
"313 329 LINE",
"482 0 LINE",
"599 0 LINE",
"386 401 LINE",
"599 780 LINE",
"478 780 LINE",
"313 476 LINE",
"148 780 LINE",
"26 780 LINE",
"239 402 LINE",
"26 0 LINE"
);
}
);
width = 626;
}
);
unicode = 0058;
},
{
glyphname = Y;
layers = (
{
layerId = "C878BE66-A124-485F-B3BE-91B1D41027C7";
paths = (
{
closed = 1;
nodes = (
"578 780 LINE",
"465 780 LINE",
"297 366 LINE",
"129 780 LINE",
"16 780 LINE",
"245 237 LINE",
"245 0 LINE",
"349 0 LINE",
"349 237 LINE"
);
}
);
width = 594;
}
);
leftKerningGroup = Y;
rightKerningGroup = Y;
unicode = 0059;
},
{
glyphname = Yacute;
layers = (
{
layerId = "C878BE66-A124-485F-B3BE-91B1D41027C7";
paths = (
{
closed = 1;
nodes = (
"578 780 LINE",
"465 780 LINE",
"297 366 LINE",
"129 780 LINE",
"16 780 LINE",
"245 237 LINE",
"245 0 LINE",
"349 0 LINE",
"349 237 LINE"
);
},
{
closed = 1;
nodes = (
"246 840 LINE",
"348 840 LINE",
"411 950 LINE",
"304 950 LINE"
);
}
);
width = 594;
}
);
leftKerningGroup = Y;
rightKerningGroup = Y;
unicode = 00DD;
},
{
glyphname = Ycircumflex;
layers = (
{
layerId = "C878BE66-A124-485F-B3BE-91B1D41027C7";
paths = (
{
closed = 1;
nodes = (
"578 780 LINE",
"465 780 LINE",
"297 366 LINE",
"129 780 LINE",
"16 780 LINE",
"245 237 LINE",
"245 0 LINE",
"349 0 LINE",
"349 237 LINE"
);
},
{
closed = 1;
nodes = (
"297 897 LINE",
"363 840 LINE",
"459 840 LINE",
"346 950 LINE",
"248 950 LINE",
"135 840 LINE",
"231 840 LINE"
);
}
);
width = 594;
}
);
leftKerningGroup = Y;
rightKerningGroup = Y;
unicode = 0176;
},
{
glyphname = Ydieresis;
layers = (
{
layerId = "C878BE66-A124-485F-B3BE-91B1D41027C7";
paths = (
{
closed = 1;
nodes = (
"578 780 LINE",
"465 780 LINE",
"297 366 LINE",
"129 780 LINE",
"16 780 LINE",
"245 237 LINE",
"245 0 LINE",
"349 0 LINE",
"349 237 LINE"
);
},
{
closed = 1;
nodes = (
"329 936 LINE",
"329 854 LINE",
"428 854 LINE",
"428 936 LINE"
);
},
{
closed = 1;
nodes = (
"166 936 LINE",
"166 854 LINE",
"265 854 LINE",
"265 936 LINE"
);
}
);
width = 594;
}
);
leftKerningGroup = Y;
rightKerningGroup = Y;
unicode = 0178;
},
{
glyphname = Ymacron;
layers = (
{
layerId = "C878BE66-A124-485F-B3BE-91B1D41027C7";
paths = (
{
closed = 1;
nodes = (
"578 780 LINE",
"465 780 LINE",
"297 366 LINE",
"129 780 LINE",
"16 780 LINE",
"245 237 LINE",
"245 0 LINE",
"349 0 LINE",
"349 237 LINE"
);
},
{
closed = 1;
nodes = (
"423 860 LINE",
"423 930 LINE",
"171 930 LINE",
"171 860 LINE"
);
}
);
width = 594;
}
);
leftKerningGroup = Y;
rightKerningGroup = Y;
unicode = 0232;
},
{
glyphname = Ygrave;
layers = (
{
layerId = "C878BE66-A124-485F-B3BE-91B1D41027C7";
paths = (
{
closed = 1;
nodes = (
"578 780 LINE",
"465 780 LINE",
"297 366 LINE",
"129 780 LINE",
"16 780 LINE",
"245 237 LINE",
"245 0 LINE",
"349 0 LINE",
"349 237 LINE"
);
},
{
closed = 1;
nodes = (
"246 840 LINE",
"348 840 LINE",
"290 950 LINE",
"183 950 LINE"
);
}
);
width = 594;
}
);
leftKerningGroup = Y;
rightKerningGroup = Y;
unicode = 1EF2;
},
{
glyphname = Z;
layers = (
{
layerId = "C878BE66-A124-485F-B3BE-91B1D41027C7";
paths = (
{
closed = 1;
nodes = (
"40 0 LINE",
"535 0 LINE",
"535 92 LINE",
"299 92 LINE",
"167 89 LINE",
"525 708 LINE",
"525 780 LINE",
"50 780 LINE",
"50 688 LINE",
"266 688 LINE",
"398 691 LINE",
"40 72 LINE"
);
}
);
width = 575;
}
);
rightKerningGroup = Z;
unicode = 005A;
},
{
glyphname = Zacute;
layers = (
{
layerId = "C878BE66-A124-485F-B3BE-91B1D41027C7";
paths = (
{
closed = 1;
nodes = (
"235 840 LINE",
"337 840 LINE",
"400 950 LINE",
"293 950 LINE"
);
},
{
closed = 1;
nodes = (
"40 0 LINE",
"535 0 LINE",
"535 92 LINE",
"299 92 LINE",
"167 89 LINE",
"525 708 LINE",
"525 780 LINE",
"50 780 LINE",
"50 688 LINE",
"266 688 LINE",
"398 691 LINE",
"40 72 LINE"
);
}
);
width = 575;
}
);
rightKerningGroup = Z;
unicode = 0179;
},
{
glyphname = Zdotaccent;
layers = (
{
layerId = "C878BE66-A124-485F-B3BE-91B1D41027C7";
paths = (
{
closed = 1;
nodes = (
"237 936 LINE",
"237 854 LINE",
"335 854 LINE",
"335 936 LINE"
);
},
{
closed = 1;
nodes = (
"40 0 LINE",
"535 0 LINE",
"535 92 LINE",
"299 92 LINE",
"167 89 LINE",
"525 708 LINE",
"525 780 LINE",
"50 780 LINE",
"50 688 LINE",
"266 688 LINE",
"398 691 LINE",
"40 72 LINE"
);
}
);
width = 575;
}
);
rightKerningGroup = Z;
unicode = 017B;
},
{
glyphname = Zcaron;
layers = (
{
layerId = "C878BE66-A124-485F-B3BE-91B1D41027C7";
paths = (
{
closed = 1;
nodes = (
"237 840 LINE",
"335 840 LINE",
"448 950 LINE",
"352 950 LINE",
"286 892 LINE",
"220 950 LINE",
"124 950 LINE"
);
},
{
closed = 1;
nodes = (
"40 0 LINE",
"535 0 LINE",
"535 92 LINE",
"299 92 LINE",
"167 89 LINE",
"525 708 LINE",
"525 780 LINE",
"50 780 LINE",
"50 688 LINE",
"266 688 LINE",
"398 691 LINE",
"40 72 LINE"
);
}
);
width = 575;
}
);
rightKerningGroup = Z;
unicode = 017D;
},
{
glyphname = AE;
layers = (
{
layerId = "C878BE66-A124-485F-B3BE-91B1D41027C7";
paths = (
{
closed = 1;
nodes = (
"15 0 LINE",
"127 0 LINE",
"194 194 LINE",
"419 194 LINE",
"444 0 LINE",
"814 0 LINE",
"814 92 LINE",
"541 92 LINE",
"504 352 LINE",
"764 352 LINE",
"764 444 LINE",
"491 444 LINE",
"456 688 LINE",
"814 688 LINE",
"814 780 LINE",
"299 780 LINE"
);
},
{
closed = 1;
nodes = (
"407 286 LINE",
"226 286 LINE",
"358 664 LINE"
);
}
);
width = 854;
}
);
unicode = 00C6;
},
{
glyphname = Eth;
layers = (
{
layerId = "C878BE66-A124-485F-B3BE-91B1D41027C7";
paths = (
{
closed = 1;
nodes = (
"127 352 LINE",
"127 0 LINE",
"346 0 LINE SMOOTH",
"551 0 OFFCURVE",
"657 100 OFFCURVE",
"657 370 CURVE SMOOTH",
"657 410 LINE SMOOTH",
"657 680 OFFCURVE",
"551 780 OFFCURVE",
"346 780 CURVE SMOOTH",
"127 780 LINE",
"127 444 LINE",
"16 444 LINE",
"16 352 LINE"
);
},
{
closed = 1;
nodes = (
"339 688 LINE SMOOTH",
"483 688 OFFCURVE",
"550 608 OFFCURVE",
"550 410 CURVE SMOOTH",
"550 370 LINE SMOOTH",
"550 172 OFFCURVE",
"483 92 OFFCURVE",
"339 92 CURVE SMOOTH",
"231 92 LINE",
"231 352 LINE",
"427 352 LINE",
"427 444 LINE",
"231 444 LINE",
"231 688 LINE"
);
}
);
width = 707;
}
);
rightKerningGroup = D;
unicode = 00D0;
},
{
glyphname = Oslash;
layers = (
{
layerId = "C878BE66-A124-485F-B3BE-91B1D41027C7";
paths = (
{
closed = 1;
nodes = (
"50 370 LINE SMOOTH",
"50 247 OFFCURVE",
"69 157 OFFCURVE",
"107 95 CURVE",
"48 0 LINE",
"121 0 LINE",
"149 45 LINE",
"193 6 OFFCURVE",
"253 -12 OFFCURVE",
"329 -12 CURVE SMOOTH",
"516 -12 OFFCURVE",
"607 100 OFFCURVE",
"607 370 CURVE SMOOTH",
"607 410 LINE SMOOTH",
"607 536 OFFCURVE",
"587 627 OFFCURVE",
"547 689 CURVE",
"603 780 LINE",
"531 780 LINE",
"505 737 LINE",
"461 775 OFFCURVE",
"402 792 OFFCURVE",
"329 792 CURVE SMOOTH",
"141 792 OFFCURVE",
"50 680 OFFCURVE",
"50 410 CURVE SMOOTH"
);
},
{
closed = 1;
nodes = (
"500 370 LINE SMOOTH",
"500 172 OFFCURVE",
"452 80 OFFCURVE",
"332 80 CURVE SMOOTH",
"325 80 LINE SMOOTH",
"271 80 OFFCURVE",
"232 98 OFFCURVE",
"205 136 CURVE",
"480 582 LINE",
"494 537 OFFCURVE",
"500 480 OFFCURVE",
"500 410 CURVE SMOOTH"
);
},
{
closed = 1;
nodes = (
"157 410 LINE SMOOTH",
"157 608 OFFCURVE",
"205 700 OFFCURVE",
"325 700 CURVE SMOOTH",
"332 700 LINE SMOOTH",
"383 700 OFFCURVE",
"422 683 OFFCURVE",
"449 647 CURVE",
"174 204 LINE",
"162 248 OFFCURVE",
"157 303 OFFCURVE",
"157 370 CURVE SMOOTH"
);
}
);
width = 649;
}
);
leftKerningGroup = O;
rightKerningGroup = O;
unicode = 00D8;
},
{
glyphname = Thorn;
layers = (
{
layerId = "C878BE66-A124-485F-B3BE-91B1D41027C7";
paths = (
{
closed = 1;
nodes = (
"67 780 LINE",
"67 0 LINE",
"171 0 LINE",
"171 152 LINE",
"298 152 LINE SMOOTH",
"415 152 OFFCURVE",
"548 190 OFFCURVE",
"548 380 CURVE SMOOTH",
"548 400 LINE SMOOTH",
"548 590 OFFCURVE",
"415 628 OFFCURVE",
"298 628 CURVE SMOOTH",
"171 628 LINE",
"171 780 LINE"
);
},
{
closed = 1;
nodes = (
"171 536 LINE",
"301 536 LINE SMOOTH",
"361 536 OFFCURVE",
"442 514 OFFCURVE",
"442 396 CURVE SMOOTH",
"442 384 LINE SMOOTH",
"442 266 OFFCURVE",
"361 244 OFFCURVE",
"301 244 CURVE SMOOTH",
"171 244 LINE"
);
}
);
width = 586;
}
);
unicode = 00DE;
},
{
glyphname = Dcroat;
layers = (
{
layerId = "C878BE66-A124-485F-B3BE-91B1D41027C7";
paths = (
{
closed = 1;
nodes = (
"127 352 LINE",
"127 0 LINE",
"346 0 LINE SMOOTH",
"551 0 OFFCURVE",
"657 100 OFFCURVE",
"657 370 CURVE SMOOTH",
"657 410 LINE SMOOTH",
"657 680 OFFCURVE",
"551 780 OFFCURVE",
"346 780 CURVE SMOOTH",
"127 780 LINE",
"127 444 LINE",
"16 444 LINE",
"16 352 LINE"
);
},
{
closed = 1;
nodes = (
"339 688 LINE SMOOTH",
"483 688 OFFCURVE",
"550 608 OFFCURVE",
"550 410 CURVE SMOOTH",
"550 370 LINE SMOOTH",
"550 172 OFFCURVE",
"483 92 OFFCURVE",
"339 92 CURVE SMOOTH",
"231 92 LINE",
"231 352 LINE",
"427 352 LINE",
"427 444 LINE",
"231 444 LINE",
"231 688 LINE"
);
}
);
width = 707;
}
);
rightKerningGroup = D;
unicode = 0110;
},
{
glyphname = Hbar;
layers = (
{
layerId = "C878BE66-A124-485F-B3BE-91B1D41027C7";
paths = (
{
closed = 1;
nodes = (
"476 655 LINE",
"171 655 LINE",
"171 780 LINE",
"67 780 LINE",
"67 0 LINE",
"171 0 LINE",
"171 352 LINE",
"476 352 LINE",
"476 0 LINE",
"580 0 LINE",
"580 780 LINE",
"476 780 LINE"
);
},
{
closed = 1;
nodes = (
"171 571 LINE",
"476 571 LINE",
"476 444 LINE",
"171 444 LINE"
);
}
);
width = 647;
}
);
unicode = 0126;
},
{
glyphname = IJ;
layers = (
{
layerId = "C878BE66-A124-485F-B3BE-91B1D41027C7";
paths = (
{
closed = 1;
nodes = (
"371 103 OFFCURVE",
"342 80 OFFCURVE",
"283 80 CURVE SMOOTH",
"264 80 OFFCURVE",
"237 86 OFFCURVE",
"228 90 CURVE",
"228 2 LINE",
"236 -3 OFFCURVE",
"264 -12 OFFCURVE",
"310 -12 CURVE SMOOTH",
"406 -12 OFFCURVE",
"475 38 OFFCURVE",
"475 169 CURVE SMOOTH",
"475 780 LINE",
"371 780 LINE",
"371 181 LINE SMOOTH"
);
},
{
closed = 1;
nodes = (
"72 780 LINE",
"72 0 LINE",
"176 0 LINE",
"176 780 LINE"
);
}
);
width = 537;
}
);
unicode = 0132;
},
{
glyphname = Ldot;
layers = (
{
layerId = "C878BE66-A124-485F-B3BE-91B1D41027C7";
paths = (
{
closed = 1;
nodes = (
"486 92 LINE",
"171 92 LINE",
"171 780 LINE",
"67 780 LINE",
"67 0 LINE",
"486 0 LINE"
);
},
{
closed = 1;
nodes = (
"308 456 LINE",
"308 340 LINE",
"423 340 LINE",
"423 456 LINE"
);
}
);
width = 501;
}
);
rightKerningGroup = L;
unicode = 013F;
},
{
glyphname = Lslash;
layers = (
{
layerId = "C878BE66-A124-485F-B3BE-91B1D41027C7";
paths = (
{
closed = 1;
nodes = (
"127 294 LINE",
"127 0 LINE",
"546 0 LINE",
"546 92 LINE",
"231 92 LINE",
"231 347 LINE",
"436 451 LINE",
"436 542 LINE",
"231 438 LINE",
"231 780 LINE",
"127 780 LINE",
"127 385 LINE",
"16 329 LINE",
"16 238 LINE"
);
}
);
width = 561;
}
);
rightKerningGroup = L;
unicode = 0141;
},
{
glyphname = Eng;
layers = (
{
layerId = "C878BE66-A124-485F-B3BE-91B1D41027C7";
paths = (
{
closed = 1;
nodes = (
"498 -105 OFFCURVE",
"465 -123 OFFCURVE",
"405 -123 CURVE SMOOTH",
"384 -123 OFFCURVE",
"358 -118 OFFCURVE",
"351 -115 CURVE",
"351 -200 LINE",
"359 -204 OFFCURVE",
"385 -212 OFFCURVE",
"429 -212 CURVE SMOOTH",
"529 -212 OFFCURVE",
"600 -166 OFFCURVE",
"600 -39 CURVE SMOOTH",
"600 780 LINE",
"501 780 LINE",
"501 357 LINE",
"505 184 LINE",
"178 780 LINE",
"67 780 LINE",
"67 0 LINE",
"166 0 LINE",
"166 423 LINE",
"162 596 LINE",
"498 -19 LINE",
"498 -28 LINE SMOOTH"
);
}
);
width = 667;
}
);
unicode = 014A;
},
{
glyphname = OE;
layers = (
{
layerId = "C878BE66-A124-485F-B3BE-91B1D41027C7";
paths = (
{
closed = 1;
nodes = (
"50 370 LINE SMOOTH",
"50 100 OFFCURVE",
"157 0 OFFCURVE",
"361 0 CURVE SMOOTH",
"900 0 LINE",
"900 92 LINE",
"554 92 LINE",
"554 352 LINE",
"850 352 LINE",
"850 444 LINE",
"554 444 LINE",
"554 688 LINE",
"900 688 LINE",
"900 780 LINE",
"361 780 LINE SMOOTH",
"157 780 OFFCURVE",
"50 680 OFFCURVE",
"50 410 CURVE SMOOTH"
);
},
{
closed = 1;
nodes = (
"450 92 LINE",
"369 92 LINE SMOOTH",
"224 92 OFFCURVE",
"157 172 OFFCURVE",
"157 370 CURVE SMOOTH",
"157 410 LINE SMOOTH",
"157 608 OFFCURVE",
"224 688 OFFCURVE",
"369 688 CURVE SMOOTH",
"450 688 LINE"
);
}
);
width = 940;
}
);
unicode = 0152;
},
{
glyphname = Tbar;
layers = (
{
layerId = "C878BE66-A124-485F-B3BE-91B1D41027C7";
paths = (
{
closed = 1;
nodes = (
"509 688 LINE",
"509 780 LINE",
"21 780 LINE",
"21 688 LINE",
"213 688 LINE",
"213 444 LINE",
"91 444 LINE",
"91 352 LINE",
"213 352 LINE",
"213 0 LINE",
"317 0 LINE",
"317 352 LINE",
"438 352 LINE",
"438 444 LINE",
"317 444 LINE",
"317 688 LINE"
);
}
);
width = 530;
}
);
leftKerningGroup = T;
rightKerningGroup = T;
unicode = 0166;
},
{
glyphname = Eszett;
layers = (
{
layerId = "C878BE66-A124-485F-B3BE-91B1D41027C7";
paths = (
{
closed = 1;
nodes = (
"305 375 LINE",
"473 354 LINE SMOOTH",
"582 341 OFFCURVE",
"636 296 OFFCURVE",
"636 217 CURVE SMOOTH",
"636 209 LINE SMOOTH",
"636 126 OFFCURVE",
"584 80 OFFCURVE",
"508 80 CURVE SMOOTH",
"500 80 LINE SMOOTH",
"424 80 OFFCURVE",
"367 126 OFFCURVE",
"367 259 CURVE",
"263 259 LINE",
"263 249 LINE SMOOTH",
"263 66 OFFCURVE",
"343 -12 OFFCURVE",
"503 -12 CURVE SMOOTH",
"654 -12 OFFCURVE",
"743 72 OFFCURVE",
"743 214 CURVE SMOOTH",
"743 225 LINE SMOOTH",
"743 353 OFFCURVE",
"661 421 OFFCURVE",
"497 443 CURVE SMOOTH",
"427 452 LINE",
"565 681 LINE",
"565 753 LINE",
"511 779 OFFCURVE",
"442 792 OFFCURVE",
"366 792 CURVE SMOOTH",
"174 792 OFFCURVE",
"62 718 OFFCURVE",
"62 537 CURVE SMOOTH",
"62 0 LINE",
"166 0 LINE",
"166 532 LINE SMOOTH",
"166 656 OFFCURVE",
"245 700 OFFCURVE",
"366 700 CURVE SMOOTH",
"395 700 OFFCURVE",
"425 697 OFFCURVE",
"452 691 CURVE",
"305 447 LINE"
);
}
);
width = 774;
}
);
unicode = 1E9E;
},
{
glyphname = a;
lastChange = "2019-12-29 03:43:57 +0000";
layers = (
{
layerId = "C878BE66-A124-485F-B3BE-91B1D41027C7";
paths = (
{
closed = 1;
nodes = (
"473 0 LINE",
"466 150 LINE",
"466 343 LINE SMOOTH",
"466 463 OFFCURVE",
"418 542 OFFCURVE",
"263 542 CURVE SMOOTH",
"100 542 OFFCURVE",
"60 448 OFFCURVE",
"60 364 CURVE SMOOTH",
"60 355 LINE",
"155 355 LINE",
"155 412 OFFCURVE",
"175 462 OFFCURVE",
"260 462 CURVE SMOOTH",
"341 462 OFFCURVE",
"366 422 OFFCURVE",
"366 343 CURVE SMOOTH",
"366 335 LINE",
"219 312 LINE SMOOTH",
"124 298 OFFCURVE",
"40 263 OFFCURVE",
"40 148 CURVE SMOOTH",
"40 138 LINE SMOOTH",
"40 53 OFFCURVE",
"91 -12 OFFCURVE",
"196 -12 CURVE SMOOTH",
"282 -12 OFFCURVE",
"340 23 OFFCURVE",
"376 68 CURVE",
"386 0 LINE"
);
},
{
closed = 1;
nodes = (
"165 72 OFFCURVE",
"139 110 OFFCURVE",
"139 150 CURVE SMOOTH",
"139 158 LINE SMOOTH",
"139 208 OFFCURVE",
"172 238 OFFCURVE",
"234 248 CURVE SMOOTH",
"366 270 LINE",
"366 141 LINE",
"348 114 OFFCURVE",
"307 72 OFFCURVE",
"228 72 CURVE SMOOTH"
);
}
);
width = 525;
}
);
leftKerningGroup = a;
rightKerningGroup = a;
unicode = 0061;
},
{
glyphname = agrave;
layers = (
{
layerId = "C878BE66-A124-485F-B3BE-91B1D41027C7";
paths = (
{
closed = 1;
nodes = (
"473 0 LINE",
"466 150 LINE",
"466 343 LINE SMOOTH",
"466 463 OFFCURVE",
"418 542 OFFCURVE",
"263 542 CURVE SMOOTH",
"100 542 OFFCURVE",
"60 448 OFFCURVE",
"60 364 CURVE SMOOTH",
"60 355 LINE",
"155 355 LINE",
"155 412 OFFCURVE",
"175 462 OFFCURVE",
"260 462 CURVE SMOOTH",
"341 462 OFFCURVE",
"366 422 OFFCURVE",
"366 343 CURVE SMOOTH",
"366 335 LINE",
"219 312 LINE SMOOTH",
"124 298 OFFCURVE",
"40 263 OFFCURVE",
"40 148 CURVE SMOOTH",
"40 138 LINE SMOOTH",
"40 53 OFFCURVE",
"91 -12 OFFCURVE",
"196 -12 CURVE SMOOTH",
"282 -12 OFFCURVE",
"340 23 OFFCURVE",
"376 68 CURVE",
"386 0 LINE"
);
},
{
closed = 1;
nodes = (
"165 72 OFFCURVE",
"139 110 OFFCURVE",
"139 150 CURVE SMOOTH",
"139 158 LINE SMOOTH",
"139 208 OFFCURVE",
"172 238 OFFCURVE",
"234 248 CURVE SMOOTH",
"366 270 LINE",
"366 141 LINE",
"348 114 OFFCURVE",
"307 72 OFFCURVE",
"228 72 CURVE SMOOTH"
);
},
{
closed = 1;
nodes = (
"212 607 LINE",
"314 607 LINE",
"223 780 LINE",
"113 780 LINE"
);
}
);
width = 525;
}
);
leftKerningGroup = a;
rightKerningGroup = a;
unicode = 00E0;
},
{
glyphname = aacute;
layers = (
{
layerId = "C878BE66-A124-485F-B3BE-91B1D41027C7";
paths = (
{
closed = 1;
nodes = (
"473 0 LINE",
"466 150 LINE",
"466 343 LINE SMOOTH",
"466 463 OFFCURVE",
"418 542 OFFCURVE",
"263 542 CURVE SMOOTH",
"100 542 OFFCURVE",
"60 448 OFFCURVE",
"60 364 CURVE SMOOTH",
"60 355 LINE",
"155 355 LINE",
"155 412 OFFCURVE",
"175 462 OFFCURVE",
"260 462 CURVE SMOOTH",
"341 462 OFFCURVE",
"366 422 OFFCURVE",
"366 343 CURVE SMOOTH",
"366 335 LINE",
"219 312 LINE SMOOTH",
"124 298 OFFCURVE",
"40 263 OFFCURVE",
"40 148 CURVE SMOOTH",
"40 138 LINE SMOOTH",
"40 53 OFFCURVE",
"91 -12 OFFCURVE",
"196 -12 CURVE SMOOTH",
"282 -12 OFFCURVE",
"340 23 OFFCURVE",
"376 68 CURVE",
"386 0 LINE"
);
},
{
closed = 1;
nodes = (
"165 72 OFFCURVE",
"139 110 OFFCURVE",
"139 150 CURVE SMOOTH",
"139 158 LINE SMOOTH",
"139 208 OFFCURVE",
"172 238 OFFCURVE",
"234 248 CURVE SMOOTH",
"366 270 LINE",
"366 141 LINE",
"348 114 OFFCURVE",
"307 72 OFFCURVE",
"228 72 CURVE SMOOTH"
);
},
{
closed = 1;
nodes = (
"212 607 LINE",
"314 607 LINE",
"413 780 LINE",
"303 780 LINE"
);
}
);
width = 525;
}
);
leftKerningGroup = a;
rightKerningGroup = a;
unicode = 00E1;
},
{
glyphname = acircumflex;
layers = (
{
layerId = "C878BE66-A124-485F-B3BE-91B1D41027C7";
paths = (
{
closed = 1;
nodes = (
"473 0 LINE",
"466 150 LINE",
"466 343 LINE SMOOTH",
"466 463 OFFCURVE",
"418 542 OFFCURVE",
"263 542 CURVE SMOOTH",
"100 542 OFFCURVE",
"60 448 OFFCURVE",
"60 364 CURVE SMOOTH",
"60 355 LINE",
"155 355 LINE",
"155 412 OFFCURVE",
"175 462 OFFCURVE",
"260 462 CURVE SMOOTH",
"341 462 OFFCURVE",
"366 422 OFFCURVE",
"366 343 CURVE SMOOTH",
"366 335 LINE",
"219 312 LINE SMOOTH",
"124 298 OFFCURVE",
"40 263 OFFCURVE",
"40 148 CURVE SMOOTH",
"40 138 LINE SMOOTH",
"40 53 OFFCURVE",
"91 -12 OFFCURVE",
"196 -12 CURVE SMOOTH",
"282 -12 OFFCURVE",
"340 23 OFFCURVE",
"376 68 CURVE",
"386 0 LINE"
);
},
{
closed = 1;
nodes = (
"165 72 OFFCURVE",
"139 110 OFFCURVE",
"139 150 CURVE SMOOTH",
"139 158 LINE SMOOTH",
"139 208 OFFCURVE",
"172 238 OFFCURVE",
"234 248 CURVE SMOOTH",
"366 270 LINE",
"366 141 LINE",
"348 114 OFFCURVE",
"307 72 OFFCURVE",
"228 72 CURVE SMOOTH"
);
},
{
closed = 1;
nodes = (
"263 709 LINE",
"348 607 LINE",
"442 607 LINE",
"310 780 LINE",
"216 780 LINE",
"84 607 LINE",
"178 607 LINE"
);
}
);
width = 525;
}
);
leftKerningGroup = a;
rightKerningGroup = a;
unicode = 00E2;
},
{
glyphname = atilde;
layers = (
{
layerId = "C878BE66-A124-485F-B3BE-91B1D41027C7";
paths = (
{
closed = 1;
nodes = (
"473 0 LINE",
"466 150 LINE",
"466 343 LINE SMOOTH",
"466 463 OFFCURVE",
"418 542 OFFCURVE",
"263 542 CURVE SMOOTH",
"100 542 OFFCURVE",
"60 448 OFFCURVE",
"60 364 CURVE SMOOTH",
"60 355 LINE",
"155 355 LINE",
"155 412 OFFCURVE",
"175 462 OFFCURVE",
"260 462 CURVE SMOOTH",
"341 462 OFFCURVE",
"366 422 OFFCURVE",
"366 343 CURVE SMOOTH",
"366 335 LINE",
"219 312 LINE SMOOTH",
"124 298 OFFCURVE",
"40 263 OFFCURVE",
"40 148 CURVE SMOOTH",
"40 138 LINE SMOOTH",
"40 53 OFFCURVE",
"91 -12 OFFCURVE",
"196 -12 CURVE SMOOTH",
"282 -12 OFFCURVE",
"340 23 OFFCURVE",
"376 68 CURVE",
"386 0 LINE"
);
},
{
closed = 1;
nodes = (
"165 72 OFFCURVE",
"139 110 OFFCURVE",
"139 150 CURVE SMOOTH",
"139 158 LINE SMOOTH",
"139 208 OFFCURVE",
"172 238 OFFCURVE",
"234 248 CURVE SMOOTH",
"366 270 LINE",
"366 141 LINE",
"348 114 OFFCURVE",
"307 72 OFFCURVE",
"228 72 CURVE SMOOTH"
);
},
{
closed = 1;
nodes = (
"362 725 OFFCURVE",
"347 714 OFFCURVE",
"328 714 CURVE SMOOTH",
"288 714 OFFCURVE",
"246 768 OFFCURVE",
"182 768 CURVE SMOOTH",
"130 768 OFFCURVE",
"91 731 OFFCURVE",
"91 645 CURVE",
"164 645 LINE",
"164 675 OFFCURVE",
"179 686 OFFCURVE",
"198 686 CURVE SMOOTH",
"238 686 OFFCURVE",
"280 632 OFFCURVE",
"344 632 CURVE SMOOTH",
"396 632 OFFCURVE",
"435 669 OFFCURVE",
"435 755 CURVE",
"362 755 LINE"
);
}
);
width = 525;
}
);
leftKerningGroup = a;
rightKerningGroup = a;
unicode = 00E3;
},
{
glyphname = adieresis;
layers = (
{
layerId = "C878BE66-A124-485F-B3BE-91B1D41027C7";
paths = (
{
closed = 1;
nodes = (
"473 0 LINE",
"466 150 LINE",
"466 343 LINE SMOOTH",
"466 463 OFFCURVE",
"418 542 OFFCURVE",
"263 542 CURVE SMOOTH",
"100 542 OFFCURVE",
"60 448 OFFCURVE",
"60 364 CURVE SMOOTH",
"60 355 LINE",
"155 355 LINE",
"155 412 OFFCURVE",
"175 462 OFFCURVE",
"260 462 CURVE SMOOTH",
"341 462 OFFCURVE",
"366 422 OFFCURVE",
"366 343 CURVE SMOOTH",
"366 335 LINE",
"219 312 LINE SMOOTH",
"124 298 OFFCURVE",
"40 263 OFFCURVE",
"40 148 CURVE SMOOTH",
"40 138 LINE SMOOTH",
"40 53 OFFCURVE",
"91 -12 OFFCURVE",
"196 -12 CURVE SMOOTH",
"282 -12 OFFCURVE",
"340 23 OFFCURVE",
"376 68 CURVE",
"386 0 LINE"
);
},
{
closed = 1;
nodes = (
"165 72 OFFCURVE",
"139 110 OFFCURVE",
"139 150 CURVE SMOOTH",
"139 158 LINE SMOOTH",
"139 208 OFFCURVE",
"172 238 OFFCURVE",
"234 248 CURVE SMOOTH",
"366 270 LINE",
"366 141 LINE",
"348 114 OFFCURVE",
"307 72 OFFCURVE",
"228 72 CURVE SMOOTH"
);
},
{
closed = 1;
nodes = (
"297 754 LINE",
"297 639 LINE",
"413 639 LINE",
"413 754 LINE"
);
},
{
closed = 1;
nodes = (
"113 754 LINE",
"113 639 LINE",
"229 639 LINE",
"229 754 LINE"
);
}
);
width = 525;
}
);
leftKerningGroup = a;
rightKerningGroup = a;
unicode = 00E4;
},
{
glyphname = aring;
layers = (
{
layerId = "C878BE66-A124-485F-B3BE-91B1D41027C7";
paths = (
{
closed = 1;
nodes = (
"473 0 LINE",
"466 150 LINE",
"466 343 LINE SMOOTH",
"466 463 OFFCURVE",
"418 542 OFFCURVE",
"263 542 CURVE SMOOTH",
"100 542 OFFCURVE",
"60 448 OFFCURVE",
"60 364 CURVE SMOOTH",
"60 355 LINE",
"155 355 LINE",
"155 412 OFFCURVE",
"175 462 OFFCURVE",
"260 462 CURVE SMOOTH",
"341 462 OFFCURVE",
"366 422 OFFCURVE",
"366 343 CURVE SMOOTH",
"366 335 LINE",
"219 312 LINE SMOOTH",
"124 298 OFFCURVE",
"40 263 OFFCURVE",
"40 148 CURVE SMOOTH",
"40 138 LINE SMOOTH",
"40 53 OFFCURVE",
"91 -12 OFFCURVE",
"196 -12 CURVE SMOOTH",
"282 -12 OFFCURVE",
"340 23 OFFCURVE",
"376 68 CURVE",
"386 0 LINE"
);
},
{
closed = 1;
nodes = (
"165 72 OFFCURVE",
"139 110 OFFCURVE",
"139 150 CURVE SMOOTH",
"139 158 LINE SMOOTH",
"139 208 OFFCURVE",
"172 238 OFFCURVE",
"234 248 CURVE SMOOTH",
"366 270 LINE",
"366 141 LINE",
"348 114 OFFCURVE",
"307 72 OFFCURVE",
"228 72 CURVE SMOOTH"
);
},
{
closed = 1;
nodes = (
"165 639 OFFCURVE",
"209 595 OFFCURVE",
"263 595 CURVE SMOOTH",
"317 595 OFFCURVE",
"361 639 OFFCURVE",
"361 694 CURVE SMOOTH",
"361 748 OFFCURVE",
"317 792 OFFCURVE",
"263 792 CURVE SMOOTH",
"209 792 OFFCURVE",
"165 748 OFFCURVE",
"165 694 CURVE SMOOTH"
);
},
{
closed = 1;
nodes = (
"209 723 OFFCURVE",
"233 748 OFFCURVE",
"263 748 CURVE SMOOTH",
"293 748 OFFCURVE",
"317 723 OFFCURVE",
"317 694 CURVE SMOOTH",
"317 664 OFFCURVE",
"293 639 OFFCURVE",
"263 639 CURVE SMOOTH",
"233 639 OFFCURVE",
"209 664 OFFCURVE",
"209 694 CURVE SMOOTH"
);
}
);
width = 525;
}
);
leftKerningGroup = a;
rightKerningGroup = a;
unicode = 00E5;
},
{
glyphname = amacron;
layers = (
{
layerId = "C878BE66-A124-485F-B3BE-91B1D41027C7";
paths = (
{
closed = 1;
nodes = (
"473 0 LINE",
"466 150 LINE",
"466 343 LINE SMOOTH",
"466 463 OFFCURVE",
"418 542 OFFCURVE",
"263 542 CURVE SMOOTH",
"100 542 OFFCURVE",
"60 448 OFFCURVE",
"60 364 CURVE SMOOTH",
"60 355 LINE",
"155 355 LINE",
"155 412 OFFCURVE",
"175 462 OFFCURVE",
"260 462 CURVE SMOOTH",
"341 462 OFFCURVE",
"366 422 OFFCURVE",
"366 343 CURVE SMOOTH",
"366 335 LINE",
"219 312 LINE SMOOTH",
"124 298 OFFCURVE",
"40 263 OFFCURVE",
"40 148 CURVE SMOOTH",
"40 138 LINE SMOOTH",
"40 53 OFFCURVE",
"91 -12 OFFCURVE",
"196 -12 CURVE SMOOTH",
"282 -12 OFFCURVE",
"340 23 OFFCURVE",
"376 68 CURVE",
"386 0 LINE"
);
},
{
closed = 1;
nodes = (
"165 72 OFFCURVE",
"139 110 OFFCURVE",
"139 150 CURVE SMOOTH",
"139 158 LINE SMOOTH",
"139 208 OFFCURVE",
"172 238 OFFCURVE",
"234 248 CURVE SMOOTH",
"366 270 LINE",
"366 141 LINE",
"348 114 OFFCURVE",
"307 72 OFFCURVE",
"228 72 CURVE SMOOTH"
);
},
{
closed = 1;
nodes = (
"391 648 LINE",
"391 739 LINE",
"135 739 LINE",
"135 648 LINE"
);
}
);
width = 525;
}
);
leftKerningGroup = a;
rightKerningGroup = a;
unicode = 0101;
},
{
glyphname = abreve;
layers = (
{
layerId = "C878BE66-A124-485F-B3BE-91B1D41027C7";
paths = (
{
closed = 1;
nodes = (
"473 0 LINE",
"466 150 LINE",
"466 343 LINE SMOOTH",
"466 463 OFFCURVE",
"418 542 OFFCURVE",
"263 542 CURVE SMOOTH",
"100 542 OFFCURVE",
"60 448 OFFCURVE",
"60 364 CURVE SMOOTH",
"60 355 LINE",
"155 355 LINE",
"155 412 OFFCURVE",
"175 462 OFFCURVE",
"260 462 CURVE SMOOTH",
"341 462 OFFCURVE",
"366 422 OFFCURVE",
"366 343 CURVE SMOOTH",
"366 335 LINE",
"219 312 LINE SMOOTH",
"124 298 OFFCURVE",
"40 263 OFFCURVE",
"40 148 CURVE SMOOTH",
"40 138 LINE SMOOTH",
"40 53 OFFCURVE",
"91 -12 OFFCURVE",
"196 -12 CURVE SMOOTH",
"282 -12 OFFCURVE",
"340 23 OFFCURVE",
"376 68 CURVE",
"386 0 LINE"
);
},
{
closed = 1;
nodes = (
"386 595 OFFCURVE",
"435 673 OFFCURVE",
"433 780 CURVE",
"356 780 LINE",
"356 714 OFFCURVE",
"326 676 OFFCURVE",
"263 676 CURVE SMOOTH",
"200 676 OFFCURVE",
"170 714 OFFCURVE",
"170 780 CURVE",
"93 780 LINE",
"91 673 OFFCURVE",
"140 595 OFFCURVE",
"263 595 CURVE SMOOTH"
);
},
{
closed = 1;
nodes = (
"165 72 OFFCURVE",
"139 110 OFFCURVE",
"139 150 CURVE SMOOTH",
"139 158 LINE SMOOTH",
"139 208 OFFCURVE",
"172 238 OFFCURVE",
"234 248 CURVE SMOOTH",
"366 270 LINE",
"366 141 LINE",
"348 114 OFFCURVE",
"307 72 OFFCURVE",
"228 72 CURVE SMOOTH"
);
}
);
width = 525;
}
);
leftKerningGroup = a;
rightKerningGroup = a;
unicode = 0103;
},
{
glyphname = aogonek;
layers = (
{
layerId = "C878BE66-A124-485F-B3BE-91B1D41027C7";
paths = (
{
closed = 1;
nodes = (
"395 -47 OFFCURVE",
"428 -18 OFFCURVE",
"470 0 CURVE",
"473 0 LINE",
"466 150 LINE",
"466 343 LINE SMOOTH",
"466 463 OFFCURVE",
"418 542 OFFCURVE",
"263 542 CURVE SMOOTH",
"100 542 OFFCURVE",
"60 448 OFFCURVE",
"60 364 CURVE SMOOTH",
"60 355 LINE",
"155 355 LINE",
"155 412 OFFCURVE",
"175 462 OFFCURVE",
"260 462 CURVE SMOOTH",
"341 462 OFFCURVE",
"366 422 OFFCURVE",
"366 343 CURVE SMOOTH",
"366 335 LINE",
"219 312 LINE SMOOTH",
"124 298 OFFCURVE",
"40 263 OFFCURVE",
"40 148 CURVE SMOOTH",
"40 138 LINE SMOOTH",
"40 53 OFFCURVE",
"91 -12 OFFCURVE",
"196 -12 CURVE SMOOTH",
"282 -12 OFFCURVE",
"340 23 OFFCURVE",
"376 68 CURVE",
"383 16 LINE",
"343 -13 OFFCURVE",
"314 -55 OFFCURVE",
"314 -111 CURVE SMOOTH",
"314 -181 OFFCURVE",
"362 -213 OFFCURVE",
"433 -213 CURVE SMOOTH",
"468 -213 OFFCURVE",
"505 -204 OFFCURVE",
"526 -191 CURVE",
"501 -123 LINE",
"489 -130 OFFCURVE",
"469 -136 OFFCURVE",
"446 -136 CURVE SMOOTH",
"413 -136 OFFCURVE",
"395 -117 OFFCURVE",
"395 -91 CURVE SMOOTH"
);
},
{
closed = 1;
nodes = (
"165 72 OFFCURVE",
"139 110 OFFCURVE",
"139 150 CURVE SMOOTH",
"139 158 LINE SMOOTH",
"139 208 OFFCURVE",
"172 238 OFFCURVE",
"234 248 CURVE SMOOTH",
"366 270 LINE",
"366 141 LINE",
"348 114 OFFCURVE",
"307 72 OFFCURVE",
"228 72 CURVE SMOOTH"
);
}
);
width = 525;
}
);
leftKerningGroup = a;
rightKerningGroup = a;
unicode = 0105;
},
{
glyphname = b;
layers = (
{
layerId = "C878BE66-A124-485F-B3BE-91B1D41027C7";
paths = (
{
closed = 1;
nodes = (
"61 800 LINE",
"61 150 LINE",
"54 0 LINE",
"141 0 LINE",
"151 69 LINE",
"179 23 OFFCURVE",
"228 -12 OFFCURVE",
"307 -12 CURVE SMOOTH",
"452 -12 OFFCURVE",
"508 102 OFFCURVE",
"508 251 CURVE SMOOTH",
"508 279 LINE SMOOTH",
"508 428 OFFCURVE",
"452 542 OFFCURVE",
"307 542 CURVE SMOOTH",
"236 542 OFFCURVE",
"190 513 OFFCURVE",
"161 474 CURVE",
"161 800 LINE"
);
},
{
closed = 1;
nodes = (
"180 412 OFFCURVE",
"217 454 OFFCURVE",
"281 454 CURVE SMOOTH",
"368 454 OFFCURVE",
"407 387 OFFCURVE",
"407 279 CURVE SMOOTH",
"407 251 LINE SMOOTH",
"407 143 OFFCURVE",
"368 76 OFFCURVE",
"281 76 CURVE SMOOTH",
"217 76 OFFCURVE",
"180 118 OFFCURVE",
"161 147 CURVE",
"161 383 LINE"
);
}
);
width = 550;
}
);
rightKerningGroup = b;
unicode = 0062;
},
{
glyphname = bdotaccent;
layers = (
{
layerId = "C878BE66-A124-485F-B3BE-91B1D41027C7";
paths = (
{
closed = 1;
nodes = (
"61 800 LINE",
"61 150 LINE",
"54 0 LINE",
"141 0 LINE",
"151 69 LINE",
"179 23 OFFCURVE",
"228 -12 OFFCURVE",
"307 -12 CURVE SMOOTH",
"452 -12 OFFCURVE",
"508 102 OFFCURVE",
"508 251 CURVE SMOOTH",
"508 279 LINE SMOOTH",
"508 428 OFFCURVE",
"452 542 OFFCURVE",
"307 542 CURVE SMOOTH",
"236 542 OFFCURVE",
"190 513 OFFCURVE",
"161 474 CURVE",
"161 800 LINE"
);
},
{
closed = 1;
nodes = (
"180 412 OFFCURVE",
"217 454 OFFCURVE",
"281 454 CURVE SMOOTH",
"368 454 OFFCURVE",
"407 387 OFFCURVE",
"407 279 CURVE SMOOTH",
"407 251 LINE SMOOTH",
"407 143 OFFCURVE",
"368 76 OFFCURVE",
"281 76 CURVE SMOOTH",
"217 76 OFFCURVE",
"180 118 OFFCURVE",
"161 147 CURVE",
"161 383 LINE"
);
},
{
closed = 1;
nodes = (
"62 936 LINE",
"62 854 LINE",
"160 854 LINE",
"160 936 LINE"
);
}
);
width = 550;
}
);
rightKerningGroup = b;
unicode = 1E03;
},
{
glyphname = c;
layers = (
{
layerId = "C878BE66-A124-485F-B3BE-91B1D41027C7";
paths = (
{
closed = 1;
nodes = (
"143 279 LINE SMOOTH",
"143 385 OFFCURVE",
"182 454 OFFCURVE",
"272 454 CURVE SMOOTH",
"352 454 OFFCURVE",
"386 403 OFFCURVE",
"386 332 CURVE",
"482 332 LINE",
"482 353 LINE SMOOTH",
"482 450 OFFCURVE",
"418 542 OFFCURVE",
"270 542 CURVE SMOOTH",
"111 542 OFFCURVE",
"42 428 OFFCURVE",
"42 279 CURVE SMOOTH",
"42 251 LINE SMOOTH",
"42 102 OFFCURVE",
"111 -12 OFFCURVE",
"270 -12 CURVE SMOOTH",
"418 -12 OFFCURVE",
"482 77 OFFCURVE",
"482 170 CURVE SMOOTH",
"482 188 LINE",
"386 188 LINE",
"386 128 OFFCURVE",
"354 76 OFFCURVE",
"272 76 CURVE SMOOTH",
"182 76 OFFCURVE",
"143 145 OFFCURVE",
"143 251 CURVE SMOOTH"
);
}
);
width = 523;
}
);
leftKerningGroup = c;
rightKerningGroup = c;
unicode = 0063;
},
{
glyphname = ccedilla;
layers = (
{
layerId = "C878BE66-A124-485F-B3BE-91B1D41027C7";
paths = (
{
closed = 1;
nodes = (
"199 -203 OFFCURVE",
"236 -213 OFFCURVE",
"277 -213 CURVE SMOOTH",
"345 -213 OFFCURVE",
"386 -187 OFFCURVE",
"386 -131 CURVE SMOOTH",
"386 -74 OFFCURVE",
"337 -51 OFFCURVE",
"284 -50 CURVE",
"299 -11 LINE",
"426 0 OFFCURVE",
"482 83 OFFCURVE",
"482 170 CURVE SMOOTH",
"482 188 LINE",
"386 188 LINE",
"386 128 OFFCURVE",
"354 76 OFFCURVE",
"272 76 CURVE SMOOTH",
"182 76 OFFCURVE",
"143 145 OFFCURVE",
"143 251 CURVE SMOOTH",
"143 279 LINE SMOOTH",
"143 385 OFFCURVE",
"182 454 OFFCURVE",
"272 454 CURVE SMOOTH",
"352 454 OFFCURVE",
"386 403 OFFCURVE",
"386 332 CURVE",
"482 332 LINE",
"482 353 LINE SMOOTH",
"482 450 OFFCURVE",
"418 542 OFFCURVE",
"270 542 CURVE SMOOTH",
"111 542 OFFCURVE",
"42 428 OFFCURVE",
"42 279 CURVE SMOOTH",
"42 251 LINE SMOOTH",
"42 111 OFFCURVE",
"102 2 OFFCURVE",
"241 -10 CURVE",
"216 -77 LINE",
"233 -102 LINE",
"233 -102 OFFCURVE",
"249 -99 OFFCURVE",
"265 -99 CURVE SMOOTH",
"301 -99 OFFCURVE",
"322 -106 OFFCURVE",
"322 -126 CURVE SMOOTH",
"322 -147 OFFCURVE",
"305 -155 OFFCURVE",
"268 -155 CURVE SMOOTH",
"242 -155 OFFCURVE",
"214 -148 OFFCURVE",
"198 -139 CURVE",
"180 -191 LINE"
);
}
);
width = 523;
}
);
leftKerningGroup = c;
rightKerningGroup = c;
unicode = 00E7;
},
{
glyphname = cacute;
layers = (
{
layerId = "C878BE66-A124-485F-B3BE-91B1D41027C7";
paths = (
{
closed = 1;
nodes = (
"143 279 LINE SMOOTH",
"143 385 OFFCURVE",
"182 454 OFFCURVE",
"272 454 CURVE SMOOTH",
"352 454 OFFCURVE",
"386 403 OFFCURVE",
"386 332 CURVE",
"482 332 LINE",
"482 353 LINE SMOOTH",
"482 450 OFFCURVE",
"418 542 OFFCURVE",
"270 542 CURVE SMOOTH",
"111 542 OFFCURVE",
"42 428 OFFCURVE",
"42 279 CURVE SMOOTH",
"42 251 LINE SMOOTH",
"42 102 OFFCURVE",
"111 -12 OFFCURVE",
"270 -12 CURVE SMOOTH",
"418 -12 OFFCURVE",
"482 77 OFFCURVE",
"482 170 CURVE SMOOTH",
"482 188 LINE",
"386 188 LINE",
"386 128 OFFCURVE",
"354 76 OFFCURVE",
"272 76 CURVE SMOOTH",
"182 76 OFFCURVE",
"143 145 OFFCURVE",
"143 251 CURVE SMOOTH"
);
},
{
closed = 1;
nodes = (
"219 607 LINE",
"321 607 LINE",
"420 780 LINE",
"310 780 LINE"
);
}
);
width = 523;
}
);
leftKerningGroup = c;
rightKerningGroup = c;
unicode = 0107;
},
{
glyphname = ccircumflex;
layers = (
{
layerId = "C878BE66-A124-485F-B3BE-91B1D41027C7";
paths = (
{
closed = 1;
nodes = (
"143 279 LINE SMOOTH",
"143 385 OFFCURVE",
"182 454 OFFCURVE",
"272 454 CURVE SMOOTH",
"352 454 OFFCURVE",
"386 403 OFFCURVE",
"386 332 CURVE",
"482 332 LINE",
"482 353 LINE SMOOTH",
"482 450 OFFCURVE",
"418 542 OFFCURVE",
"270 542 CURVE SMOOTH",
"111 542 OFFCURVE",
"42 428 OFFCURVE",
"42 279 CURVE SMOOTH",
"42 251 LINE SMOOTH",
"42 102 OFFCURVE",
"111 -12 OFFCURVE",
"270 -12 CURVE SMOOTH",
"418 -12 OFFCURVE",
"482 77 OFFCURVE",
"482 170 CURVE SMOOTH",
"482 188 LINE",
"386 188 LINE",
"386 128 OFFCURVE",
"354 76 OFFCURVE",
"272 76 CURVE SMOOTH",
"182 76 OFFCURVE",
"143 145 OFFCURVE",
"143 251 CURVE SMOOTH"
);
},
{
closed = 1;
nodes = (
"270 709 LINE",
"355 607 LINE",
"449 607 LINE",
"317 780 LINE",
"223 780 LINE",
"91 607 LINE",
"185 607 LINE"
);
}
);
width = 523;
}
);
leftKerningGroup = c;
rightKerningGroup = c;
unicode = 0109;
},
{
glyphname = cdotaccent;
layers = (
{
layerId = "C878BE66-A124-485F-B3BE-91B1D41027C7";
paths = (
{
closed = 1;
nodes = (
"143 279 LINE SMOOTH",
"143 385 OFFCURVE",
"182 454 OFFCURVE",
"272 454 CURVE SMOOTH",
"352 454 OFFCURVE",
"386 403 OFFCURVE",
"386 332 CURVE",
"482 332 LINE",
"482 353 LINE SMOOTH",
"482 450 OFFCURVE",
"418 542 OFFCURVE",
"270 542 CURVE SMOOTH",
"111 542 OFFCURVE",
"42 428 OFFCURVE",
"42 279 CURVE SMOOTH",
"42 251 LINE SMOOTH",
"42 102 OFFCURVE",
"111 -12 OFFCURVE",
"270 -12 CURVE SMOOTH",
"418 -12 OFFCURVE",
"482 77 OFFCURVE",
"482 170 CURVE SMOOTH",
"482 188 LINE",
"386 188 LINE",
"386 128 OFFCURVE",
"354 76 OFFCURVE",
"272 76 CURVE SMOOTH",
"182 76 OFFCURVE",
"143 145 OFFCURVE",
"143 251 CURVE SMOOTH"
);
},
{
closed = 1;
nodes = (
"212 754 LINE",
"212 639 LINE",
"328 639 LINE",
"328 754 LINE"
);
}
);
width = 523;
}
);
leftKerningGroup = c;
rightKerningGroup = c;
unicode = 010B;
},
{
glyphname = ccaron;
layers = (
{
layerId = "C878BE66-A124-485F-B3BE-91B1D41027C7";
paths = (
{
closed = 1;
nodes = (
"143 279 LINE SMOOTH",
"143 385 OFFCURVE",
"182 454 OFFCURVE",
"272 454 CURVE SMOOTH",
"352 454 OFFCURVE",
"386 403 OFFCURVE",
"386 332 CURVE",
"482 332 LINE",
"482 353 LINE SMOOTH",
"482 450 OFFCURVE",
"418 542 OFFCURVE",
"270 542 CURVE SMOOTH",
"111 542 OFFCURVE",
"42 428 OFFCURVE",
"42 279 CURVE SMOOTH",
"42 251 LINE SMOOTH",
"42 102 OFFCURVE",
"111 -12 OFFCURVE",
"270 -12 CURVE SMOOTH",
"418 -12 OFFCURVE",
"482 77 OFFCURVE",
"482 170 CURVE SMOOTH",
"482 188 LINE",
"386 188 LINE",
"386 128 OFFCURVE",
"354 76 OFFCURVE",
"272 76 CURVE SMOOTH",
"182 76 OFFCURVE",
"143 145 OFFCURVE",
"143 251 CURVE SMOOTH"
);
},
{
closed = 1;
nodes = (
"223 607 LINE",
"317 607 LINE",
"449 780 LINE",
"355 780 LINE",
"270 678 LINE",
"185 780 LINE",
"91 780 LINE"
);
}
);
width = 523;
}
);
leftKerningGroup = c;
rightKerningGroup = c;
unicode = 010D;
},
{
glyphname = d;
layers = (
{
layerId = "C878BE66-A124-485F-B3BE-91B1D41027C7";
paths = (
{
closed = 1;
nodes = (
"102 542 OFFCURVE",
"46 428 OFFCURVE",
"46 279 CURVE SMOOTH",
"46 251 LINE SMOOTH",
"46 102 OFFCURVE",
"102 -12 OFFCURVE",
"247 -12 CURVE SMOOTH",
"325 -12 OFFCURVE",
"373 23 OFFCURVE",
"402 69 CURVE",
"413 0 LINE",
"500 0 LINE",
"493 150 LINE",
"493 800 LINE",
"392 800 LINE",
"392 475 LINE",
"362 514 OFFCURVE",
"316 542 OFFCURVE",
"247 542 CURVE SMOOTH"
);
},
{
closed = 1;
nodes = (
"374 118 OFFCURVE",
"337 76 OFFCURVE",
"273 76 CURVE SMOOTH",
"186 76 OFFCURVE",
"147 143 OFFCURVE",
"147 251 CURVE SMOOTH",
"147 279 LINE SMOOTH",
"147 387 OFFCURVE",
"186 454 OFFCURVE",
"273 454 CURVE SMOOTH",
"337 454 OFFCURVE",
"374 412 OFFCURVE",
"392 383 CURVE",
"392 147 LINE"
);
}
);
width = 554;
}
);
leftKerningGroup = d;
unicode = 0064;
},
{
glyphname = dcaron;
layers = (
{
layerId = "C878BE66-A124-485F-B3BE-91B1D41027C7";
paths = (
{
closed = 1;
nodes = (
"102 542 OFFCURVE",
"46 428 OFFCURVE",
"46 279 CURVE SMOOTH",
"46 251 LINE SMOOTH",
"46 102 OFFCURVE",
"102 -12 OFFCURVE",
"247 -12 CURVE SMOOTH",
"325 -12 OFFCURVE",
"373 23 OFFCURVE",
"402 69 CURVE",
"413 0 LINE",
"500 0 LINE",
"493 150 LINE",
"493 800 LINE",
"392 800 LINE",
"392 475 LINE",
"362 514 OFFCURVE",
"316 542 OFFCURVE",
"247 542 CURVE SMOOTH"
);
},
{
closed = 1;
nodes = (
"374 118 OFFCURVE",
"337 76 OFFCURVE",
"273 76 CURVE SMOOTH",
"186 76 OFFCURVE",
"147 143 OFFCURVE",
"147 251 CURVE SMOOTH",
"147 279 LINE SMOOTH",
"147 387 OFFCURVE",
"186 454 OFFCURVE",
"273 454 CURVE SMOOTH",
"337 454 OFFCURVE",
"374 412 OFFCURVE",
"392 383 CURVE",
"392 147 LINE"
);
},
{
closed = 1;
nodes = (
"560 607 LINE",
"612 607 LINE",
"633 800 LINE",
"560 800 LINE"
);
}
);
width = 554;
}
);
leftKerningGroup = d;
unicode = 010F;
},
{
glyphname = ddotaccent;
layers = (
{
layerId = "C878BE66-A124-485F-B3BE-91B1D41027C7";
paths = (
{
closed = 1;
nodes = (
"102 542 OFFCURVE",
"46 428 OFFCURVE",
"46 279 CURVE SMOOTH",
"46 251 LINE SMOOTH",
"46 102 OFFCURVE",
"102 -12 OFFCURVE",
"247 -12 CURVE SMOOTH",
"325 -12 OFFCURVE",
"373 23 OFFCURVE",
"402 69 CURVE",
"413 0 LINE",
"500 0 LINE",
"493 150 LINE",
"493 800 LINE",
"392 800 LINE",
"392 475 LINE",
"362 514 OFFCURVE",
"316 542 OFFCURVE",
"247 542 CURVE SMOOTH"
);
},
{
closed = 1;
nodes = (
"374 118 OFFCURVE",
"337 76 OFFCURVE",
"273 76 CURVE SMOOTH",
"186 76 OFFCURVE",
"147 143 OFFCURVE",
"147 251 CURVE SMOOTH",
"147 279 LINE SMOOTH",
"147 387 OFFCURVE",
"186 454 OFFCURVE",
"273 454 CURVE SMOOTH",
"337 454 OFFCURVE",
"374 412 OFFCURVE",
"392 383 CURVE",
"392 147 LINE"
);
},
{
closed = 1;
nodes = (
"394 936 LINE",
"394 854 LINE",
"492 854 LINE",
"492 936 LINE"
);
}
);
width = 554;
}
);
leftKerningGroup = d;
unicode = 1E0B;
},
{
glyphname = e;
layers = (
{
layerId = "C878BE66-A124-485F-B3BE-91B1D41027C7";
paths = (
{
closed = 1;
nodes = (
"506 277 LINE SMOOTH",
"506 426 OFFCURVE",
"435 542 OFFCURVE",
"276 542 CURVE SMOOTH",
"116 542 OFFCURVE",
"42 426 OFFCURVE",
"42 277 CURVE SMOOTH",
"42 253 LINE SMOOTH",
"42 104 OFFCURVE",
"115 -12 OFFCURVE",
"281 -12 CURVE SMOOTH",
"432 -12 OFFCURVE",
"506 77 OFFCURVE",
"506 166 CURVE SMOOTH",
"506 170 LINE",
"410 170 LINE",
"410 122 OFFCURVE",
"370 68 OFFCURVE",
"282 68 CURVE SMOOTH",
"191 68 OFFCURVE",
"147 124 OFFCURVE",
"143 227 CURVE",
"506 227 LINE"
);
},
{
closed = 1;
nodes = (
"360 462 OFFCURVE",
"401 403 OFFCURVE",
"405 303 CURVE",
"143 303 LINE",
"146 403 OFFCURVE",
"188 462 OFFCURVE",
"274 462 CURVE SMOOTH"
);
}
);
width = 548;
}
);
leftKerningGroup = e;
rightKerningGroup = e;
unicode = 0065;
},
{
glyphname = egrave;
layers = (
{
layerId = "C878BE66-A124-485F-B3BE-91B1D41027C7";
paths = (
{
closed = 1;
nodes = (
"506 277 LINE SMOOTH",
"506 426 OFFCURVE",
"435 542 OFFCURVE",
"276 542 CURVE SMOOTH",
"116 542 OFFCURVE",
"42 426 OFFCURVE",
"42 277 CURVE SMOOTH",
"42 253 LINE SMOOTH",
"42 104 OFFCURVE",
"115 -12 OFFCURVE",
"281 -12 CURVE SMOOTH",
"432 -12 OFFCURVE",
"506 77 OFFCURVE",
"506 166 CURVE SMOOTH",
"506 170 LINE",
"410 170 LINE",
"410 122 OFFCURVE",
"370 68 OFFCURVE",
"282 68 CURVE SMOOTH",
"191 68 OFFCURVE",
"147 124 OFFCURVE",
"143 227 CURVE",
"506 227 LINE"
);
},
{
closed = 1;
nodes = (
"360 462 OFFCURVE",
"401 403 OFFCURVE",
"405 303 CURVE",
"143 303 LINE",
"146 403 OFFCURVE",
"188 462 OFFCURVE",
"274 462 CURVE SMOOTH"
);
},
{
closed = 1;
nodes = (
"225 607 LINE",
"327 607 LINE",
"236 780 LINE",
"126 780 LINE"
);
}
);
width = 548;
}
);
leftKerningGroup = e;
rightKerningGroup = e;
unicode = 00E8;
},
{
glyphname = eacute;
layers = (
{
layerId = "C878BE66-A124-485F-B3BE-91B1D41027C7";
paths = (
{
closed = 1;
nodes = (
"506 277 LINE SMOOTH",
"506 426 OFFCURVE",
"435 542 OFFCURVE",
"276 542 CURVE SMOOTH",
"116 542 OFFCURVE",
"42 426 OFFCURVE",
"42 277 CURVE SMOOTH",
"42 253 LINE SMOOTH",
"42 104 OFFCURVE",
"115 -12 OFFCURVE",
"281 -12 CURVE SMOOTH",
"432 -12 OFFCURVE",
"506 77 OFFCURVE",
"506 166 CURVE SMOOTH",
"506 170 LINE",
"410 170 LINE",
"410 122 OFFCURVE",
"370 68 OFFCURVE",
"282 68 CURVE SMOOTH",
"191 68 OFFCURVE",
"147 124 OFFCURVE",
"143 227 CURVE",
"506 227 LINE"
);
},
{
closed = 1;
nodes = (
"360 462 OFFCURVE",
"401 403 OFFCURVE",
"405 303 CURVE",
"143 303 LINE",
"146 403 OFFCURVE",
"188 462 OFFCURVE",
"274 462 CURVE SMOOTH"
);
},
{
closed = 1;
nodes = (
"225 607 LINE",
"327 607 LINE",
"426 780 LINE",
"316 780 LINE"
);
}
);
width = 548;
}
);
leftKerningGroup = e;
rightKerningGroup = e;
unicode = 00E9;
},
{
glyphname = ecircumflex;
layers = (
{
layerId = "C878BE66-A124-485F-B3BE-91B1D41027C7";
paths = (
{
closed = 1;
nodes = (
"506 277 LINE SMOOTH",
"506 426 OFFCURVE",
"435 542 OFFCURVE",
"276 542 CURVE SMOOTH",
"116 542 OFFCURVE",
"42 426 OFFCURVE",
"42 277 CURVE SMOOTH",
"42 253 LINE SMOOTH",
"42 104 OFFCURVE",
"115 -12 OFFCURVE",
"281 -12 CURVE SMOOTH",
"432 -12 OFFCURVE",
"506 77 OFFCURVE",
"506 166 CURVE SMOOTH",
"506 170 LINE",
"410 170 LINE",
"410 122 OFFCURVE",
"370 68 OFFCURVE",
"282 68 CURVE SMOOTH",
"191 68 OFFCURVE",
"147 124 OFFCURVE",
"143 227 CURVE",
"506 227 LINE"
);
},
{
closed = 1;
nodes = (
"360 462 OFFCURVE",
"401 403 OFFCURVE",
"405 303 CURVE",
"143 303 LINE",
"146 403 OFFCURVE",
"188 462 OFFCURVE",
"274 462 CURVE SMOOTH"
);
},
{
closed = 1;
nodes = (
"276 709 LINE",
"361 607 LINE",
"455 607 LINE",
"323 780 LINE",
"229 780 LINE",
"97 607 LINE",
"191 607 LINE"
);
}
);
width = 548;
}
);
leftKerningGroup = e;
rightKerningGroup = e;
unicode = 00EA;
},
{
glyphname = edieresis;
layers = (
{
layerId = "C878BE66-A124-485F-B3BE-91B1D41027C7";
paths = (
{
closed = 1;
nodes = (
"506 277 LINE SMOOTH",
"506 426 OFFCURVE",
"435 542 OFFCURVE",
"276 542 CURVE SMOOTH",
"116 542 OFFCURVE",
"42 426 OFFCURVE",
"42 277 CURVE SMOOTH",
"42 253 LINE SMOOTH",
"42 104 OFFCURVE",
"115 -12 OFFCURVE",
"281 -12 CURVE SMOOTH",
"432 -12 OFFCURVE",
"506 77 OFFCURVE",
"506 166 CURVE SMOOTH",
"506 170 LINE",
"410 170 LINE",
"410 122 OFFCURVE",
"370 68 OFFCURVE",
"282 68 CURVE SMOOTH",
"191 68 OFFCURVE",
"147 124 OFFCURVE",
"143 227 CURVE",
"506 227 LINE"
);
},
{
closed = 1;
nodes = (
"360 462 OFFCURVE",
"401 403 OFFCURVE",
"405 303 CURVE",
"143 303 LINE",
"146 403 OFFCURVE",
"188 462 OFFCURVE",
"274 462 CURVE SMOOTH"
);
},
{
closed = 1;
nodes = (
"310 754 LINE",
"310 639 LINE",
"426 639 LINE",
"426 754 LINE"
);
},
{
closed = 1;
nodes = (
"126 754 LINE",
"126 639 LINE",
"242 639 LINE",
"242 754 LINE"
);
}
);
width = 548;
}
);
leftKerningGroup = e;
rightKerningGroup = e;
unicode = 00EB;
},
{
glyphname = emacron;
layers = (
{
layerId = "C878BE66-A124-485F-B3BE-91B1D41027C7";
paths = (
{
closed = 1;
nodes = (
"506 277 LINE SMOOTH",
"506 426 OFFCURVE",
"435 542 OFFCURVE",
"276 542 CURVE SMOOTH",
"116 542 OFFCURVE",
"42 426 OFFCURVE",
"42 277 CURVE SMOOTH",
"42 253 LINE SMOOTH",
"42 104 OFFCURVE",
"115 -12 OFFCURVE",
"281 -12 CURVE SMOOTH",
"432 -12 OFFCURVE",
"506 77 OFFCURVE",
"506 166 CURVE SMOOTH",
"506 170 LINE",
"410 170 LINE",
"410 122 OFFCURVE",
"370 68 OFFCURVE",
"282 68 CURVE SMOOTH",
"191 68 OFFCURVE",
"147 124 OFFCURVE",
"143 227 CURVE",
"506 227 LINE"
);
},
{
closed = 1;
nodes = (
"360 462 OFFCURVE",
"401 403 OFFCURVE",
"405 303 CURVE",
"143 303 LINE",
"146 403 OFFCURVE",
"188 462 OFFCURVE",
"274 462 CURVE SMOOTH"
);
},
{
closed = 1;
nodes = (
"404 648 LINE",
"404 739 LINE",
"148 739 LINE",
"148 648 LINE"
);
}
);
width = 548;
}
);
leftKerningGroup = e;
rightKerningGroup = e;
unicode = 0113;
},
{
glyphname = ebreve;
layers = (
{
layerId = "C878BE66-A124-485F-B3BE-91B1D41027C7";
paths = (
{
closed = 1;
nodes = (
"506 277 LINE SMOOTH",
"506 426 OFFCURVE",
"435 542 OFFCURVE",
"276 542 CURVE SMOOTH",
"116 542 OFFCURVE",
"42 426 OFFCURVE",
"42 277 CURVE SMOOTH",
"42 253 LINE SMOOTH",
"42 104 OFFCURVE",
"115 -12 OFFCURVE",
"281 -12 CURVE SMOOTH",
"432 -12 OFFCURVE",
"506 77 OFFCURVE",
"506 166 CURVE SMOOTH",
"506 170 LINE",
"410 170 LINE",
"410 122 OFFCURVE",
"370 68 OFFCURVE",
"282 68 CURVE SMOOTH",
"191 68 OFFCURVE",
"147 124 OFFCURVE",
"143 227 CURVE",
"506 227 LINE"
);
},
{
closed = 1;
nodes = (
"399 595 OFFCURVE",
"448 673 OFFCURVE",
"446 780 CURVE",
"369 780 LINE",
"369 714 OFFCURVE",
"339 676 OFFCURVE",
"276 676 CURVE SMOOTH",
"213 676 OFFCURVE",
"183 714 OFFCURVE",
"183 780 CURVE",
"106 780 LINE",
"104 673 OFFCURVE",
"153 595 OFFCURVE",
"276 595 CURVE SMOOTH"
);
},
{
closed = 1;
nodes = (
"360 462 OFFCURVE",
"401 403 OFFCURVE",
"405 303 CURVE",
"143 303 LINE",
"146 403 OFFCURVE",
"188 462 OFFCURVE",
"274 462 CURVE SMOOTH"
);
}
);
width = 548;
}
);
leftKerningGroup = e;
rightKerningGroup = e;
unicode = 0115;
},
{
glyphname = edotaccent;
layers = (
{
layerId = "C878BE66-A124-485F-B3BE-91B1D41027C7";
paths = (
{
closed = 1;
nodes = (
"506 277 LINE SMOOTH",
"506 426 OFFCURVE",
"435 542 OFFCURVE",
"276 542 CURVE SMOOTH",
"116 542 OFFCURVE",
"42 426 OFFCURVE",
"42 277 CURVE SMOOTH",
"42 253 LINE SMOOTH",
"42 104 OFFCURVE",
"115 -12 OFFCURVE",
"281 -12 CURVE SMOOTH",
"432 -12 OFFCURVE",
"506 77 OFFCURVE",
"506 166 CURVE SMOOTH",
"506 170 LINE",
"410 170 LINE",
"410 122 OFFCURVE",
"370 68 OFFCURVE",
"282 68 CURVE SMOOTH",
"191 68 OFFCURVE",
"147 124 OFFCURVE",
"143 227 CURVE",
"506 227 LINE"
);
},
{
closed = 1;
nodes = (
"360 462 OFFCURVE",
"401 403 OFFCURVE",
"405 303 CURVE",
"143 303 LINE",
"146 403 OFFCURVE",
"188 462 OFFCURVE",
"274 462 CURVE SMOOTH"
);
},
{
closed = 1;
nodes = (
"218 754 LINE",
"218 639 LINE",
"334 639 LINE",
"334 754 LINE"
);
}
);
width = 548;
}
);
leftKerningGroup = e;
rightKerningGroup = e;
unicode = 0117;
},
{
glyphname = eogonek;
layers = (
{
layerId = "C878BE66-A124-485F-B3BE-91B1D41027C7";
paths = (
{
closed = 1;
nodes = (
"506 277 LINE SMOOTH",
"506 426 OFFCURVE",
"435 542 OFFCURVE",
"276 542 CURVE SMOOTH",
"116 542 OFFCURVE",
"42 426 OFFCURVE",
"42 277 CURVE SMOOTH",
"42 253 LINE SMOOTH",
"42 113 OFFCURVE",
"106 2 OFFCURVE",
"252 -10 CURVE",
"228 -37 OFFCURVE",
"213 -70 OFFCURVE",
"213 -111 CURVE SMOOTH",
"213 -181 OFFCURVE",
"261 -213 OFFCURVE",
"332 -213 CURVE SMOOTH",
"367 -213 OFFCURVE",
"404 -204 OFFCURVE",
"425 -191 CURVE",
"400 -123 LINE",
"388 -130 OFFCURVE",
"368 -136 OFFCURVE",
"345 -136 CURVE SMOOTH",
"312 -136 OFFCURVE",
"294 -117 OFFCURVE",
"294 -91 CURVE SMOOTH",
"294 -47 OFFCURVE",
"325 -13 OFFCURVE",
"369 0 CURVE SMOOTH",
"461 27 OFFCURVE",
"506 96 OFFCURVE",
"506 166 CURVE SMOOTH",
"506 170 LINE",
"410 170 LINE",
"410 122 OFFCURVE",
"370 68 OFFCURVE",
"282 68 CURVE SMOOTH",
"191 68 OFFCURVE",
"147 124 OFFCURVE",
"143 227 CURVE",
"506 227 LINE"
);
},
{
closed = 1;
nodes = (
"360 462 OFFCURVE",
"401 403 OFFCURVE",
"405 303 CURVE",
"143 303 LINE",
"146 403 OFFCURVE",
"188 462 OFFCURVE",
"274 462 CURVE SMOOTH"
);
}
);
width = 548;
}
);
leftKerningGroup = e;
rightKerningGroup = e;
unicode = 0119;
},
{
glyphname = ecaron;
layers = (
{
layerId = "C878BE66-A124-485F-B3BE-91B1D41027C7";
paths = (
{
closed = 1;
nodes = (
"506 277 LINE SMOOTH",
"506 426 OFFCURVE",
"435 542 OFFCURVE",
"276 542 CURVE SMOOTH",
"116 542 OFFCURVE",
"42 426 OFFCURVE",
"42 277 CURVE SMOOTH",
"42 253 LINE SMOOTH",
"42 104 OFFCURVE",
"115 -12 OFFCURVE",
"281 -12 CURVE SMOOTH",
"432 -12 OFFCURVE",
"506 77 OFFCURVE",
"506 166 CURVE SMOOTH",
"506 170 LINE",
"410 170 LINE",
"410 122 OFFCURVE",
"370 68 OFFCURVE",
"282 68 CURVE SMOOTH",
"191 68 OFFCURVE",
"147 124 OFFCURVE",
"143 227 CURVE",
"506 227 LINE"
);
},
{
closed = 1;
nodes = (
"360 462 OFFCURVE",
"401 403 OFFCURVE",
"405 303 CURVE",
"143 303 LINE",
"146 403 OFFCURVE",
"188 462 OFFCURVE",
"274 462 CURVE SMOOTH"
);
},
{
closed = 1;
nodes = (
"229 607 LINE",
"323 607 LINE",
"455 780 LINE",
"361 780 LINE",
"276 678 LINE",
"191 780 LINE",
"97 780 LINE"
);
}
);
width = 548;
}
);
leftKerningGroup = e;
rightKerningGroup = e;
unicode = 011B;
},
{
glyphname = f;
layers = (
{
layerId = "C878BE66-A124-485F-B3BE-91B1D41027C7";
paths = (
{
closed = 1;
nodes = (
"210 706 OFFCURVE",
"243 724 OFFCURVE",
"303 724 CURVE SMOOTH",
"324 724 OFFCURVE",
"350 719 OFFCURVE",
"358 716 CURVE",
"358 800 LINE",
"350 804 OFFCURVE",
"324 812 OFFCURVE",
"280 812 CURVE SMOOTH",
"180 812 OFFCURVE",
"110 766 OFFCURVE",
"110 640 CURVE SMOOTH",
"110 530 LINE",
"27 530 LINE",
"27 441 LINE",
"110 441 LINE",
"110 0 LINE",
"210 0 LINE",
"210 441 LINE",
"348 441 LINE",
"348 530 LINE",
"210 530 LINE",
"210 629 LINE SMOOTH"
);
}
);
width = 391;
}
);
leftKerningGroup = f;
rightKerningGroup = f;
unicode = 0066;
},
{
glyphname = fdotaccent;
layers = (
{
layerId = "C878BE66-A124-485F-B3BE-91B1D41027C7";
paths = (
{
closed = 1;
nodes = (
"210 706 OFFCURVE",
"243 724 OFFCURVE",
"303 724 CURVE SMOOTH",
"324 724 OFFCURVE",
"350 719 OFFCURVE",
"358 716 CURVE",
"358 800 LINE",
"350 804 OFFCURVE",
"324 812 OFFCURVE",
"280 812 CURVE SMOOTH",
"180 812 OFFCURVE",
"110 766 OFFCURVE",
"110 640 CURVE SMOOTH",
"110 530 LINE",
"27 530 LINE",
"27 441 LINE",
"110 441 LINE",
"110 0 LINE",
"210 0 LINE",
"210 441 LINE",
"348 441 LINE",
"348 530 LINE",
"210 530 LINE",
"210 629 LINE SMOOTH"
);
},
{
closed = 1;
nodes = (
"193 936 LINE",
"193 854 LINE",
"291 854 LINE",
"291 936 LINE"
);
}
);
width = 391;
}
);
leftKerningGroup = f;
rightKerningGroup = f;
unicode = 1E1F;
},
{
glyphname = g;
layers = (
{
layerId = "C878BE66-A124-485F-B3BE-91B1D41027C7";
paths = (
{
closed = 1;
nodes = (
"389 -85 OFFCURVE",
"354 -128 OFFCURVE",
"267 -128 CURVE SMOOTH",
"179 -128 OFFCURVE",
"148 -83 OFFCURVE",
"148 0 CURVE",
"52 0 LINE",
"52 -16 LINE SMOOTH",
"52 -124 OFFCURVE",
"107 -212 OFFCURVE",
"268 -212 CURVE SMOOTH",
"424 -212 OFFCURVE",
"489 -128 OFFCURVE",
"489 0 CURVE SMOOTH",
"489 380 LINE",
"496 530 LINE",
"409 530 LINE",
"399 462 LINE",
"371 507 OFFCURVE",
"322 542 OFFCURVE",
"243 542 CURVE SMOOTH",
"100 542 OFFCURVE",
"42 431 OFFCURVE",
"42 295 CURVE SMOOTH",
"42 271 LINE SMOOTH",
"42 130 OFFCURVE",
"100 24 OFFCURVE",
"243 24 CURVE SMOOTH",
"313 24 OFFCURVE",
"360 52 OFFCURVE",
"389 90 CURVE",
"389 3 LINE SMOOTH"
);
},
{
closed = 1;
nodes = (
"389 183 LINE",
"370 153 OFFCURVE",
"333 112 OFFCURVE",
"269 112 CURVE SMOOTH",
"185 112 OFFCURVE",
"143 172 OFFCURVE",
"143 271 CURVE SMOOTH",
"143 295 LINE SMOOTH",
"143 390 OFFCURVE",
"185 454 OFFCURVE",
"269 454 CURVE SMOOTH",
"333 454 OFFCURVE",
"370 412 OFFCURVE",
"389 383 CURVE"
);
}
);
width = 550;
}
);
leftKerningGroup = g;
unicode = 0067;
},
{
glyphname = gcircumflex;
layers = (
{
layerId = "C878BE66-A124-485F-B3BE-91B1D41027C7";
paths = (
{
closed = 1;
nodes = (
"389 -85 OFFCURVE",
"354 -128 OFFCURVE",
"267 -128 CURVE SMOOTH",
"179 -128 OFFCURVE",
"148 -83 OFFCURVE",
"148 0 CURVE",
"52 0 LINE",
"52 -16 LINE SMOOTH",
"52 -124 OFFCURVE",
"107 -212 OFFCURVE",
"268 -212 CURVE SMOOTH",
"424 -212 OFFCURVE",
"489 -128 OFFCURVE",
"489 0 CURVE SMOOTH",
"489 380 LINE",
"496 530 LINE",
"409 530 LINE",
"399 462 LINE",
"371 507 OFFCURVE",
"322 542 OFFCURVE",
"243 542 CURVE SMOOTH",
"100 542 OFFCURVE",
"42 431 OFFCURVE",
"42 295 CURVE SMOOTH",
"42 271 LINE SMOOTH",
"42 130 OFFCURVE",
"100 24 OFFCURVE",
"243 24 CURVE SMOOTH",
"313 24 OFFCURVE",
"360 52 OFFCURVE",
"389 90 CURVE",
"389 3 LINE SMOOTH"
);
},
{
closed = 1;
nodes = (
"389 183 LINE",
"370 153 OFFCURVE",
"333 112 OFFCURVE",
"269 112 CURVE SMOOTH",
"185 112 OFFCURVE",
"143 172 OFFCURVE",
"143 271 CURVE SMOOTH",
"143 295 LINE SMOOTH",
"143 390 OFFCURVE",
"185 454 OFFCURVE",
"269 454 CURVE SMOOTH",
"333 454 OFFCURVE",
"370 412 OFFCURVE",
"389 383 CURVE"
);
},
{
closed = 1;
nodes = (
"270 709 LINE",
"355 607 LINE",
"449 607 LINE",
"317 780 LINE",
"223 780 LINE",
"91 607 LINE",
"185 607 LINE"
);
}
);
width = 550;
}
);
leftKerningGroup = g;
unicode = 011D;
},
{
glyphname = gbreve;
layers = (
{
layerId = "C878BE66-A124-485F-B3BE-91B1D41027C7";
paths = (
{
closed = 1;
nodes = (
"389 -85 OFFCURVE",
"354 -128 OFFCURVE",
"267 -128 CURVE SMOOTH",
"179 -128 OFFCURVE",
"148 -83 OFFCURVE",
"148 0 CURVE",
"52 0 LINE",
"52 -16 LINE SMOOTH",
"52 -124 OFFCURVE",
"107 -212 OFFCURVE",
"268 -212 CURVE SMOOTH",
"424 -212 OFFCURVE",
"489 -128 OFFCURVE",
"489 0 CURVE SMOOTH",
"489 380 LINE",
"496 530 LINE",
"409 530 LINE",
"399 462 LINE",
"371 507 OFFCURVE",
"322 542 OFFCURVE",
"243 542 CURVE SMOOTH",
"100 542 OFFCURVE",
"42 431 OFFCURVE",
"42 295 CURVE SMOOTH",
"42 271 LINE SMOOTH",
"42 130 OFFCURVE",
"100 24 OFFCURVE",
"243 24 CURVE SMOOTH",
"313 24 OFFCURVE",
"360 52 OFFCURVE",
"389 90 CURVE",
"389 3 LINE SMOOTH"
);
},
{
closed = 1;
nodes = (
"185 112 OFFCURVE",
"143 172 OFFCURVE",
"143 271 CURVE SMOOTH",
"143 295 LINE SMOOTH",
"143 390 OFFCURVE",
"185 454 OFFCURVE",
"269 454 CURVE SMOOTH",
"333 454 OFFCURVE",
"370 412 OFFCURVE",
"389 383 CURVE",
"389 183 LINE",
"370 153 OFFCURVE",
"333 112 OFFCURVE",
"269 112 CURVE SMOOTH"
);
},
{
closed = 1;
nodes = (
"393 595 OFFCURVE",
"442 673 OFFCURVE",
"440 780 CURVE",
"363 780 LINE",
"363 714 OFFCURVE",
"333 676 OFFCURVE",
"270 676 CURVE SMOOTH",
"207 676 OFFCURVE",
"177 714 OFFCURVE",
"177 780 CURVE",
"100 780 LINE",
"98 673 OFFCURVE",
"147 595 OFFCURVE",
"270 595 CURVE SMOOTH"
);
}
);
width = 550;
}
);
leftKerningGroup = g;
unicode = 011F;
},
{
glyphname = gdotaccent;
layers = (
{
layerId = "C878BE66-A124-485F-B3BE-91B1D41027C7";
paths = (
{
closed = 1;
nodes = (
"389 -85 OFFCURVE",
"354 -128 OFFCURVE",
"267 -128 CURVE SMOOTH",
"179 -128 OFFCURVE",
"148 -83 OFFCURVE",
"148 0 CURVE",
"52 0 LINE",
"52 -16 LINE SMOOTH",
"52 -124 OFFCURVE",
"107 -212 OFFCURVE",
"268 -212 CURVE SMOOTH",
"424 -212 OFFCURVE",
"489 -128 OFFCURVE",
"489 0 CURVE SMOOTH",
"489 380 LINE",
"496 530 LINE",
"409 530 LINE",
"399 462 LINE",
"371 507 OFFCURVE",
"322 542 OFFCURVE",
"243 542 CURVE SMOOTH",
"100 542 OFFCURVE",
"42 431 OFFCURVE",
"42 295 CURVE SMOOTH",
"42 271 LINE SMOOTH",
"42 130 OFFCURVE",
"100 24 OFFCURVE",
"243 24 CURVE SMOOTH",
"313 24 OFFCURVE",
"360 52 OFFCURVE",
"389 90 CURVE",
"389 3 LINE SMOOTH"
);
},
{
closed = 1;
nodes = (
"389 183 LINE",
"370 153 OFFCURVE",
"333 112 OFFCURVE",
"269 112 CURVE SMOOTH",
"185 112 OFFCURVE",
"143 172 OFFCURVE",
"143 271 CURVE SMOOTH",
"143 295 LINE SMOOTH",
"143 390 OFFCURVE",
"185 454 OFFCURVE",
"269 454 CURVE SMOOTH",
"333 454 OFFCURVE",
"370 412 OFFCURVE",
"389 383 CURVE"
);
},
{
closed = 1;
nodes = (
"210 754 LINE",
"210 639 LINE",
"326 639 LINE",
"326 754 LINE"
);
}
);
width = 550;
}
);
leftKerningGroup = g;
unicode = 0121;
},
{
glyphname = gcommaaccent;
layers = (
{
layerId = "C878BE66-A124-485F-B3BE-91B1D41027C7";
paths = (
{
closed = 1;
nodes = (
"389 -85 OFFCURVE",
"354 -128 OFFCURVE",
"267 -128 CURVE SMOOTH",
"179 -128 OFFCURVE",
"148 -83 OFFCURVE",
"148 0 CURVE",
"52 0 LINE",
"52 -16 LINE SMOOTH",
"52 -124 OFFCURVE",
"107 -212 OFFCURVE",
"268 -212 CURVE SMOOTH",
"424 -212 OFFCURVE",
"489 -128 OFFCURVE",
"489 0 CURVE SMOOTH",
"489 380 LINE",
"496 530 LINE",
"409 530 LINE",
"399 462 LINE",
"371 507 OFFCURVE",
"322 542 OFFCURVE",
"243 542 CURVE SMOOTH",
"100 542 OFFCURVE",
"42 431 OFFCURVE",
"42 295 CURVE SMOOTH",
"42 271 LINE SMOOTH",
"42 130 OFFCURVE",
"100 24 OFFCURVE",
"243 24 CURVE SMOOTH",
"313 24 OFFCURVE",
"360 52 OFFCURVE",
"389 90 CURVE",
"389 3 LINE SMOOTH"
);
},
{
closed = 1;
nodes = (
"185 112 OFFCURVE",
"143 172 OFFCURVE",
"143 271 CURVE SMOOTH",
"143 295 LINE SMOOTH",
"143 390 OFFCURVE",
"185 454 OFFCURVE",
"269 454 CURVE SMOOTH",
"333 454 OFFCURVE",
"370 412 OFFCURVE",
"389 383 CURVE",
"389 183 LINE",
"370 153 OFFCURVE",
"333 112 OFFCURVE",
"269 112 CURVE SMOOTH"
);
},
{
closed = 1;
nodes = (
"319 607 LINE",
"319 688 LINE",
"261 688 LINE",
"268 735 OFFCURVE",
"293 749 OFFCURVE",
"337 749 CURVE",
"337 792 LINE",
"256 792 OFFCURVE",
"217 752 OFFCURVE",
"217 665 CURVE SMOOTH",
"217 607 LINE"
);
}
);
width = 550;
}
);
leftKerningGroup = g;
unicode = 0123;
},
{
glyphname = h;
layers = (
{
layerId = "C878BE66-A124-485F-B3BE-91B1D41027C7";
paths = (
{
closed = 1;
nodes = (
"62 800 LINE",
"62 0 LINE",
"162 0 LINE",
"162 383 LINE",
"180 412 OFFCURVE",
"218 454 OFFCURVE",
"290 454 CURVE SMOOTH",
"355 454 OFFCURVE",
"390 417 OFFCURVE",
"390 351 CURVE SMOOTH",
"390 0 LINE",
"489 0 LINE",
"489 367 LINE SMOOTH",
"489 465 OFFCURVE",
"438 542 OFFCURVE",
"327 542 CURVE SMOOTH",
"248 542 OFFCURVE",
"195 512 OFFCURVE",
"162 471 CURVE",
"162 800 LINE"
);
}
);
width = 545;
}
);
rightKerningGroup = h;
unicode = 0068;
},
{
glyphname = hcircumflex;
layers = (
{
layerId = "C878BE66-A124-485F-B3BE-91B1D41027C7";
paths = (
{
closed = 1;
nodes = (
"62 800 LINE",
"62 0 LINE",
"162 0 LINE",
"162 383 LINE",
"180 412 OFFCURVE",
"218 454 OFFCURVE",
"290 454 CURVE SMOOTH",
"355 454 OFFCURVE",
"390 417 OFFCURVE",
"390 351 CURVE SMOOTH",
"390 0 LINE",
"489 0 LINE",
"489 367 LINE SMOOTH",
"489 465 OFFCURVE",
"438 542 OFFCURVE",
"327 542 CURVE SMOOTH",
"248 542 OFFCURVE",
"195 512 OFFCURVE",
"162 471 CURVE",
"162 800 LINE"
);
},
{
closed = 1;
nodes = (
"112 897 LINE",
"178 840 LINE",
"274 840 LINE",
"161 950 LINE",
"63 950 LINE",
"-50 840 LINE",
"46 840 LINE"
);
}
);
width = 545;
}
);
rightKerningGroup = h;
unicode = 0125;
},
{
glyphname = i;
layers = (
{
layerId = "C878BE66-A124-485F-B3BE-91B1D41027C7";
paths = (
{
closed = 1;
nodes = (
"167 0 LINE",
"167 530 LINE",
"67 530 LINE",
"67 0 LINE"
);
},
{
closed = 1;
nodes = (
"60 754 LINE",
"60 640 LINE",
"174 640 LINE",
"174 754 LINE"
);
}
);
width = 234;
}
);
leftKerningGroup = dotlessi;
unicode = 0069;
},
{
glyphname = igrave;
layers = (
{
layerId = "C878BE66-A124-485F-B3BE-91B1D41027C7";
paths = (
{
closed = 1;
nodes = (
"168 0 LINE",
"168 530 LINE",
"66 530 LINE",
"66 0 LINE"
);
},
{
closed = 1;
nodes = (
"66 607 LINE",
"168 607 LINE",
"77 780 LINE",
"-33 780 LINE"
);
}
);
width = 234;
}
);
leftKerningGroup = dotlessi;
unicode = 00EC;
},
{
glyphname = iacute;
layers = (
{
layerId = "C878BE66-A124-485F-B3BE-91B1D41027C7";
paths = (
{
closed = 1;
nodes = (
"168 0 LINE",
"168 530 LINE",
"66 530 LINE",
"66 0 LINE"
);
},
{
closed = 1;
nodes = (
"66 607 LINE",
"168 607 LINE",
"267 780 LINE",
"157 780 LINE"
);
}
);
width = 234;
}
);
leftKerningGroup = dotlessi;
unicode = 00ED;
},
{
glyphname = icircumflex;
layers = (
{
layerId = "C878BE66-A124-485F-B3BE-91B1D41027C7";
paths = (
{
closed = 1;
nodes = (
"168 0 LINE",
"168 530 LINE",
"66 530 LINE",
"66 0 LINE"
);
},
{
closed = 1;
nodes = (
"117 709 LINE",
"202 607 LINE",
"296 607 LINE",
"164 780 LINE",
"70 780 LINE",
"-62 607 LINE",
"32 607 LINE"
);
}
);
width = 234;
}
);
leftKerningGroup = dotlessi;
unicode = 00EE;
},
{
glyphname = idieresis;
layers = (
{
layerId = "C878BE66-A124-485F-B3BE-91B1D41027C7";
paths = (
{
closed = 1;
nodes = (
"168 0 LINE",
"168 530 LINE",
"66 530 LINE",
"66 0 LINE"
);
},
{
closed = 1;
nodes = (
"-33 754 LINE",
"-33 639 LINE",
"83 639 LINE",
"83 754 LINE"
);
},
{
closed = 1;
nodes = (
"151 754 LINE",
"151 639 LINE",
"267 639 LINE",
"267 754 LINE"
);
}
);
width = 234;
}
);
leftKerningGroup = dotlessi;
unicode = 00EF;
},
{
glyphname = itilde;
layers = (
{
layerId = "C878BE66-A124-485F-B3BE-91B1D41027C7";
paths = (
{
closed = 1;
nodes = (
"168 0 LINE",
"168 530 LINE",
"66 530 LINE",
"66 0 LINE"
);
},
{
closed = 1;
nodes = (
"216 725 OFFCURVE",
"201 714 OFFCURVE",
"182 714 CURVE SMOOTH",
"142 714 OFFCURVE",
"100 768 OFFCURVE",
"36 768 CURVE SMOOTH",
"-16 768 OFFCURVE",
"-55 731 OFFCURVE",
"-55 645 CURVE",
"18 645 LINE",
"18 675 OFFCURVE",
"33 686 OFFCURVE",
"52 686 CURVE SMOOTH",
"92 686 OFFCURVE",
"134 632 OFFCURVE",
"198 632 CURVE SMOOTH",
"250 632 OFFCURVE",
"289 669 OFFCURVE",
"289 755 CURVE",
"216 755 LINE"
);
}
);
width = 234;
}
);
leftKerningGroup = dotlessi;
unicode = 0129;
},
{
glyphname = imacron;
layers = (
{
layerId = "C878BE66-A124-485F-B3BE-91B1D41027C7";
paths = (
{
closed = 1;
nodes = (
"168 0 LINE",
"168 530 LINE",
"66 530 LINE",
"66 0 LINE"
);
},
{
closed = 1;
nodes = (
"245 648 LINE",
"245 739 LINE",
"-11 739 LINE",
"-11 648 LINE"
);
}
);
width = 234;
}
);
leftKerningGroup = dotlessi;
unicode = 012B;
},
{
glyphname = ibreve;
layers = (
{
layerId = "C878BE66-A124-485F-B3BE-91B1D41027C7";
paths = (
{
closed = 1;
nodes = (
"168 0 LINE",
"168 530 LINE",
"66 530 LINE",
"66 0 LINE"
);
},
{
closed = 1;
nodes = (
"240 595 OFFCURVE",
"289 673 OFFCURVE",
"287 780 CURVE",
"210 780 LINE",
"210 714 OFFCURVE",
"180 676 OFFCURVE",
"117 676 CURVE SMOOTH",
"54 676 OFFCURVE",
"24 714 OFFCURVE",
"24 780 CURVE",
"-53 780 LINE",
"-55 673 OFFCURVE",
"-6 595 OFFCURVE",
"117 595 CURVE SMOOTH"
);
}
);
width = 234;
}
);
leftKerningGroup = dotlessi;
unicode = 012D;
},
{
glyphname = iogonek;
layers = (
{
layerId = "C878BE66-A124-485F-B3BE-91B1D41027C7";
paths = (
{
closed = 1;
nodes = (
"91 -47 OFFCURVE",
"124 -18 OFFCURVE",
"166 0 CURVE",
"167 0 LINE",
"167 530 LINE",
"67 530 LINE",
"67 6 LINE",
"33 -22 OFFCURVE",
"10 -61 OFFCURVE",
"10 -111 CURVE SMOOTH",
"10 -181 OFFCURVE",
"58 -213 OFFCURVE",
"129 -213 CURVE SMOOTH",
"164 -213 OFFCURVE",
"201 -204 OFFCURVE",
"222 -191 CURVE",
"197 -123 LINE",
"185 -130 OFFCURVE",
"165 -136 OFFCURVE",
"142 -136 CURVE SMOOTH",
"109 -136 OFFCURVE",
"91 -117 OFFCURVE",
"91 -91 CURVE SMOOTH"
);
},
{
closed = 1;
nodes = (
"60 754 LINE",
"60 640 LINE",
"174 640 LINE",
"174 754 LINE"
);
}
);
width = 234;
}
);
leftKerningGroup = dotlessi;
unicode = 012F;
},
{
glyphname = j;
layers = (
{
layerId = "C878BE66-A124-485F-B3BE-91B1D41027C7";
paths = (
{
closed = 1;
nodes = (
"67 -106 OFFCURVE",
"33 -124 OFFCURVE",
"-27 -124 CURVE SMOOTH",
"-48 -124 OFFCURVE",
"-74 -119 OFFCURVE",
"-81 -116 CURVE",
"-81 -200 LINE",
"-73 -204 OFFCURVE",
"-47 -212 OFFCURVE",
"-3 -212 CURVE SMOOTH",
"96 -212 OFFCURVE",
"167 -166 OFFCURVE",
"167 -40 CURVE SMOOTH",
"167 530 LINE",
"67 530 LINE",
"67 -29 LINE SMOOTH"
);
},
{
closed = 1;
nodes = (
"60 754 LINE",
"60 640 LINE",
"174 640 LINE",
"174 754 LINE"
);
}
);
width = 234;
}
);
leftKerningGroup = dotlessj;
unicode = 006A;
},
{
glyphname = jcircumflex;
layers = (
{
layerId = "C878BE66-A124-485F-B3BE-91B1D41027C7";
paths = (
{
closed = 1;
nodes = (
"66 -105 OFFCURVE",
"33 -123 OFFCURVE",
"-27 -123 CURVE SMOOTH",
"-48 -123 OFFCURVE",
"-74 -118 OFFCURVE",
"-81 -115 CURVE",
"-81 -200 LINE",
"-73 -204 OFFCURVE",
"-47 -212 OFFCURVE",
"-3 -212 CURVE SMOOTH",
"97 -212 OFFCURVE",
"168 -166 OFFCURVE",
"168 -39 CURVE SMOOTH",
"168 530 LINE",
"66 530 LINE",
"66 -28 LINE SMOOTH"
);
},
{
closed = 1;
nodes = (
"117 709 LINE",
"202 607 LINE",
"296 607 LINE",
"164 780 LINE",
"70 780 LINE",
"-62 607 LINE",
"32 607 LINE"
);
}
);
width = 234;
}
);
leftKerningGroup = dotlessj;
unicode = 0135;
},
{
glyphname = k;
layers = (
{
layerId = "C878BE66-A124-485F-B3BE-91B1D41027C7";
paths = (
{
closed = 1;
nodes = (
"160 0 LINE",
"160 153 LINE",
"249 253 LINE",
"382 0 LINE",
"498 0 LINE",
"318 330 LINE",
"498 530 LINE",
"376 530 LINE",
"160 283 LINE",
"160 800 LINE",
"60 800 LINE",
"60 0 LINE"
);
}
);
width = 522;
}
);
rightKerningGroup = k;
unicode = 006B;
},
{
glyphname = kcommaaccent;
layers = (
{
layerId = "C878BE66-A124-485F-B3BE-91B1D41027C7";
paths = (
{
closed = 1;
nodes = (
"160 0 LINE",
"160 153 LINE",
"249 253 LINE",
"382 0 LINE",
"498 0 LINE",
"318 330 LINE",
"498 530 LINE",
"376 530 LINE",
"160 283 LINE",
"160 800 LINE",
"60 800 LINE",
"60 0 LINE"
);
},
{
closed = 1;
nodes = (
"212 -51 LINE",
"212 -129 LINE",
"269 -129 LINE",
"260 -164 OFFCURVE",
"233 -176 OFFCURVE",
"194 -176 CURVE",
"194 -219 LINE",
"273 -219 OFFCURVE",
"314 -181 OFFCURVE",
"314 -105 CURVE SMOOTH",
"314 -51 LINE"
);
}
);
width = 522;
}
);
rightKerningGroup = k;
unicode = 0137;
},
{
glyphname = l;
layers = (
{
layerId = "C878BE66-A124-485F-B3BE-91B1D41027C7";
paths = (
{
closed = 1;
nodes = (
"167 0 LINE",
"167 800 LINE",
"67 800 LINE",
"67 0 LINE"
);
}
);
width = 234;
}
);
leftKerningGroup = l;
unicode = 006C;
},
{
glyphname = lacute;
layers = (
{
layerId = "C878BE66-A124-485F-B3BE-91B1D41027C7";
paths = (
{
closed = 1;
nodes = (
"167 0 LINE",
"167 800 LINE",
"67 800 LINE",
"67 0 LINE"
);
},
{
closed = 1;
nodes = (
"66 840 LINE",
"168 840 LINE",
"231 950 LINE",
"124 950 LINE"
);
}
);
width = 234;
}
);
leftKerningGroup = l;
unicode = 013A;
},
{
glyphname = lcommaaccent;
layers = (
{
layerId = "C878BE66-A124-485F-B3BE-91B1D41027C7";
paths = (
{
closed = 1;
nodes = (
"167 0 LINE",
"167 800 LINE",
"67 800 LINE",
"67 0 LINE"
);
},
{
closed = 1;
nodes = (
"66 -51 LINE",
"66 -129 LINE",
"123 -129 LINE",
"114 -164 OFFCURVE",
"87 -176 OFFCURVE",
"48 -176 CURVE",
"48 -219 LINE",
"127 -219 OFFCURVE",
"168 -181 OFFCURVE",
"168 -105 CURVE SMOOTH",
"168 -51 LINE"
);
}
);
width = 234;
}
);
leftKerningGroup = l;
unicode = 013C;
},
{
glyphname = lcaron;
layers = (
{
layerId = "C878BE66-A124-485F-B3BE-91B1D41027C7";
paths = (
{
closed = 1;
nodes = (
"167 0 LINE",
"167 800 LINE",
"67 800 LINE",
"67 0 LINE"
);
},
{
closed = 1;
nodes = (
"234 607 LINE",
"286 607 LINE",
"307 800 LINE",
"234 800 LINE"
);
}
);
width = 234;
}
);
leftKerningGroup = l;
unicode = 013E;
},
{
glyphname = m;
layers = (
{
layerId = "C878BE66-A124-485F-B3BE-91B1D41027C7";
paths = (
{
closed = 1;
nodes = (
"768 377 LINE SMOOTH",
"768 477 OFFCURVE",
"718 542 OFFCURVE",
"617 542 CURVE SMOOTH",
"534 542 OFFCURVE",
"481 504 OFFCURVE",
"451 456 CURVE",
"430 510 OFFCURVE",
"384 542 OFFCURVE",
"314 542 CURVE SMOOTH",
"234 542 OFFCURVE",
"182 506 OFFCURVE",
"152 461 CURVE",
"141 530 LINE",
"55 530 LINE",
"62 380 LINE",
"62 0 LINE",
"162 0 LINE",
"162 385 LINE",
"180 415 OFFCURVE",
"213 454 OFFCURVE",
"277 454 CURVE SMOOTH",
"331 454 OFFCURVE",
"365 430 OFFCURVE",
"365 362 CURVE SMOOTH",
"365 0 LINE",
"465 0 LINE",
"465 385 LINE",
"484 415 OFFCURVE",
"516 454 OFFCURVE",
"580 454 CURVE SMOOTH",
"635 454 OFFCURVE",
"669 430 OFFCURVE",
"669 362 CURVE SMOOTH",
"669 0 LINE",
"768 0 LINE"
);
}
);
width = 825;
}
);
leftKerningGroup = m;
rightKerningGroup = m;
unicode = 006D;
},
{
glyphname = mdotaccent;
layers = (
{
layerId = "C878BE66-A124-485F-B3BE-91B1D41027C7";
paths = (
{
closed = 1;
nodes = (
"768 377 LINE SMOOTH",
"768 477 OFFCURVE",
"718 542 OFFCURVE",
"617 542 CURVE SMOOTH",
"534 542 OFFCURVE",
"481 504 OFFCURVE",
"451 456 CURVE",
"430 510 OFFCURVE",
"384 542 OFFCURVE",
"314 542 CURVE SMOOTH",
"234 542 OFFCURVE",
"182 506 OFFCURVE",
"152 461 CURVE",
"141 530 LINE",
"55 530 LINE",
"62 380 LINE",
"62 0 LINE",
"162 0 LINE",
"162 385 LINE",
"180 415 OFFCURVE",
"213 454 OFFCURVE",
"277 454 CURVE SMOOTH",
"331 454 OFFCURVE",
"365 430 OFFCURVE",
"365 362 CURVE SMOOTH",
"365 0 LINE",
"465 0 LINE",
"465 385 LINE",
"484 415 OFFCURVE",
"516 454 OFFCURVE",
"580 454 CURVE SMOOTH",
"635 454 OFFCURVE",
"669 430 OFFCURVE",
"669 362 CURVE SMOOTH",
"669 0 LINE",
"768 0 LINE"
);
},
{
closed = 1;
nodes = (
"357 754 LINE",
"357 639 LINE",
"473 639 LINE",
"473 754 LINE"
);
}
);
width = 825;
}
);
leftKerningGroup = m;
rightKerningGroup = m;
unicode = 1E41;
},
{
glyphname = n;
layers = (
{
layerId = "C878BE66-A124-485F-B3BE-91B1D41027C7";
paths = (
{
closed = 1;
nodes = (
"489 367 LINE SMOOTH",
"489 465 OFFCURVE",
"438 542 OFFCURVE",
"327 542 CURVE SMOOTH",
"240 542 OFFCURVE",
"184 505 OFFCURVE",
"152 457 CURVE",
"141 530 LINE",
"55 530 LINE",
"62 380 LINE",
"62 0 LINE",
"162 0 LINE",
"162 383 LINE",
"180 412 OFFCURVE",
"218 454 OFFCURVE",
"290 454 CURVE SMOOTH",
"355 454 OFFCURVE",
"390 417 OFFCURVE",
"390 351 CURVE SMOOTH",
"390 0 LINE",
"489 0 LINE"
);
}
);
width = 545;
}
);
leftKerningGroup = eng;
rightKerningGroup = eng;
unicode = 006E;
},
{
glyphname = ntilde;
layers = (
{
layerId = "C878BE66-A124-485F-B3BE-91B1D41027C7";
paths = (
{
closed = 1;
nodes = (
"489 367 LINE SMOOTH",
"489 465 OFFCURVE",
"438 542 OFFCURVE",
"327 542 CURVE SMOOTH",
"240 542 OFFCURVE",
"184 505 OFFCURVE",
"152 457 CURVE",
"141 530 LINE",
"55 530 LINE",
"62 380 LINE",
"62 0 LINE",
"162 0 LINE",
"162 383 LINE",
"180 412 OFFCURVE",
"218 454 OFFCURVE",
"290 454 CURVE SMOOTH",
"355 454 OFFCURVE",
"390 417 OFFCURVE",
"390 351 CURVE SMOOTH",
"390 0 LINE",
"489 0 LINE"
);
},
{
closed = 1;
nodes = (
"375 725 OFFCURVE",
"360 714 OFFCURVE",
"341 714 CURVE SMOOTH",
"301 714 OFFCURVE",
"259 768 OFFCURVE",
"195 768 CURVE SMOOTH",
"143 768 OFFCURVE",
"104 731 OFFCURVE",
"104 645 CURVE",
"177 645 LINE",
"177 675 OFFCURVE",
"192 686 OFFCURVE",
"211 686 CURVE SMOOTH",
"251 686 OFFCURVE",
"293 632 OFFCURVE",
"357 632 CURVE SMOOTH",
"409 632 OFFCURVE",
"448 669 OFFCURVE",
"448 755 CURVE",
"375 755 LINE"
);
}
);
width = 545;
}
);
leftKerningGroup = eng;
rightKerningGroup = eng;
unicode = 00F1;
},
{
glyphname = nacute;
layers = (
{
layerId = "C878BE66-A124-485F-B3BE-91B1D41027C7";
paths = (
{
closed = 1;
nodes = (
"489 367 LINE SMOOTH",
"489 465 OFFCURVE",
"438 542 OFFCURVE",
"327 542 CURVE SMOOTH",
"240 542 OFFCURVE",
"184 505 OFFCURVE",
"152 457 CURVE",
"141 530 LINE",
"55 530 LINE",
"62 380 LINE",
"62 0 LINE",
"162 0 LINE",
"162 383 LINE",
"180 412 OFFCURVE",
"218 454 OFFCURVE",
"290 454 CURVE SMOOTH",
"355 454 OFFCURVE",
"390 417 OFFCURVE",
"390 351 CURVE SMOOTH",
"390 0 LINE",
"489 0 LINE"
);
},
{
closed = 1;
nodes = (
"225 607 LINE",
"327 607 LINE",
"426 780 LINE",
"316 780 LINE"
);
}
);
width = 545;
}
);
leftKerningGroup = eng;
rightKerningGroup = eng;
unicode = 0144;
},
{
glyphname = ncommaaccent;
layers = (
{
layerId = "C878BE66-A124-485F-B3BE-91B1D41027C7";
paths = (
{
closed = 1;
nodes = (
"489 367 LINE SMOOTH",
"489 465 OFFCURVE",
"438 542 OFFCURVE",
"327 542 CURVE SMOOTH",
"240 542 OFFCURVE",
"184 505 OFFCURVE",
"152 457 CURVE",
"141 530 LINE",
"55 530 LINE",
"62 380 LINE",
"62 0 LINE",
"162 0 LINE",
"162 383 LINE",
"180 412 OFFCURVE",
"218 454 OFFCURVE",
"290 454 CURVE SMOOTH",
"355 454 OFFCURVE",
"390 417 OFFCURVE",
"390 351 CURVE SMOOTH",
"390 0 LINE",
"489 0 LINE"
);
},
{
closed = 1;
nodes = (
"225 -51 LINE",
"225 -129 LINE",
"282 -129 LINE",
"273 -164 OFFCURVE",
"246 -176 OFFCURVE",
"207 -176 CURVE",
"207 -219 LINE",
"286 -219 OFFCURVE",
"327 -181 OFFCURVE",
"327 -105 CURVE SMOOTH",
"327 -51 LINE"
);
}
);
width = 545;
}
);
leftKerningGroup = eng;
rightKerningGroup = eng;
unicode = 0146;
},
{
glyphname = ncaron;
layers = (
{
layerId = "C878BE66-A124-485F-B3BE-91B1D41027C7";
paths = (
{
closed = 1;
nodes = (
"489 367 LINE SMOOTH",
"489 465 OFFCURVE",
"438 542 OFFCURVE",
"327 542 CURVE SMOOTH",
"240 542 OFFCURVE",
"184 505 OFFCURVE",
"152 457 CURVE",
"141 530 LINE",
"55 530 LINE",
"62 380 LINE",
"62 0 LINE",
"162 0 LINE",
"162 383 LINE",
"180 412 OFFCURVE",
"218 454 OFFCURVE",
"290 454 CURVE SMOOTH",
"355 454 OFFCURVE",
"390 417 OFFCURVE",
"390 351 CURVE SMOOTH",
"390 0 LINE",
"489 0 LINE"
);
},
{
closed = 1;
nodes = (
"229 607 LINE",
"323 607 LINE",
"455 780 LINE",
"361 780 LINE",
"276 678 LINE",
"191 780 LINE",
"97 780 LINE"
);
}
);
width = 545;
}
);
leftKerningGroup = eng;
rightKerningGroup = eng;
unicode = 0148;
},
{
glyphname = o;
layers = (
{
layerId = "C878BE66-A124-485F-B3BE-91B1D41027C7";
paths = (
{
closed = 1;
nodes = (
"435 -12 OFFCURVE",
"506 102 OFFCURVE",
"506 251 CURVE SMOOTH",
"506 279 LINE SMOOTH",
"506 428 OFFCURVE",
"435 542 OFFCURVE",
"274 542 CURVE SMOOTH",
"113 542 OFFCURVE",
"42 428 OFFCURVE",
"42 279 CURVE SMOOTH",
"42 251 LINE SMOOTH",
"42 102 OFFCURVE",
"113 -12 OFFCURVE",
"274 -12 CURVE SMOOTH"
);
},
{
closed = 1;
nodes = (
"184 76 OFFCURVE",
"143 145 OFFCURVE",
"143 251 CURVE SMOOTH",
"143 279 LINE SMOOTH",
"143 385 OFFCURVE",
"184 454 OFFCURVE",
"274 454 CURVE SMOOTH",
"364 454 OFFCURVE",
"405 385 OFFCURVE",
"405 279 CURVE SMOOTH",
"405 251 LINE SMOOTH",
"405 145 OFFCURVE",
"364 76 OFFCURVE",
"274 76 CURVE SMOOTH"
);
}
);
width = 548;
}
);
leftKerningGroup = o;
rightKerningGroup = o;
unicode = 006F;
},
{
glyphname = ograve;
layers = (
{
layerId = "C878BE66-A124-485F-B3BE-91B1D41027C7";
paths = (
{
closed = 1;
nodes = (
"435 -12 OFFCURVE",
"506 102 OFFCURVE",
"506 251 CURVE SMOOTH",
"506 279 LINE SMOOTH",
"506 428 OFFCURVE",
"435 542 OFFCURVE",
"274 542 CURVE SMOOTH",
"113 542 OFFCURVE",
"42 428 OFFCURVE",
"42 279 CURVE SMOOTH",
"42 251 LINE SMOOTH",
"42 102 OFFCURVE",
"113 -12 OFFCURVE",
"274 -12 CURVE SMOOTH"
);
},
{
closed = 1;
nodes = (
"184 76 OFFCURVE",
"143 145 OFFCURVE",
"143 251 CURVE SMOOTH",
"143 279 LINE SMOOTH",
"143 385 OFFCURVE",
"184 454 OFFCURVE",
"274 454 CURVE SMOOTH",
"364 454 OFFCURVE",
"405 385 OFFCURVE",
"405 279 CURVE SMOOTH",
"405 251 LINE SMOOTH",
"405 145 OFFCURVE",
"364 76 OFFCURVE",
"274 76 CURVE SMOOTH"
);
},
{
closed = 1;
nodes = (
"223 607 LINE",
"325 607 LINE",
"234 780 LINE",
"124 780 LINE"
);
}
);
width = 548;
}
);
leftKerningGroup = o;
rightKerningGroup = o;
unicode = 00F2;
},
{
glyphname = oacute;
layers = (
{
layerId = "C878BE66-A124-485F-B3BE-91B1D41027C7";
paths = (
{
closed = 1;
nodes = (
"435 -12 OFFCURVE",
"506 102 OFFCURVE",
"506 251 CURVE SMOOTH",
"506 279 LINE SMOOTH",
"506 428 OFFCURVE",
"435 542 OFFCURVE",
"274 542 CURVE SMOOTH",
"113 542 OFFCURVE",
"42 428 OFFCURVE",
"42 279 CURVE SMOOTH",
"42 251 LINE SMOOTH",
"42 102 OFFCURVE",
"113 -12 OFFCURVE",
"274 -12 CURVE SMOOTH"
);
},
{
closed = 1;
nodes = (
"184 76 OFFCURVE",
"143 145 OFFCURVE",
"143 251 CURVE SMOOTH",
"143 279 LINE SMOOTH",
"143 385 OFFCURVE",
"184 454 OFFCURVE",
"274 454 CURVE SMOOTH",
"364 454 OFFCURVE",
"405 385 OFFCURVE",
"405 279 CURVE SMOOTH",
"405 251 LINE SMOOTH",
"405 145 OFFCURVE",
"364 76 OFFCURVE",
"274 76 CURVE SMOOTH"
);
},
{
closed = 1;
nodes = (
"223 607 LINE",
"325 607 LINE",
"424 780 LINE",
"314 780 LINE"
);
}
);
width = 548;
}
);
leftKerningGroup = o;
rightKerningGroup = o;
unicode = 00F3;
},
{
glyphname = ocircumflex;
layers = (
{
layerId = "C878BE66-A124-485F-B3BE-91B1D41027C7";
paths = (
{
closed = 1;
nodes = (
"435 -12 OFFCURVE",
"506 102 OFFCURVE",
"506 251 CURVE SMOOTH",
"506 279 LINE SMOOTH",
"506 428 OFFCURVE",
"435 542 OFFCURVE",
"274 542 CURVE SMOOTH",
"113 542 OFFCURVE",
"42 428 OFFCURVE",
"42 279 CURVE SMOOTH",
"42 251 LINE SMOOTH",
"42 102 OFFCURVE",
"113 -12 OFFCURVE",
"274 -12 CURVE SMOOTH"
);
},
{
closed = 1;
nodes = (
"184 76 OFFCURVE",
"143 145 OFFCURVE",
"143 251 CURVE SMOOTH",
"143 279 LINE SMOOTH",
"143 385 OFFCURVE",
"184 454 OFFCURVE",
"274 454 CURVE SMOOTH",
"364 454 OFFCURVE",
"405 385 OFFCURVE",
"405 279 CURVE SMOOTH",
"405 251 LINE SMOOTH",
"405 145 OFFCURVE",
"364 76 OFFCURVE",
"274 76 CURVE SMOOTH"
);
},
{
closed = 1;
nodes = (
"274 709 LINE",
"359 607 LINE",
"453 607 LINE",
"321 780 LINE",
"227 780 LINE",
"95 607 LINE",
"189 607 LINE"
);
}
);
width = 548;
}
);
leftKerningGroup = o;
rightKerningGroup = o;
unicode = 00F4;
},
{
glyphname = otilde;
layers = (
{
layerId = "C878BE66-A124-485F-B3BE-91B1D41027C7";
paths = (
{
closed = 1;
nodes = (
"435 -12 OFFCURVE",
"506 102 OFFCURVE",
"506 251 CURVE SMOOTH",
"506 279 LINE SMOOTH",
"506 428 OFFCURVE",
"435 542 OFFCURVE",
"274 542 CURVE SMOOTH",
"113 542 OFFCURVE",
"42 428 OFFCURVE",
"42 279 CURVE SMOOTH",
"42 251 LINE SMOOTH",
"42 102 OFFCURVE",
"113 -12 OFFCURVE",
"274 -12 CURVE SMOOTH"
);
},
{
closed = 1;
nodes = (
"184 76 OFFCURVE",
"143 145 OFFCURVE",
"143 251 CURVE SMOOTH",
"143 279 LINE SMOOTH",
"143 385 OFFCURVE",
"184 454 OFFCURVE",
"274 454 CURVE SMOOTH",
"364 454 OFFCURVE",
"405 385 OFFCURVE",
"405 279 CURVE SMOOTH",
"405 251 LINE SMOOTH",
"405 145 OFFCURVE",
"364 76 OFFCURVE",
"274 76 CURVE SMOOTH"
);
},
{
closed = 1;
nodes = (
"373 725 OFFCURVE",
"358 714 OFFCURVE",
"339 714 CURVE SMOOTH",
"299 714 OFFCURVE",
"257 768 OFFCURVE",
"193 768 CURVE SMOOTH",
"141 768 OFFCURVE",
"102 731 OFFCURVE",
"102 645 CURVE",
"175 645 LINE",
"175 675 OFFCURVE",
"190 686 OFFCURVE",
"209 686 CURVE SMOOTH",
"249 686 OFFCURVE",
"291 632 OFFCURVE",
"355 632 CURVE SMOOTH",
"407 632 OFFCURVE",
"446 669 OFFCURVE",
"446 755 CURVE",
"373 755 LINE"
);
}
);
width = 548;
}
);
leftKerningGroup = o;
rightKerningGroup = o;
unicode = 00F5;
},
{
glyphname = odieresis;
layers = (
{
layerId = "C878BE66-A124-485F-B3BE-91B1D41027C7";
paths = (
{
closed = 1;
nodes = (
"435 -12 OFFCURVE",
"506 102 OFFCURVE",
"506 251 CURVE SMOOTH",
"506 279 LINE SMOOTH",
"506 428 OFFCURVE",
"435 542 OFFCURVE",
"274 542 CURVE SMOOTH",
"113 542 OFFCURVE",
"42 428 OFFCURVE",
"42 279 CURVE SMOOTH",
"42 251 LINE SMOOTH",
"42 102 OFFCURVE",
"113 -12 OFFCURVE",
"274 -12 CURVE SMOOTH"
);
},
{
closed = 1;
nodes = (
"184 76 OFFCURVE",
"143 145 OFFCURVE",
"143 251 CURVE SMOOTH",
"143 279 LINE SMOOTH",
"143 385 OFFCURVE",
"184 454 OFFCURVE",
"274 454 CURVE SMOOTH",
"364 454 OFFCURVE",
"405 385 OFFCURVE",
"405 279 CURVE SMOOTH",
"405 251 LINE SMOOTH",
"405 145 OFFCURVE",
"364 76 OFFCURVE",
"274 76 CURVE SMOOTH"
);
},
{
closed = 1;
nodes = (
"124 754 LINE",
"124 639 LINE",
"240 639 LINE",
"240 754 LINE"
);
},
{
closed = 1;
nodes = (
"308 754 LINE",
"308 639 LINE",
"424 639 LINE",
"424 754 LINE"
);
}
);
width = 548;
}
);
leftKerningGroup = o;
rightKerningGroup = o;
unicode = 00F6;
},
{
glyphname = omacron;
layers = (
{
layerId = "C878BE66-A124-485F-B3BE-91B1D41027C7";
paths = (
{
closed = 1;
nodes = (
"435 -12 OFFCURVE",
"506 102 OFFCURVE",
"506 251 CURVE SMOOTH",
"506 279 LINE SMOOTH",
"506 428 OFFCURVE",
"435 542 OFFCURVE",
"274 542 CURVE SMOOTH",
"113 542 OFFCURVE",
"42 428 OFFCURVE",
"42 279 CURVE SMOOTH",
"42 251 LINE SMOOTH",
"42 102 OFFCURVE",
"113 -12 OFFCURVE",
"274 -12 CURVE SMOOTH"
);
},
{
closed = 1;
nodes = (
"184 76 OFFCURVE",
"143 145 OFFCURVE",
"143 251 CURVE SMOOTH",
"143 279 LINE SMOOTH",
"143 385 OFFCURVE",
"184 454 OFFCURVE",
"274 454 CURVE SMOOTH",
"364 454 OFFCURVE",
"405 385 OFFCURVE",
"405 279 CURVE SMOOTH",
"405 251 LINE SMOOTH",
"405 145 OFFCURVE",
"364 76 OFFCURVE",
"274 76 CURVE SMOOTH"
);
},
{
closed = 1;
nodes = (
"402 648 LINE",
"402 739 LINE",
"146 739 LINE",
"146 648 LINE"
);
}
);
width = 548;
}
);
leftKerningGroup = o;
rightKerningGroup = o;
unicode = 014D;
},
{
glyphname = obreve;
layers = (
{
layerId = "C878BE66-A124-485F-B3BE-91B1D41027C7";
paths = (
{
closed = 1;
nodes = (
"435 -12 OFFCURVE",
"506 102 OFFCURVE",
"506 251 CURVE SMOOTH",
"506 279 LINE SMOOTH",
"506 428 OFFCURVE",
"435 542 OFFCURVE",
"274 542 CURVE SMOOTH",
"113 542 OFFCURVE",
"42 428 OFFCURVE",
"42 279 CURVE SMOOTH",
"42 251 LINE SMOOTH",
"42 102 OFFCURVE",
"113 -12 OFFCURVE",
"274 -12 CURVE SMOOTH"
);
},
{
closed = 1;
nodes = (
"184 76 OFFCURVE",
"143 145 OFFCURVE",
"143 251 CURVE SMOOTH",
"143 279 LINE SMOOTH",
"143 385 OFFCURVE",
"184 454 OFFCURVE",
"274 454 CURVE SMOOTH",
"364 454 OFFCURVE",
"405 385 OFFCURVE",
"405 279 CURVE SMOOTH",
"405 251 LINE SMOOTH",
"405 145 OFFCURVE",
"364 76 OFFCURVE",
"274 76 CURVE SMOOTH"
);
},
{
closed = 1;
nodes = (
"397 595 OFFCURVE",
"446 673 OFFCURVE",
"444 780 CURVE",
"367 780 LINE",
"367 714 OFFCURVE",
"337 676 OFFCURVE",
"274 676 CURVE SMOOTH",
"211 676 OFFCURVE",
"181 714 OFFCURVE",
"181 780 CURVE",
"104 780 LINE",
"102 673 OFFCURVE",
"151 595 OFFCURVE",
"274 595 CURVE SMOOTH"
);
}
);
width = 548;
}
);
leftKerningGroup = o;
rightKerningGroup = o;
unicode = 014F;
},
{
glyphname = ohungarumlaut;
layers = (
{
layerId = "C878BE66-A124-485F-B3BE-91B1D41027C7";
paths = (
{
closed = 1;
nodes = (
"435 -12 OFFCURVE",
"506 102 OFFCURVE",
"506 251 CURVE SMOOTH",
"506 279 LINE SMOOTH",
"506 428 OFFCURVE",
"435 542 OFFCURVE",
"274 542 CURVE SMOOTH",
"113 542 OFFCURVE",
"42 428 OFFCURVE",
"42 279 CURVE SMOOTH",
"42 251 LINE SMOOTH",
"42 102 OFFCURVE",
"113 -12 OFFCURVE",
"274 -12 CURVE SMOOTH"
);
},
{
closed = 1;
nodes = (
"184 76 OFFCURVE",
"143 145 OFFCURVE",
"143 251 CURVE SMOOTH",
"143 279 LINE SMOOTH",
"143 385 OFFCURVE",
"184 454 OFFCURVE",
"274 454 CURVE SMOOTH",
"364 454 OFFCURVE",
"405 385 OFFCURVE",
"405 279 CURVE SMOOTH",
"405 251 LINE SMOOTH",
"405 145 OFFCURVE",
"364 76 OFFCURVE",
"274 76 CURVE SMOOTH"
);
},
{
closed = 1;
nodes = (
"163 607 LINE",
"248 607 LINE",
"335 780 LINE",
"241 780 LINE"
);
},
{
closed = 1;
nodes = (
"299 607 LINE",
"384 607 LINE",
"483 780 LINE",
"390 780 LINE"
);
}
);
width = 548;
}
);
leftKerningGroup = o;
rightKerningGroup = o;
unicode = 0151;
},
{
glyphname = p;
layers = (
{
layerId = "C878BE66-A124-485F-B3BE-91B1D41027C7";
paths = (
{
closed = 1;
nodes = (
"452 -12 OFFCURVE",
"508 102 OFFCURVE",
"508 251 CURVE SMOOTH",
"508 279 LINE SMOOTH",
"508 428 OFFCURVE",
"452 542 OFFCURVE",
"307 542 CURVE SMOOTH",
"228 542 OFFCURVE",
"179 506 OFFCURVE",
"151 460 CURVE",
"141 530 LINE",
"54 530 LINE",
"61 380 LINE",
"61 -200 LINE",
"161 -200 LINE",
"161 56 LINE",
"190 17 OFFCURVE",
"236 -12 OFFCURVE",
"307 -12 CURVE SMOOTH"
);
},
{
closed = 1;
nodes = (
"180 412 OFFCURVE",
"217 454 OFFCURVE",
"281 454 CURVE SMOOTH",
"368 454 OFFCURVE",
"407 387 OFFCURVE",
"407 279 CURVE SMOOTH",
"407 251 LINE SMOOTH",
"407 143 OFFCURVE",
"368 76 OFFCURVE",
"281 76 CURVE SMOOTH",
"217 76 OFFCURVE",
"180 118 OFFCURVE",
"161 147 CURVE",
"161 383 LINE"
);
}
);
width = 550;
}
);
leftKerningGroup = p;
rightKerningGroup = p;
unicode = 0070;
},
{
glyphname = pdotaccent;
layers = (
{
layerId = "C878BE66-A124-485F-B3BE-91B1D41027C7";
paths = (
{
closed = 1;
nodes = (
"452 -12 OFFCURVE",
"508 102 OFFCURVE",
"508 251 CURVE SMOOTH",
"508 279 LINE SMOOTH",
"508 428 OFFCURVE",
"452 542 OFFCURVE",
"307 542 CURVE SMOOTH",
"228 542 OFFCURVE",
"179 506 OFFCURVE",
"151 460 CURVE",
"141 530 LINE",
"54 530 LINE",
"61 380 LINE",
"61 -200 LINE",
"161 -200 LINE",
"161 56 LINE",
"190 17 OFFCURVE",
"236 -12 OFFCURVE",
"307 -12 CURVE SMOOTH"
);
},
{
closed = 1;
nodes = (
"180 412 OFFCURVE",
"217 454 OFFCURVE",
"281 454 CURVE SMOOTH",
"368 454 OFFCURVE",
"407 387 OFFCURVE",
"407 279 CURVE SMOOTH",
"407 251 LINE SMOOTH",
"407 143 OFFCURVE",
"368 76 OFFCURVE",
"281 76 CURVE SMOOTH",
"217 76 OFFCURVE",
"180 118 OFFCURVE",
"161 147 CURVE",
"161 383 LINE"
);
},
{
closed = 1;
nodes = (
"224 754 LINE",
"224 639 LINE",
"340 639 LINE",
"340 754 LINE"
);
}
);
width = 550;
}
);
leftKerningGroup = p;
rightKerningGroup = p;
unicode = 1E57;
},
{
glyphname = q;
layers = (
{
layerId = "C878BE66-A124-485F-B3BE-91B1D41027C7";
paths = (
{
closed = 1;
nodes = (
"490 -200 LINE",
"490 380 LINE",
"497 530 LINE",
"410 530 LINE",
"399 461 LINE",
"371 506 OFFCURVE",
"322 542 OFFCURVE",
"245 542 CURVE SMOOTH",
"100 542 OFFCURVE",
"44 428 OFFCURVE",
"44 279 CURVE SMOOTH",
"44 251 LINE SMOOTH",
"44 102 OFFCURVE",
"100 -12 OFFCURVE",
"245 -12 CURVE SMOOTH",
"314 -12 OFFCURVE",
"360 16 OFFCURVE",
"390 54 CURVE",
"390 -200 LINE"
);
},
{
closed = 1;
nodes = (
"371 118 OFFCURVE",
"334 76 OFFCURVE",
"270 76 CURVE SMOOTH",
"184 76 OFFCURVE",
"145 143 OFFCURVE",
"145 251 CURVE SMOOTH",
"145 279 LINE SMOOTH",
"145 387 OFFCURVE",
"184 454 OFFCURVE",
"270 454 CURVE SMOOTH",
"334 454 OFFCURVE",
"371 412 OFFCURVE",
"390 383 CURVE",
"390 147 LINE"
);
}
);
width = 553;
}
);
unicode = 0071;
},
{
glyphname = r;
layers = (
{
layerId = "C878BE66-A124-485F-B3BE-91B1D41027C7";
paths = (
{
closed = 1;
nodes = (
"229 542 OFFCURVE",
"181 507 OFFCURVE",
"151 462 CURVE",
"141 530 LINE",
"55 530 LINE",
"62 380 LINE",
"62 0 LINE",
"162 0 LINE",
"162 377 LINE",
"181 406 OFFCURVE",
"219 445 OFFCURVE",
"294 445 CURVE SMOOTH",
"312 445 LINE",
"312 541 LINE",
"310 541 OFFCURVE",
"303 542 OFFCURVE",
"297 542 CURVE SMOOTH"
);
}
);
width = 350;
}
);
leftKerningGroup = r;
rightKerningGroup = r;
unicode = 0072;
},
{
glyphname = racute;
layers = (
{
layerId = "C878BE66-A124-485F-B3BE-91B1D41027C7";
paths = (
{
closed = 1;
nodes = (
"229 542 OFFCURVE",
"181 507 OFFCURVE",
"151 462 CURVE",
"141 530 LINE",
"55 530 LINE",
"62 380 LINE",
"62 0 LINE",
"162 0 LINE",
"162 377 LINE",
"181 406 OFFCURVE",
"219 445 OFFCURVE",
"294 445 CURVE SMOOTH",
"312 445 LINE",
"312 541 LINE",
"310 541 OFFCURVE",
"303 542 OFFCURVE",
"297 542 CURVE SMOOTH"
);
},
{
closed = 1;
nodes = (
"136 607 LINE",
"238 607 LINE",
"337 780 LINE",
"227 780 LINE"
);
}
);
width = 350;
}
);
leftKerningGroup = r;
rightKerningGroup = r;
unicode = 0155;
},
{
glyphname = rcommaaccent;
layers = (
{
layerId = "C878BE66-A124-485F-B3BE-91B1D41027C7";
paths = (
{
closed = 1;
nodes = (
"229 542 OFFCURVE",
"181 507 OFFCURVE",
"151 462 CURVE",
"141 530 LINE",
"55 530 LINE",
"62 380 LINE",
"62 0 LINE",
"162 0 LINE",
"162 377 LINE",
"181 406 OFFCURVE",
"219 445 OFFCURVE",
"294 445 CURVE SMOOTH",
"312 445 LINE",
"312 541 LINE",
"310 541 OFFCURVE",
"303 542 OFFCURVE",
"297 542 CURVE SMOOTH"
);
},
{
closed = 1;
nodes = (
"61 -51 LINE",
"61 -129 LINE",
"118 -129 LINE",
"109 -164 OFFCURVE",
"82 -176 OFFCURVE",
"43 -176 CURVE",
"43 -219 LINE",
"122 -219 OFFCURVE",
"163 -181 OFFCURVE",
"163 -105 CURVE SMOOTH",
"163 -51 LINE"
);
}
);
width = 350;
}
);
leftKerningGroup = r;
rightKerningGroup = r;
unicode = 0157;
},
{
glyphname = rcaron;
layers = (
{
layerId = "C878BE66-A124-485F-B3BE-91B1D41027C7";
paths = (
{
closed = 1;
nodes = (
"229 542 OFFCURVE",
"181 507 OFFCURVE",
"151 462 CURVE",
"141 530 LINE",
"55 530 LINE",
"62 380 LINE",
"62 0 LINE",
"162 0 LINE",
"162 377 LINE",
"181 406 OFFCURVE",
"219 445 OFFCURVE",
"294 445 CURVE SMOOTH",
"312 445 LINE",
"312 541 LINE",
"310 541 OFFCURVE",
"303 542 OFFCURVE",
"297 542 CURVE SMOOTH"
);
},
{
closed = 1;
nodes = (
"140 607 LINE",
"234 607 LINE",
"366 780 LINE",
"272 780 LINE",
"187 678 LINE",
"102 780 LINE",
"8 780 LINE"
);
}
);
width = 350;
}
);
leftKerningGroup = r;
rightKerningGroup = r;
unicode = 0159;
},
{
glyphname = s;
layers = (
{
layerId = "C878BE66-A124-485F-B3BE-91B1D41027C7";
paths = (
{
closed = 1;
nodes = (
"175 68 OFFCURVE",
"149 114 OFFCURVE",
"149 164 CURVE",
"50 164 LINE",
"50 160 LINE SMOOTH",
"50 71 OFFCURVE",
"110 -12 OFFCURVE",
"262 -12 CURVE SMOOTH",
"401 -12 OFFCURVE",
"475 54 OFFCURVE",
"475 152 CURVE SMOOTH",
"475 158 LINE SMOOTH",
"475 260 OFFCURVE",
"407 295 OFFCURVE",
"274 305 CURVE SMOOTH",
"178 313 OFFCURVE",
"156 337 OFFCURVE",
"156 385 CURVE SMOOTH",
"156 434 OFFCURVE",
"195 462 OFFCURVE",
"262 462 CURVE SMOOTH",
"343 462 OFFCURVE",
"370 422 OFFCURVE",
"370 358 CURVE",
"469 358 LINE",
"469 362 LINE SMOOTH",
"469 469 OFFCURVE",
"411 542 OFFCURVE",
"262 542 CURVE SMOOTH",
"137 542 OFFCURVE",
"56 485 OFFCURVE",
"56 383 CURVE SMOOTH",
"56 376 LINE SMOOTH",
"56 290 OFFCURVE",
"105 245 OFFCURVE",
"250 232 CURVE SMOOTH",
"339 225 OFFCURVE",
"373 208 OFFCURVE",
"373 150 CURVE SMOOTH",
"373 101 OFFCURVE",
"336 68 OFFCURVE",
"262 68 CURVE SMOOTH"
);
}
);
width = 524;
}
);
leftKerningGroup = s;
rightKerningGroup = s;
unicode = 0073;
},
{
glyphname = sacute;
layers = (
{
layerId = "C878BE66-A124-485F-B3BE-91B1D41027C7";
paths = (
{
closed = 1;
nodes = (
"175 68 OFFCURVE",
"149 114 OFFCURVE",
"149 164 CURVE",
"50 164 LINE",
"50 160 LINE SMOOTH",
"50 71 OFFCURVE",
"110 -12 OFFCURVE",
"262 -12 CURVE SMOOTH",
"401 -12 OFFCURVE",
"475 54 OFFCURVE",
"475 152 CURVE SMOOTH",
"475 158 LINE SMOOTH",
"475 260 OFFCURVE",
"407 295 OFFCURVE",
"274 305 CURVE SMOOTH",
"178 313 OFFCURVE",
"156 337 OFFCURVE",
"156 385 CURVE SMOOTH",
"156 434 OFFCURVE",
"195 462 OFFCURVE",
"262 462 CURVE SMOOTH",
"343 462 OFFCURVE",
"370 422 OFFCURVE",
"370 358 CURVE",
"469 358 LINE",
"469 362 LINE SMOOTH",
"469 469 OFFCURVE",
"411 542 OFFCURVE",
"262 542 CURVE SMOOTH",
"137 542 OFFCURVE",
"56 485 OFFCURVE",
"56 383 CURVE SMOOTH",
"56 376 LINE SMOOTH",
"56 290 OFFCURVE",
"105 245 OFFCURVE",
"250 232 CURVE SMOOTH",
"339 225 OFFCURVE",
"373 208 OFFCURVE",
"373 150 CURVE SMOOTH",
"373 101 OFFCURVE",
"336 68 OFFCURVE",
"262 68 CURVE SMOOTH"
);
},
{
closed = 1;
nodes = (
"211 607 LINE",
"313 607 LINE",
"412 780 LINE",
"302 780 LINE"
);
}
);
width = 524;
}
);
leftKerningGroup = s;
rightKerningGroup = s;
unicode = 015B;
},
{
glyphname = scircumflex;
layers = (
{
layerId = "C878BE66-A124-485F-B3BE-91B1D41027C7";
paths = (
{
closed = 1;
nodes = (
"175 68 OFFCURVE",
"149 114 OFFCURVE",
"149 164 CURVE",
"50 164 LINE",
"50 160 LINE SMOOTH",
"50 71 OFFCURVE",
"110 -12 OFFCURVE",
"262 -12 CURVE SMOOTH",
"401 -12 OFFCURVE",
"475 54 OFFCURVE",
"475 152 CURVE SMOOTH",
"475 158 LINE SMOOTH",
"475 260 OFFCURVE",
"407 295 OFFCURVE",
"274 305 CURVE SMOOTH",
"178 313 OFFCURVE",
"156 337 OFFCURVE",
"156 385 CURVE SMOOTH",
"156 434 OFFCURVE",
"195 462 OFFCURVE",
"262 462 CURVE SMOOTH",
"343 462 OFFCURVE",
"370 422 OFFCURVE",
"370 358 CURVE",
"469 358 LINE",
"469 362 LINE SMOOTH",
"469 469 OFFCURVE",
"411 542 OFFCURVE",
"262 542 CURVE SMOOTH",
"137 542 OFFCURVE",
"56 485 OFFCURVE",
"56 383 CURVE SMOOTH",
"56 376 LINE SMOOTH",
"56 290 OFFCURVE",
"105 245 OFFCURVE",
"250 232 CURVE SMOOTH",
"339 225 OFFCURVE",
"373 208 OFFCURVE",
"373 150 CURVE SMOOTH",
"373 101 OFFCURVE",
"336 68 OFFCURVE",
"262 68 CURVE SMOOTH"
);
},
{
closed = 1;
nodes = (
"262 709 LINE",
"347 607 LINE",
"441 607 LINE",
"309 780 LINE",
"215 780 LINE",
"83 607 LINE",
"177 607 LINE"
);
}
);
width = 524;
}
);
leftKerningGroup = s;
rightKerningGroup = s;
unicode = 015D;
},
{
glyphname = scedilla;
layers = (
{
layerId = "C878BE66-A124-485F-B3BE-91B1D41027C7";
paths = (
{
closed = 1;
nodes = (
"187 -203 OFFCURVE",
"224 -213 OFFCURVE",
"265 -213 CURVE SMOOTH",
"333 -213 OFFCURVE",
"374 -187 OFFCURVE",
"374 -131 CURVE SMOOTH",
"374 -74 OFFCURVE",
"325 -51 OFFCURVE",
"272 -50 CURVE",
"286 -11 LINE",
"409 -4 OFFCURVE",
"475 60 OFFCURVE",
"475 152 CURVE SMOOTH",
"475 158 LINE SMOOTH",
"475 260 OFFCURVE",
"407 295 OFFCURVE",
"274 305 CURVE SMOOTH",
"178 313 OFFCURVE",
"156 337 OFFCURVE",
"156 385 CURVE SMOOTH",
"156 434 OFFCURVE",
"195 462 OFFCURVE",
"262 462 CURVE SMOOTH",
"343 462 OFFCURVE",
"370 422 OFFCURVE",
"370 358 CURVE",
"469 358 LINE",
"469 362 LINE SMOOTH",
"469 469 OFFCURVE",
"411 542 OFFCURVE",
"262 542 CURVE SMOOTH",
"137 542 OFFCURVE",
"56 485 OFFCURVE",
"56 383 CURVE SMOOTH",
"56 376 LINE SMOOTH",
"56 290 OFFCURVE",
"105 245 OFFCURVE",
"250 232 CURVE SMOOTH",
"339 225 OFFCURVE",
"373 208 OFFCURVE",
"373 150 CURVE SMOOTH",
"373 101 OFFCURVE",
"336 68 OFFCURVE",
"262 68 CURVE SMOOTH",
"175 68 OFFCURVE",
"149 114 OFFCURVE",
"149 164 CURVE",
"50 164 LINE",
"50 160 LINE SMOOTH",
"50 78 OFFCURVE",
"101 1 OFFCURVE",
"229 -10 CURVE",
"204 -77 LINE",
"221 -102 LINE",
"221 -102 OFFCURVE",
"237 -99 OFFCURVE",
"253 -99 CURVE SMOOTH",
"289 -99 OFFCURVE",
"310 -106 OFFCURVE",
"310 -126 CURVE SMOOTH",
"310 -147 OFFCURVE",
"293 -155 OFFCURVE",
"256 -155 CURVE SMOOTH",
"230 -155 OFFCURVE",
"202 -148 OFFCURVE",
"186 -139 CURVE",
"168 -191 LINE"
);
}
);
width = 524;
}
);
leftKerningGroup = s;
rightKerningGroup = s;
unicode = 015F;
},
{
glyphname = scaron;
layers = (
{
layerId = "C878BE66-A124-485F-B3BE-91B1D41027C7";
paths = (
{
closed = 1;
nodes = (
"175 68 OFFCURVE",
"149 114 OFFCURVE",
"149 164 CURVE",
"50 164 LINE",
"50 160 LINE SMOOTH",
"50 71 OFFCURVE",
"110 -12 OFFCURVE",
"262 -12 CURVE SMOOTH",
"401 -12 OFFCURVE",
"475 54 OFFCURVE",
"475 152 CURVE SMOOTH",
"475 158 LINE SMOOTH",
"475 260 OFFCURVE",
"407 295 OFFCURVE",
"274 305 CURVE SMOOTH",
"178 313 OFFCURVE",
"156 337 OFFCURVE",
"156 385 CURVE SMOOTH",
"156 434 OFFCURVE",
"195 462 OFFCURVE",
"262 462 CURVE SMOOTH",
"343 462 OFFCURVE",
"370 422 OFFCURVE",
"370 358 CURVE",
"469 358 LINE",
"469 362 LINE SMOOTH",
"469 469 OFFCURVE",
"411 542 OFFCURVE",
"262 542 CURVE SMOOTH",
"137 542 OFFCURVE",
"56 485 OFFCURVE",
"56 383 CURVE SMOOTH",
"56 376 LINE SMOOTH",
"56 290 OFFCURVE",
"105 245 OFFCURVE",
"250 232 CURVE SMOOTH",
"339 225 OFFCURVE",
"373 208 OFFCURVE",
"373 150 CURVE SMOOTH",
"373 101 OFFCURVE",
"336 68 OFFCURVE",
"262 68 CURVE SMOOTH"
);
},
{
closed = 1;
nodes = (
"215 607 LINE",
"309 607 LINE",
"441 780 LINE",
"347 780 LINE",
"262 678 LINE",
"177 780 LINE",
"83 780 LINE"
);
}
);
width = 524;
}
);
leftKerningGroup = s;
rightKerningGroup = s;
unicode = 0161;
},
{
glyphname = scommaaccent;
layers = (
{
layerId = "C878BE66-A124-485F-B3BE-91B1D41027C7";
paths = (
{
closed = 1;
nodes = (
"175 68 OFFCURVE",
"149 114 OFFCURVE",
"149 164 CURVE",
"50 164 LINE",
"50 160 LINE SMOOTH",
"50 71 OFFCURVE",
"110 -12 OFFCURVE",
"262 -12 CURVE SMOOTH",
"401 -12 OFFCURVE",
"475 54 OFFCURVE",
"475 152 CURVE SMOOTH",
"475 158 LINE SMOOTH",
"475 260 OFFCURVE",
"407 295 OFFCURVE",
"274 305 CURVE SMOOTH",
"178 313 OFFCURVE",
"156 337 OFFCURVE",
"156 385 CURVE SMOOTH",
"156 434 OFFCURVE",
"195 462 OFFCURVE",
"262 462 CURVE SMOOTH",
"343 462 OFFCURVE",
"370 422 OFFCURVE",
"370 358 CURVE",
"469 358 LINE",
"469 362 LINE SMOOTH",
"469 469 OFFCURVE",
"411 542 OFFCURVE",
"262 542 CURVE SMOOTH",
"137 542 OFFCURVE",
"56 485 OFFCURVE",
"56 383 CURVE SMOOTH",
"56 376 LINE SMOOTH",
"56 290 OFFCURVE",
"105 245 OFFCURVE",
"250 232 CURVE SMOOTH",
"339 225 OFFCURVE",
"373 208 OFFCURVE",
"373 150 CURVE SMOOTH",
"373 101 OFFCURVE",
"336 68 OFFCURVE",
"262 68 CURVE SMOOTH"
);
},
{
closed = 1;
nodes = (
"211 -51 LINE",
"211 -129 LINE",
"268 -129 LINE",
"259 -164 OFFCURVE",
"232 -176 OFFCURVE",
"193 -176 CURVE",
"193 -219 LINE",
"272 -219 OFFCURVE",
"313 -181 OFFCURVE",
"313 -105 CURVE SMOOTH",
"313 -51 LINE"
);
}
);
width = 524;
}
);
leftKerningGroup = s;
rightKerningGroup = s;
unicode = 0219;
},
{
glyphname = t;
layers = (
{
layerId = "C878BE66-A124-485F-B3BE-91B1D41027C7";
paths = (
{
closed = 1;
nodes = (
"210 680 LINE",
"110 680 LINE",
"110 530 LINE",
"27 530 LINE",
"27 441 LINE",
"110 441 LINE",
"110 160 LINE SMOOTH",
"110 34 OFFCURVE",
"180 -12 OFFCURVE",
"280 -12 CURVE SMOOTH",
"324 -12 OFFCURVE",
"350 -4 OFFCURVE",
"358 0 CURVE",
"358 84 LINE",
"350 81 OFFCURVE",
"324 76 OFFCURVE",
"303 76 CURVE SMOOTH",
"243 76 OFFCURVE",
"210 94 OFFCURVE",
"210 171 CURVE SMOOTH",
"210 441 LINE",
"368 441 LINE",
"368 530 LINE",
"210 530 LINE"
);
}
);
width = 411;
}
);
leftKerningGroup = t;
unicode = 0074;
},
{
glyphname = tcommaaccent;
layers = (
{
layerId = "C878BE66-A124-485F-B3BE-91B1D41027C7";
paths = (
{
closed = 1;
nodes = (
"210 680 LINE",
"110 680 LINE",
"110 530 LINE",
"27 530 LINE",
"27 441 LINE",
"110 441 LINE",
"110 160 LINE SMOOTH",
"110 34 OFFCURVE",
"180 -12 OFFCURVE",
"280 -12 CURVE SMOOTH",
"324 -12 OFFCURVE",
"350 -4 OFFCURVE",
"358 0 CURVE",
"358 84 LINE",
"350 81 OFFCURVE",
"324 76 OFFCURVE",
"303 76 CURVE SMOOTH",
"243 76 OFFCURVE",
"210 94 OFFCURVE",
"210 171 CURVE SMOOTH",
"210 441 LINE",
"368 441 LINE",
"368 530 LINE",
"210 530 LINE"
);
},
{
closed = 1;
nodes = (
"183 -51 LINE",
"183 -129 LINE",
"240 -129 LINE",
"231 -164 OFFCURVE",
"204 -176 OFFCURVE",
"165 -176 CURVE",
"165 -219 LINE",
"244 -219 OFFCURVE",
"285 -181 OFFCURVE",
"285 -105 CURVE SMOOTH",
"285 -51 LINE"
);
}
);
width = 411;
}
);
leftKerningGroup = t;
unicode = 0163;
},
{
glyphname = tcaron;
layers = (
{
layerId = "C878BE66-A124-485F-B3BE-91B1D41027C7";
paths = (
{
closed = 1;
nodes = (
"210 680 LINE",
"110 680 LINE",
"110 530 LINE",
"27 530 LINE",
"27 441 LINE",
"110 441 LINE",
"110 160 LINE SMOOTH",
"110 34 OFFCURVE",
"180 -12 OFFCURVE",
"280 -12 CURVE SMOOTH",
"324 -12 OFFCURVE",
"350 -4 OFFCURVE",
"358 0 CURVE",
"358 84 LINE",
"350 81 OFFCURVE",
"324 76 OFFCURVE",
"303 76 CURVE SMOOTH",
"243 76 OFFCURVE",
"210 94 OFFCURVE",
"210 171 CURVE SMOOTH",
"210 441 LINE",
"368 441 LINE",
"368 530 LINE",
"210 530 LINE"
);
},
{
closed = 1;
nodes = (
"277 607 LINE",
"329 607 LINE",
"350 800 LINE",
"277 800 LINE"
);
}
);
width = 411;
}
);
leftKerningGroup = t;
unicode = 0165;
},
{
glyphname = tdotaccent;
layers = (
{
layerId = "C878BE66-A124-485F-B3BE-91B1D41027C7";
paths = (
{
closed = 1;
nodes = (
"210 680 LINE",
"110 680 LINE",
"110 530 LINE",
"27 530 LINE",
"27 441 LINE",
"110 441 LINE",
"110 160 LINE SMOOTH",
"110 34 OFFCURVE",
"180 -12 OFFCURVE",
"280 -12 CURVE SMOOTH",
"324 -12 OFFCURVE",
"350 -4 OFFCURVE",
"358 0 CURVE",
"358 84 LINE",
"350 81 OFFCURVE",
"324 76 OFFCURVE",
"303 76 CURVE SMOOTH",
"243 76 OFFCURVE",
"210 94 OFFCURVE",
"210 171 CURVE SMOOTH",
"210 441 LINE",
"368 441 LINE",
"368 530 LINE",
"210 530 LINE"
);
},
{
closed = 1;
nodes = (
"111 816 LINE",
"111 734 LINE",
"209 734 LINE",
"209 816 LINE"
);
}
);
width = 411;
}
);
leftKerningGroup = t;
unicode = 1E6B;
},
{
glyphname = u;
layers = (
{
layerId = "C878BE66-A124-485F-B3BE-91B1D41027C7";
paths = (
{
closed = 1;
nodes = (
"56 163 LINE SMOOTH",
"56 65 OFFCURVE",
"108 -12 OFFCURVE",
"218 -12 CURVE SMOOTH",
"305 -12 OFFCURVE",
"361 25 OFFCURVE",
"393 73 CURVE",
"404 0 LINE",
"491 0 LINE",
"484 150 LINE",
"484 530 LINE",
"384 530 LINE",
"384 147 LINE",
"365 118 OFFCURVE",
"327 76 OFFCURVE",
"255 76 CURVE SMOOTH",
"191 76 OFFCURVE",
"156 113 OFFCURVE",
"156 179 CURVE SMOOTH",
"156 530 LINE",
"56 530 LINE"
);
}
);
width = 545;
}
);
leftKerningGroup = u;
unicode = 0075;
},
{
glyphname = ugrave;
layers = (
{
layerId = "C878BE66-A124-485F-B3BE-91B1D41027C7";
paths = (
{
closed = 1;
nodes = (
"56 163 LINE SMOOTH",
"56 65 OFFCURVE",
"108 -12 OFFCURVE",
"218 -12 CURVE SMOOTH",
"305 -12 OFFCURVE",
"361 25 OFFCURVE",
"393 73 CURVE",
"404 0 LINE",
"491 0 LINE",
"484 150 LINE",
"484 530 LINE",
"384 530 LINE",
"384 147 LINE",
"365 118 OFFCURVE",
"327 76 OFFCURVE",
"255 76 CURVE SMOOTH",
"191 76 OFFCURVE",
"156 113 OFFCURVE",
"156 179 CURVE SMOOTH",
"156 530 LINE",
"56 530 LINE"
);
},
{
closed = 1;
nodes = (
"219 607 LINE",
"321 607 LINE",
"230 780 LINE",
"120 780 LINE"
);
}
);
width = 545;
}
);
leftKerningGroup = u;
unicode = 00F9;
},
{
glyphname = uacute;
layers = (
{
layerId = "C878BE66-A124-485F-B3BE-91B1D41027C7";
paths = (
{
closed = 1;
nodes = (
"56 163 LINE SMOOTH",
"56 65 OFFCURVE",
"108 -12 OFFCURVE",
"218 -12 CURVE SMOOTH",
"305 -12 OFFCURVE",
"361 25 OFFCURVE",
"393 73 CURVE",
"404 0 LINE",
"491 0 LINE",
"484 150 LINE",
"484 530 LINE",
"384 530 LINE",
"384 147 LINE",
"365 118 OFFCURVE",
"327 76 OFFCURVE",
"255 76 CURVE SMOOTH",
"191 76 OFFCURVE",
"156 113 OFFCURVE",
"156 179 CURVE SMOOTH",
"156 530 LINE",
"56 530 LINE"
);
},
{
closed = 1;
nodes = (
"219 607 LINE",
"321 607 LINE",
"420 780 LINE",
"310 780 LINE"
);
}
);
width = 545;
}
);
leftKerningGroup = u;
unicode = 00FA;
},
{
glyphname = ucircumflex;
layers = (
{
layerId = "C878BE66-A124-485F-B3BE-91B1D41027C7";
paths = (
{
closed = 1;
nodes = (
"56 163 LINE SMOOTH",
"56 65 OFFCURVE",
"108 -12 OFFCURVE",
"218 -12 CURVE SMOOTH",
"305 -12 OFFCURVE",
"361 25 OFFCURVE",
"393 73 CURVE",
"404 0 LINE",
"491 0 LINE",
"484 150 LINE",
"484 530 LINE",
"384 530 LINE",
"384 147 LINE",
"365 118 OFFCURVE",
"327 76 OFFCURVE",
"255 76 CURVE SMOOTH",
"191 76 OFFCURVE",
"156 113 OFFCURVE",
"156 179 CURVE SMOOTH",
"156 530 LINE",
"56 530 LINE"
);
},
{
closed = 1;
nodes = (
"270 709 LINE",
"355 607 LINE",
"449 607 LINE",
"317 780 LINE",
"223 780 LINE",
"91 607 LINE",
"185 607 LINE"
);
}
);
width = 545;
}
);
leftKerningGroup = u;
unicode = 00FB;
},
{
glyphname = udieresis;
layers = (
{
layerId = "C878BE66-A124-485F-B3BE-91B1D41027C7";
paths = (
{
closed = 1;
nodes = (
"56 163 LINE SMOOTH",
"56 65 OFFCURVE",
"108 -12 OFFCURVE",
"218 -12 CURVE SMOOTH",
"305 -12 OFFCURVE",
"361 25 OFFCURVE",
"393 73 CURVE",
"404 0 LINE",
"491 0 LINE",
"484 150 LINE",
"484 530 LINE",
"384 530 LINE",
"384 147 LINE",
"365 118 OFFCURVE",
"327 76 OFFCURVE",
"255 76 CURVE SMOOTH",
"191 76 OFFCURVE",
"156 113 OFFCURVE",
"156 179 CURVE SMOOTH",
"156 530 LINE",
"56 530 LINE"
);
},
{
closed = 1;
nodes = (
"304 754 LINE",
"304 639 LINE",
"420 639 LINE",
"420 754 LINE"
);
},
{
closed = 1;
nodes = (
"120 754 LINE",
"120 639 LINE",
"236 639 LINE",
"236 754 LINE"
);
}
);
width = 545;
}
);
leftKerningGroup = u;
unicode = 00FC;
},
{
glyphname = utilde;
layers = (
{
layerId = "C878BE66-A124-485F-B3BE-91B1D41027C7";
paths = (
{
closed = 1;
nodes = (
"56 163 LINE SMOOTH",
"56 65 OFFCURVE",
"108 -12 OFFCURVE",
"218 -12 CURVE SMOOTH",
"305 -12 OFFCURVE",
"361 25 OFFCURVE",
"393 73 CURVE",
"404 0 LINE",
"491 0 LINE",
"484 150 LINE",
"484 530 LINE",
"384 530 LINE",
"384 147 LINE",
"365 118 OFFCURVE",
"327 76 OFFCURVE",
"255 76 CURVE SMOOTH",
"191 76 OFFCURVE",
"156 113 OFFCURVE",
"156 179 CURVE SMOOTH",
"156 530 LINE",
"56 530 LINE"
);
},
{
closed = 1;
nodes = (
"369 725 OFFCURVE",
"354 714 OFFCURVE",
"335 714 CURVE SMOOTH",
"295 714 OFFCURVE",
"253 768 OFFCURVE",
"189 768 CURVE SMOOTH",
"137 768 OFFCURVE",
"98 731 OFFCURVE",
"98 645 CURVE",
"171 645 LINE",
"171 675 OFFCURVE",
"186 686 OFFCURVE",
"205 686 CURVE SMOOTH",
"245 686 OFFCURVE",
"287 632 OFFCURVE",
"351 632 CURVE SMOOTH",
"403 632 OFFCURVE",
"442 669 OFFCURVE",
"442 755 CURVE",
"369 755 LINE"
);
}
);
width = 545;
}
);
leftKerningGroup = u;
unicode = 0169;
},
{
glyphname = umacron;
layers = (
{
layerId = "C878BE66-A124-485F-B3BE-91B1D41027C7";
paths = (
{
closed = 1;
nodes = (
"56 163 LINE SMOOTH",
"56 65 OFFCURVE",
"108 -12 OFFCURVE",
"218 -12 CURVE SMOOTH",
"305 -12 OFFCURVE",
"361 25 OFFCURVE",
"393 73 CURVE",
"404 0 LINE",
"491 0 LINE",
"484 150 LINE",
"484 530 LINE",
"384 530 LINE",
"384 147 LINE",
"365 118 OFFCURVE",
"327 76 OFFCURVE",
"255 76 CURVE SMOOTH",
"191 76 OFFCURVE",
"156 113 OFFCURVE",
"156 179 CURVE SMOOTH",
"156 530 LINE",
"56 530 LINE"
);
},
{
closed = 1;
nodes = (
"398 648 LINE",
"398 739 LINE",
"142 739 LINE",
"142 648 LINE"
);
}
);
width = 545;
}
);
leftKerningGroup = u;
unicode = 016B;
},
{
glyphname = ubreve;
layers = (
{
layerId = "C878BE66-A124-485F-B3BE-91B1D41027C7";
paths = (
{
closed = 1;
nodes = (
"56 163 LINE SMOOTH",
"56 65 OFFCURVE",
"108 -12 OFFCURVE",
"218 -12 CURVE SMOOTH",
"305 -12 OFFCURVE",
"361 25 OFFCURVE",
"393 73 CURVE",
"404 0 LINE",
"491 0 LINE",
"484 150 LINE",
"484 530 LINE",
"384 530 LINE",
"384 147 LINE",
"365 118 OFFCURVE",
"327 76 OFFCURVE",
"255 76 CURVE SMOOTH",
"191 76 OFFCURVE",
"156 113 OFFCURVE",
"156 179 CURVE SMOOTH",
"156 530 LINE",
"56 530 LINE"
);
},
{
closed = 1;
nodes = (
"393 595 OFFCURVE",
"442 673 OFFCURVE",
"440 780 CURVE",
"363 780 LINE",
"363 714 OFFCURVE",
"333 676 OFFCURVE",
"270 676 CURVE SMOOTH",
"207 676 OFFCURVE",
"177 714 OFFCURVE",
"177 780 CURVE",
"100 780 LINE",
"98 673 OFFCURVE",
"147 595 OFFCURVE",
"270 595 CURVE SMOOTH"
);
}
);
width = 545;
}
);
leftKerningGroup = u;
unicode = 016D;
},
{
glyphname = uring;
layers = (
{
layerId = "C878BE66-A124-485F-B3BE-91B1D41027C7";
paths = (
{
closed = 1;
nodes = (
"56 163 LINE SMOOTH",
"56 65 OFFCURVE",
"108 -12 OFFCURVE",
"218 -12 CURVE SMOOTH",
"305 -12 OFFCURVE",
"361 25 OFFCURVE",
"393 73 CURVE",
"404 0 LINE",
"491 0 LINE",
"484 150 LINE",
"484 530 LINE",
"384 530 LINE",
"384 147 LINE",
"365 118 OFFCURVE",
"327 76 OFFCURVE",
"255 76 CURVE SMOOTH",
"191 76 OFFCURVE",
"156 113 OFFCURVE",
"156 179 CURVE SMOOTH",
"156 530 LINE",
"56 530 LINE"
);
},
{
closed = 1;
nodes = (
"172 639 OFFCURVE",
"216 595 OFFCURVE",
"270 595 CURVE SMOOTH",
"324 595 OFFCURVE",
"368 639 OFFCURVE",
"368 694 CURVE SMOOTH",
"368 748 OFFCURVE",
"324 792 OFFCURVE",
"270 792 CURVE SMOOTH",
"216 792 OFFCURVE",
"172 748 OFFCURVE",
"172 694 CURVE SMOOTH"
);
},
{
closed = 1;
nodes = (
"216 723 OFFCURVE",
"240 748 OFFCURVE",
"270 748 CURVE SMOOTH",
"300 748 OFFCURVE",
"324 723 OFFCURVE",
"324 694 CURVE SMOOTH",
"324 664 OFFCURVE",
"300 639 OFFCURVE",
"270 639 CURVE SMOOTH",
"240 639 OFFCURVE",
"216 664 OFFCURVE",
"216 694 CURVE SMOOTH"
);
}
);
width = 545;
}
);
leftKerningGroup = u;
unicode = 016F;
},
{
glyphname = uhungarumlaut;
layers = (
{
layerId = "C878BE66-A124-485F-B3BE-91B1D41027C7";
paths = (
{
closed = 1;
nodes = (
"56 163 LINE SMOOTH",
"56 65 OFFCURVE",
"108 -12 OFFCURVE",
"218 -12 CURVE SMOOTH",
"305 -12 OFFCURVE",
"361 25 OFFCURVE",
"393 73 CURVE",
"404 0 LINE",
"491 0 LINE",
"484 150 LINE",
"484 530 LINE",
"384 530 LINE",
"384 147 LINE",
"365 118 OFFCURVE",
"327 76 OFFCURVE",
"255 76 CURVE SMOOTH",
"191 76 OFFCURVE",
"156 113 OFFCURVE",
"156 179 CURVE SMOOTH",
"156 530 LINE",
"56 530 LINE"
);
},
{
closed = 1;
nodes = (
"159 607 LINE",
"244 607 LINE",
"331 780 LINE",
"237 780 LINE"
);
},
{
closed = 1;
nodes = (
"295 607 LINE",
"380 607 LINE",
"479 780 LINE",
"386 780 LINE"
);
}
);
width = 545;
}
);
leftKerningGroup = u;
unicode = 0171;
},
{
glyphname = uogonek;
layers = (
{
layerId = "C878BE66-A124-485F-B3BE-91B1D41027C7";
paths = (
{
closed = 1;
nodes = (
"56 163 LINE SMOOTH",
"56 65 OFFCURVE",
"108 -12 OFFCURVE",
"218 -12 CURVE SMOOTH",
"305 -12 OFFCURVE",
"361 25 OFFCURVE",
"393 73 CURVE",
"402 14 LINE",
"363 -15 OFFCURVE",
"335 -56 OFFCURVE",
"335 -111 CURVE SMOOTH",
"335 -181 OFFCURVE",
"383 -213 OFFCURVE",
"454 -213 CURVE SMOOTH",
"489 -213 OFFCURVE",
"526 -204 OFFCURVE",
"547 -191 CURVE",
"522 -123 LINE",
"510 -130 OFFCURVE",
"490 -136 OFFCURVE",
"467 -136 CURVE SMOOTH",
"434 -136 OFFCURVE",
"416 -117 OFFCURVE",
"416 -91 CURVE SMOOTH",
"416 -47 OFFCURVE",
"449 -18 OFFCURVE",
"491 0 CURVE",
"484 150 LINE",
"484 530 LINE",
"384 530 LINE",
"384 147 LINE",
"365 118 OFFCURVE",
"327 76 OFFCURVE",
"255 76 CURVE SMOOTH",
"191 76 OFFCURVE",
"156 113 OFFCURVE",
"156 179 CURVE SMOOTH",
"156 530 LINE",
"56 530 LINE"
);
}
);
width = 545;
}
);
leftKerningGroup = u;
unicode = 0173;
},
{
glyphname = v;
layers = (
{
layerId = "C878BE66-A124-485F-B3BE-91B1D41027C7";
paths = (
{
closed = 1;
nodes = (
"331 0 LINE",
"505 530 LINE",
"400 530 LINE",
"263 87 LINE",
"125 530 LINE",
"20 530 LINE",
"194 0 LINE"
);
}
);
width = 525;
}
);
unicode = 0076;
},
{
glyphname = w;
layers = (
{
layerId = "C878BE66-A124-485F-B3BE-91B1D41027C7";
paths = (
{
closed = 1;
nodes = (
"472 0 LINE",
"600 0 LINE",
"707 530 LINE",
"608 530 LINE",
"533 107 LINE",
"427 530 LINE",
"306 530 LINE",
"200 107 LINE",
"126 530 LINE",
"27 530 LINE",
"133 0 LINE",
"262 0 LINE",
"367 422 LINE"
);
}
);
width = 733;
}
);
leftKerningGroup = w;
rightKerningGroup = w;
unicode = 0077;
},
{
glyphname = wcircumflex;
layers = (
{
layerId = "C878BE66-A124-485F-B3BE-91B1D41027C7";
paths = (
{
closed = 1;
nodes = (
"472 0 LINE",
"600 0 LINE",
"707 530 LINE",
"608 530 LINE",
"533 107 LINE",
"427 530 LINE",
"306 530 LINE",
"200 107 LINE",
"126 530 LINE",
"27 530 LINE",
"133 0 LINE",
"262 0 LINE",
"367 422 LINE"
);
},
{
closed = 1;
nodes = (
"367 709 LINE",
"452 607 LINE",
"546 607 LINE",
"414 780 LINE",
"320 780 LINE",
"188 607 LINE",
"282 607 LINE"
);
}
);
width = 733;
}
);
leftKerningGroup = w;
rightKerningGroup = w;
unicode = 0175;
},
{
glyphname = wgrave;
layers = (
{
layerId = "C878BE66-A124-485F-B3BE-91B1D41027C7";
paths = (
{
closed = 1;
nodes = (
"472 0 LINE",
"600 0 LINE",
"707 530 LINE",
"608 530 LINE",
"533 107 LINE",
"427 530 LINE",
"306 530 LINE",
"200 107 LINE",
"126 530 LINE",
"27 530 LINE",
"133 0 LINE",
"262 0 LINE",
"367 422 LINE"
);
},
{
closed = 1;
nodes = (
"316 607 LINE",
"418 607 LINE",
"327 780 LINE",
"217 780 LINE"
);
}
);
width = 733;
}
);
leftKerningGroup = w;
rightKerningGroup = w;
unicode = 1E81;
},
{
glyphname = wacute;
layers = (
{
layerId = "C878BE66-A124-485F-B3BE-91B1D41027C7";
paths = (
{
closed = 1;
nodes = (
"472 0 LINE",
"600 0 LINE",
"707 530 LINE",
"608 530 LINE",
"533 107 LINE",
"427 530 LINE",
"306 530 LINE",
"200 107 LINE",
"126 530 LINE",
"27 530 LINE",
"133 0 LINE",
"262 0 LINE",
"367 422 LINE"
);
},
{
closed = 1;
nodes = (
"316 607 LINE",
"418 607 LINE",
"517 780 LINE",
"407 780 LINE"
);
}
);
width = 733;
}
);
leftKerningGroup = w;
rightKerningGroup = w;
unicode = 1E83;
},
{
glyphname = wdieresis;
layers = (
{
layerId = "C878BE66-A124-485F-B3BE-91B1D41027C7";
paths = (
{
closed = 1;
nodes = (
"472 0 LINE",
"600 0 LINE",
"707 530 LINE",
"608 530 LINE",
"533 107 LINE",
"427 530 LINE",
"306 530 LINE",
"200 107 LINE",
"126 530 LINE",
"27 530 LINE",
"133 0 LINE",
"262 0 LINE",
"367 422 LINE"
);
},
{
closed = 1;
nodes = (
"217 754 LINE",
"217 639 LINE",
"333 639 LINE",
"333 754 LINE"
);
},
{
closed = 1;
nodes = (
"401 754 LINE",
"401 639 LINE",
"517 639 LINE",
"517 754 LINE"
);
}
);
width = 733;
}
);
leftKerningGroup = w;
rightKerningGroup = w;
unicode = 1E85;
},
{
glyphname = x;
layers = (
{
layerId = "C878BE66-A124-485F-B3BE-91B1D41027C7";
paths = (
{
closed = 1;
nodes = (
"175 270 LINE",
"21 0 LINE",
"136 0 LINE",
"255 214 LINE",
"374 0 LINE",
"489 0 LINE",
"334 270 LINE",
"489 530 LINE",
"372 530 LINE",
"255 326 LINE",
"138 530 LINE",
"21 530 LINE"
);
}
);
width = 510;
}
);
unicode = 0078;
},
{
glyphname = y;
layers = (
{
layerId = "C878BE66-A124-485F-B3BE-91B1D41027C7";
paths = (
{
closed = 1;
nodes = (
"125 530 LINE",
"17 530 LINE",
"205 23 LINE",
"122 -200 LINE",
"239 -200 LINE",
"312 23 LINE",
"501 530 LINE",
"393 530 LINE",
"259 130 LINE"
);
}
);
width = 507;
}
);
leftKerningGroup = y;
rightKerningGroup = y;
unicode = 0079;
},
{
glyphname = yacute;
layers = (
{
layerId = "C878BE66-A124-485F-B3BE-91B1D41027C7";
paths = (
{
closed = 1;
nodes = (
"125 530 LINE",
"17 530 LINE",
"205 23 LINE",
"122 -200 LINE",
"239 -200 LINE",
"312 23 LINE",
"501 530 LINE",
"393 530 LINE",
"259 130 LINE"
);
},
{
closed = 1;
nodes = (
"208 607 LINE",
"310 607 LINE",
"409 780 LINE",
"299 780 LINE"
);
}
);
width = 507;
}
);
leftKerningGroup = y;
rightKerningGroup = y;
unicode = 00FD;
},
{
glyphname = ydieresis;
layers = (
{
layerId = "C878BE66-A124-485F-B3BE-91B1D41027C7";
paths = (
{
closed = 1;
nodes = (
"125 530 LINE",
"17 530 LINE",
"205 23 LINE",
"122 -200 LINE",
"239 -200 LINE",
"312 23 LINE",
"501 530 LINE",
"393 530 LINE",
"259 130 LINE"
);
},
{
closed = 1;
nodes = (
"293 754 LINE",
"293 639 LINE",
"409 639 LINE",
"409 754 LINE"
);
},
{
closed = 1;
nodes = (
"109 754 LINE",
"109 639 LINE",
"225 639 LINE",
"225 754 LINE"
);
}
);
width = 507;
}
);
leftKerningGroup = y;
rightKerningGroup = y;
unicode = 00FF;
},
{
glyphname = ycircumflex;
layers = (
{
layerId = "C878BE66-A124-485F-B3BE-91B1D41027C7";
paths = (
{
closed = 1;
nodes = (
"125 530 LINE",
"17 530 LINE",
"205 23 LINE",
"122 -200 LINE",
"239 -200 LINE",
"312 23 LINE",
"501 530 LINE",
"393 530 LINE",
"259 130 LINE"
);
},
{
closed = 1;
nodes = (
"259 709 LINE",
"344 607 LINE",
"438 607 LINE",
"306 780 LINE",
"212 780 LINE",
"80 607 LINE",
"174 607 LINE"
);
}
);
width = 507;
}
);
leftKerningGroup = y;
rightKerningGroup = y;
unicode = 0177;
},
{
glyphname = ymacron;
layers = (
{
layerId = "C878BE66-A124-485F-B3BE-91B1D41027C7";
paths = (
{
closed = 1;
nodes = (
"125 530 LINE",
"17 530 LINE",
"205 23 LINE",
"122 -200 LINE",
"239 -200 LINE",
"312 23 LINE",
"501 530 LINE",
"393 530 LINE",
"259 130 LINE"
);
},
{
closed = 1;
nodes = (
"387 648 LINE",
"387 739 LINE",
"131 739 LINE",
"131 648 LINE"
);
}
);
width = 507;
}
);
leftKerningGroup = y;
rightKerningGroup = y;
unicode = 0233;
},
{
glyphname = ygrave;
layers = (
{
layerId = "C878BE66-A124-485F-B3BE-91B1D41027C7";
paths = (
{
closed = 1;
nodes = (
"125 530 LINE",
"17 530 LINE",
"205 23 LINE",
"122 -200 LINE",
"239 -200 LINE",
"312 23 LINE",
"501 530 LINE",
"393 530 LINE",
"259 130 LINE"
);
},
{
closed = 1;
nodes = (
"208 607 LINE",
"310 607 LINE",
"219 780 LINE",
"109 780 LINE"
);
}
);
width = 507;
}
);
leftKerningGroup = y;
rightKerningGroup = y;
unicode = 1EF3;
},
{
glyphname = z;
layers = (
{
layerId = "C878BE66-A124-485F-B3BE-91B1D41027C7";
paths = (
{
closed = 1;
nodes = (
"32 0 LINE",
"443 0 LINE",
"443 89 LINE",
"277 89 LINE",
"161 87 LINE",
"433 461 LINE",
"433 530 LINE",
"42 530 LINE",
"42 441 LINE",
"188 441 LINE",
"304 443 LINE",
"32 69 LINE"
);
}
);
width = 475;
}
);
leftKerningGroup = z;
rightKerningGroup = z;
unicode = 007A;
},
{
glyphname = zacute;
layers = (
{
layerId = "C878BE66-A124-485F-B3BE-91B1D41027C7";
paths = (
{
closed = 1;
nodes = (
"185 607 LINE",
"287 607 LINE",
"386 780 LINE",
"276 780 LINE"
);
},
{
closed = 1;
nodes = (
"32 0 LINE",
"443 0 LINE",
"443 89 LINE",
"277 89 LINE",
"161 87 LINE",
"433 461 LINE",
"433 530 LINE",
"42 530 LINE",
"42 441 LINE",
"188 441 LINE",
"304 443 LINE",
"32 69 LINE"
);
}
);
width = 475;
}
);
leftKerningGroup = z;
rightKerningGroup = z;
unicode = 017A;
},
{
glyphname = zdotaccent;
layers = (
{
layerId = "C878BE66-A124-485F-B3BE-91B1D41027C7";
paths = (
{
closed = 1;
nodes = (
"178 754 LINE",
"178 639 LINE",
"294 639 LINE",
"294 754 LINE"
);
},
{
closed = 1;
nodes = (
"32 0 LINE",
"443 0 LINE",
"443 89 LINE",
"277 89 LINE",
"161 87 LINE",
"433 461 LINE",
"433 530 LINE",
"42 530 LINE",
"42 441 LINE",
"188 441 LINE",
"304 443 LINE",
"32 69 LINE"
);
}
);
width = 475;
}
);
leftKerningGroup = z;
rightKerningGroup = z;
unicode = 017C;
},
{
glyphname = zcaron;
layers = (
{
layerId = "C878BE66-A124-485F-B3BE-91B1D41027C7";
paths = (
{
closed = 1;
nodes = (
"189 607 LINE",
"283 607 LINE",
"415 780 LINE",
"321 780 LINE",
"236 678 LINE",
"151 780 LINE",
"57 780 LINE"
);
},
{
closed = 1;
nodes = (
"32 0 LINE",
"443 0 LINE",
"443 89 LINE",
"277 89 LINE",
"161 87 LINE",
"433 461 LINE",
"433 530 LINE",
"42 530 LINE",
"42 441 LINE",
"188 441 LINE",
"304 443 LINE",
"32 69 LINE"
);
}
);
width = 475;
}
);
leftKerningGroup = z;
rightKerningGroup = z;
unicode = 017E;
},
{
glyphname = ordfeminine;
layers = (
{
layerId = "C878BE66-A124-485F-B3BE-91B1D41027C7";
paths = (
{
closed = 1;
nodes = (
"370 388 LINE",
"364 499 LINE",
"364 643 LINE SMOOTH",
"364 735 OFFCURVE",
"327 792 OFFCURVE",
"207 792 CURVE SMOOTH",
"83 792 OFFCURVE",
"50 724 OFFCURVE",
"50 659 CURVE SMOOTH",
"50 652 LINE",
"134 652 LINE",
"134 690 OFFCURVE",
"147 723 OFFCURVE",
"205 723 CURVE SMOOTH",
"259 723 OFFCURVE",
"275 695 OFFCURVE",
"275 643 CURVE SMOOTH",
"275 639 LINE",
"172 624 LINE SMOOTH",
"96 612 OFFCURVE",
"35 586 OFFCURVE",
"35 500 CURVE SMOOTH",
"35 492 LINE SMOOTH",
"35 429 OFFCURVE",
"72 378 OFFCURVE",
"153 378 CURVE SMOOTH",
"215 378 OFFCURVE",
"257 402 OFFCURVE",
"284 436 CURVE",
"292 388 LINE"
);
},
{
closed = 1;
nodes = (
"368 279 LINE",
"45 279 LINE",
"45 202 LINE",
"368 202 LINE"
);
},
{
closed = 1;
nodes = (
"140 451 OFFCURVE",
"123 477 OFFCURVE",
"123 504 CURVE SMOOTH",
"123 509 LINE SMOOTH",
"123 543 OFFCURVE",
"146 563 OFFCURVE",
"187 570 CURVE SMOOTH",
"275 585 LINE",
"275 495 LINE",
"261 477 OFFCURVE",
"233 451 OFFCURVE",
"183 451 CURVE SMOOTH"
);
}
);
width = 403;
}
);
unicode = 00AA;
},
{
glyphname = ordmasculine;
layers = (
{
layerId = "C878BE66-A124-485F-B3BE-91B1D41027C7";
paths = (
{
closed = 1;
nodes = (
"390 597 LINE SMOOTH",
"390 709 OFFCURVE",
"335 792 OFFCURVE",
"213 792 CURVE SMOOTH",
"91 792 OFFCURVE",
"37 709 OFFCURVE",
"37 597 CURVE SMOOTH",
"37 574 LINE SMOOTH",
"37 461 OFFCURVE",
"91 378 OFFCURVE",
"213 378 CURVE SMOOTH",
"335 378 OFFCURVE",
"390 461 OFFCURVE",
"390 574 CURVE SMOOTH"
);
},
{
closed = 1;
nodes = (
"126 597 LINE SMOOTH",
"126 669 OFFCURVE",
"153 715 OFFCURVE",
"213 715 CURVE SMOOTH",
"274 715 OFFCURVE",
"301 669 OFFCURVE",
"301 597 CURVE SMOOTH",
"301 574 LINE SMOOTH",
"301 501 OFFCURVE",
"274 456 OFFCURVE",
"213 456 CURVE SMOOTH",
"153 456 OFFCURVE",
"126 501 OFFCURVE",
"126 574 CURVE SMOOTH"
);
},
{
closed = 1;
nodes = (
"382 202 LINE",
"382 279 LINE",
"45 279 LINE",
"45 202 LINE"
);
}
);
width = 427;
}
);
unicode = 00BA;
},
{
glyphname = germandbls;
layers = (
{
layerId = "C878BE66-A124-485F-B3BE-91B1D41027C7";
paths = (
{
closed = 1;
nodes = (
"352 303 LINE SMOOTH",
"431 251 OFFCURVE",
"467 212 OFFCURVE",
"467 161 CURVE SMOOTH",
"467 114 OFFCURVE",
"454 68 OFFCURVE",
"384 68 CURVE SMOOTH",
"316 68 OFFCURVE",
"301 114 OFFCURVE",
"301 164 CURVE",
"213 164 LINE",
"213 158 LINE SMOOTH",
"213 75 OFFCURVE",
"242 -12 OFFCURVE",
"386 -12 CURVE SMOOTH",
"521 -12 OFFCURVE",
"567 78 OFFCURVE",
"567 161 CURVE SMOOTH",
"567 167 LINE SMOOTH",
"567 249 OFFCURVE",
"514 307 OFFCURVE",
"419 370 CURVE SMOOTH",
"379 397 LINE",
"459 451 OFFCURVE",
"500 508 OFFCURVE",
"500 596 CURVE SMOOTH",
"500 604 LINE SMOOTH",
"500 721 OFFCURVE",
"431 812 OFFCURVE",
"280 812 CURVE SMOOTH",
"123 812 OFFCURVE",
"59 724 OFFCURVE",
"59 604 CURVE SMOOTH",
"59 0 LINE",
"159 0 LINE",
"159 597 LINE SMOOTH",
"159 667 OFFCURVE",
"195 722 OFFCURVE",
"280 722 CURVE SMOOTH",
"364 722 OFFCURVE",
"400 670 OFFCURVE",
"400 593 CURVE SMOOTH",
"400 519 OFFCURVE",
"357 470 OFFCURVE",
"270 422 CURVE",
"270 358 LINE"
);
}
);
width = 592;
}
);
unicode = 00DF;
},
{
glyphname = ae;
layers = (
{
layerId = "C878BE66-A124-485F-B3BE-91B1D41027C7";
paths = (
{
closed = 1;
nodes = (
"829 277 LINE SMOOTH",
"829 426 OFFCURVE",
"759 542 OFFCURVE",
"599 542 CURVE SMOOTH",
"518 542 OFFCURVE",
"463 510 OFFCURVE",
"429 459 CURVE",
"405 510 OFFCURVE",
"356 542 OFFCURVE",
"263 542 CURVE SMOOTH",
"100 542 OFFCURVE",
"60 448 OFFCURVE",
"60 364 CURVE SMOOTH",
"60 355 LINE",
"155 355 LINE",
"155 412 OFFCURVE",
"175 462 OFFCURVE",
"260 462 CURVE SMOOTH",
"341 462 OFFCURVE",
"366 422 OFFCURVE",
"366 343 CURVE SMOOTH",
"366 335 LINE",
"220 312 LINE SMOOTH",
"125 298 OFFCURVE",
"40 263 OFFCURVE",
"40 148 CURVE SMOOTH",
"40 138 LINE SMOOTH",
"40 53 OFFCURVE",
"93 -12 OFFCURVE",
"202 -12 CURVE SMOOTH",
"295 -12 OFFCURVE",
"368 29 OFFCURVE",
"412 79 CURVE",
"450 23 OFFCURVE",
"513 -12 OFFCURVE",
"605 -12 CURVE SMOOTH",
"755 -12 OFFCURVE",
"829 77 OFFCURVE",
"829 166 CURVE SMOOTH",
"829 170 LINE",
"734 170 LINE",
"734 122 OFFCURVE",
"693 68 OFFCURVE",
"605 68 CURVE SMOOTH",
"514 68 OFFCURVE",
"470 124 OFFCURVE",
"467 227 CURVE",
"829 227 LINE"
);
},
{
closed = 1;
nodes = (
"356 121 OFFCURVE",
"315 70 OFFCURVE",
"228 70 CURVE SMOOTH",
"165 70 OFFCURVE",
"139 108 OFFCURVE",
"139 148 CURVE SMOOTH",
"139 156 LINE SMOOTH",
"139 206 OFFCURVE",
"173 236 OFFCURVE",
"234 246 CURVE SMOOTH",
"366 268 LINE",
"366 253 LINE SMOOTH",
"366 218 OFFCURVE",
"370 185 OFFCURVE",
"378 155 CURVE",
"371 147 LINE"
);
},
{
closed = 1;
nodes = (
"683 462 OFFCURVE",
"724 403 OFFCURVE",
"728 303 CURVE",
"467 303 LINE",
"470 403 OFFCURVE",
"512 462 OFFCURVE",
"597 462 CURVE SMOOTH"
);
}
);
width = 867;
}
);
unicode = 00E6;
},
{
glyphname = eth;
layers = (
{
layerId = "C878BE66-A124-485F-B3BE-91B1D41027C7";
paths = (
{
closed = 1;
nodes = (
"94 715 OFFCURVE",
"144 705 OFFCURVE",
"189 687 CURVE",
"77 623 LINE",
"77 557 LINE",
"250 655 LINE",
"273 640 OFFCURVE",
"295 622 OFFCURVE",
"315 601 CURVE SMOOTH",
"338 576 OFFCURVE",
"357 546 OFFCURVE",
"371 513 CURVE",
"341 532 OFFCURVE",
"305 542 OFFCURVE",
"262 542 CURVE SMOOTH",
"113 542 OFFCURVE",
"42 428 OFFCURVE",
"42 279 CURVE SMOOTH",
"42 251 LINE SMOOTH",
"42 102 OFFCURVE",
"113 -12 OFFCURVE",
"274 -12 CURVE SMOOTH",
"435 -12 OFFCURVE",
"506 102 OFFCURVE",
"506 251 CURVE SMOOTH",
"506 279 LINE SMOOTH",
"506 397 OFFCURVE",
"484 555 OFFCURVE",
"394 659 CURVE SMOOTH",
"378 677 OFFCURVE",
"361 693 OFFCURVE",
"344 708 CURVE",
"409 745 LINE",
"409 812 LINE",
"290 745 LINE",
"217 787 OFFCURVE",
"132 805 OFFCURVE",
"42 812 CURVE",
"42 721 LINE"
);
},
{
closed = 1;
nodes = (
"184 76 OFFCURVE",
"143 145 OFFCURVE",
"143 251 CURVE SMOOTH",
"143 279 LINE SMOOTH",
"143 385 OFFCURVE",
"184 454 OFFCURVE",
"274 454 CURVE SMOOTH",
"364 454 OFFCURVE",
"405 385 OFFCURVE",
"405 279 CURVE SMOOTH",
"405 251 LINE SMOOTH",
"405 145 OFFCURVE",
"364 76 OFFCURVE",
"274 76 CURVE SMOOTH"
);
}
);
width = 548;
}
);
rightKerningGroup = b;
unicode = 00F0;
},
{
glyphname = oslash;
layers = (
{
layerId = "C878BE66-A124-485F-B3BE-91B1D41027C7";
paths = (
{
closed = 1;
nodes = (
"443 530 LINE",
"418 497 LINE",
"382 525 OFFCURVE",
"334 542 OFFCURVE",
"274 542 CURVE SMOOTH",
"113 542 OFFCURVE",
"42 428 OFFCURVE",
"42 279 CURVE SMOOTH",
"42 251 LINE SMOOTH",
"42 179 OFFCURVE",
"58 115 OFFCURVE",
"94 68 CURVE",
"42 0 LINE",
"105 0 LINE",
"129 32 LINE",
"165 4 OFFCURVE",
"213 -12 OFFCURVE",
"274 -12 CURVE SMOOTH",
"435 -12 OFFCURVE",
"506 102 OFFCURVE",
"506 251 CURVE SMOOTH",
"506 279 LINE SMOOTH",
"506 351 OFFCURVE",
"489 414 OFFCURVE",
"454 461 CURVE",
"506 530 LINE"
);
},
{
closed = 1;
nodes = (
"405 251 LINE SMOOTH",
"405 145 OFFCURVE",
"364 76 OFFCURVE",
"274 76 CURVE SMOOTH",
"237 76 OFFCURVE",
"208 88 OFFCURVE",
"187 109 CURVE",
"389 376 LINE",
"400 349 OFFCURVE",
"405 316 OFFCURVE",
"405 279 CURVE SMOOTH"
);
},
{
closed = 1;
nodes = (
"143 279 LINE SMOOTH",
"143 385 OFFCURVE",
"184 454 OFFCURVE",
"274 454 CURVE SMOOTH",
"311 454 OFFCURVE",
"339 442 OFFCURVE",
"360 421 CURVE",
"158 154 LINE",
"148 180 OFFCURVE",
"143 213 OFFCURVE",
"143 251 CURVE SMOOTH"
);
}
);
width = 548;
}
);
leftKerningGroup = o;
rightKerningGroup = o;
unicode = 00F8;
},
{
glyphname = thorn;
layers = (
{
layerId = "C878BE66-A124-485F-B3BE-91B1D41027C7";
paths = (
{
closed = 1;
nodes = (
"61 -200 LINE",
"161 -200 LINE",
"161 56 LINE",
"190 17 OFFCURVE",
"236 -12 OFFCURVE",
"307 -12 CURVE SMOOTH",
"452 -12 OFFCURVE",
"508 102 OFFCURVE",
"508 251 CURVE SMOOTH",
"508 279 LINE SMOOTH",
"508 428 OFFCURVE",
"452 542 OFFCURVE",
"307 542 CURVE SMOOTH",
"236 542 OFFCURVE",
"190 513 OFFCURVE",
"161 474 CURVE",
"161 800 LINE",
"61 800 LINE"
);
},
{
closed = 1;
nodes = (
"180 412 OFFCURVE",
"217 454 OFFCURVE",
"281 454 CURVE SMOOTH",
"368 454 OFFCURVE",
"407 387 OFFCURVE",
"407 279 CURVE SMOOTH",
"407 251 LINE SMOOTH",
"407 143 OFFCURVE",
"368 76 OFFCURVE",
"281 76 CURVE SMOOTH",
"217 76 OFFCURVE",
"180 118 OFFCURVE",
"161 147 CURVE",
"161 383 LINE"
);
}
);
width = 550;
}
);
unicode = 00FE;
},
{
glyphname = dcroat;
layers = (
{
layerId = "C878BE66-A124-485F-B3BE-91B1D41027C7";
paths = (
{
closed = 1;
nodes = (
"493 703 LINE",
"493 800 LINE",
"392 800 LINE",
"392 703 LINE",
"266 703 LINE",
"266 627 LINE",
"392 627 LINE",
"392 475 LINE",
"362 514 OFFCURVE",
"316 542 OFFCURVE",
"247 542 CURVE SMOOTH",
"102 542 OFFCURVE",
"46 428 OFFCURVE",
"46 279 CURVE SMOOTH",
"46 251 LINE SMOOTH",
"46 102 OFFCURVE",
"102 -12 OFFCURVE",
"247 -12 CURVE SMOOTH",
"325 -12 OFFCURVE",
"373 23 OFFCURVE",
"402 69 CURVE",
"413 0 LINE",
"500 0 LINE",
"493 150 LINE",
"493 627 LINE",
"576 627 LINE",
"576 703 LINE"
);
},
{
closed = 1;
nodes = (
"392 147 LINE",
"374 118 OFFCURVE",
"337 76 OFFCURVE",
"273 76 CURVE SMOOTH",
"186 76 OFFCURVE",
"147 143 OFFCURVE",
"147 251 CURVE SMOOTH",
"147 279 LINE SMOOTH",
"147 387 OFFCURVE",
"186 454 OFFCURVE",
"273 454 CURVE SMOOTH",
"337 454 OFFCURVE",
"374 412 OFFCURVE",
"392 383 CURVE"
);
}
);
width = 554;
}
);
leftKerningGroup = d;
unicode = 0111;
},
{
glyphname = hbar;
layers = (
{
layerId = "C878BE66-A124-485F-B3BE-91B1D41027C7";
paths = (
{
closed = 1;
nodes = (
"62 800 LINE",
"62 703 LINE",
"-22 703 LINE",
"-22 627 LINE",
"62 627 LINE",
"62 0 LINE",
"162 0 LINE",
"162 383 LINE",
"180 412 OFFCURVE",
"218 454 OFFCURVE",
"290 454 CURVE SMOOTH",
"355 454 OFFCURVE",
"390 417 OFFCURVE",
"390 351 CURVE SMOOTH",
"390 0 LINE",
"489 0 LINE",
"489 367 LINE SMOOTH",
"489 465 OFFCURVE",
"438 542 OFFCURVE",
"327 542 CURVE SMOOTH",
"248 542 OFFCURVE",
"195 512 OFFCURVE",
"162 471 CURVE",
"162 627 LINE",
"288 627 LINE",
"288 703 LINE",
"162 703 LINE",
"162 800 LINE"
);
}
);
width = 545;
}
);
rightKerningGroup = h;
unicode = 0127;
},
{
glyphname = dotlessi;
layers = (
{
layerId = "C878BE66-A124-485F-B3BE-91B1D41027C7";
paths = (
{
closed = 1;
nodes = (
"168 0 LINE",
"168 530 LINE",
"66 530 LINE",
"66 0 LINE"
);
}
);
width = 234;
}
);
leftKerningGroup = dotlessi;
unicode = 0131;
},
{
glyphname = ij;
layers = (
{
layerId = "C878BE66-A124-485F-B3BE-91B1D41027C7";
paths = (
{
closed = 1;
nodes = (
"250 -106 OFFCURVE",
"216 -124 OFFCURVE",
"156 -124 CURVE SMOOTH",
"135 -124 OFFCURVE",
"109 -119 OFFCURVE",
"102 -116 CURVE",
"102 -200 LINE",
"110 -204 OFFCURVE",
"136 -212 OFFCURVE",
"180 -212 CURVE SMOOTH",
"279 -212 OFFCURVE",
"350 -166 OFFCURVE",
"350 -40 CURVE SMOOTH",
"350 530 LINE",
"250 530 LINE",
"250 -29 LINE SMOOTH"
);
},
{
closed = 1;
nodes = (
"167 0 LINE",
"167 530 LINE",
"67 530 LINE",
"67 0 LINE"
);
},
{
closed = 1;
nodes = (
"60 754 LINE",
"60 640 LINE",
"174 640 LINE",
"174 754 LINE"
);
},
{
closed = 1;
nodes = (
"243 754 LINE",
"243 640 LINE",
"357 640 LINE",
"357 754 LINE"
);
}
);
width = 417;
}
);
unicode = 0133;
},
